<?xml version="1.0" encoding="UTF-8" standalone="no"?>
<!-- Created with Inkscape (http://www.inkscape.org/) -->

<svg
   width="3000.0002"
   height="2999.885"
   viewBox="0 0 793.75011 793.71965"
   version="1.1"
   id="svg1"
   xml:space="preserve"
   inkscape:version="1.4.2 (f4327f4, 2025-05-13)"
   sodipodi:docname="DicksonObeliskReimagined.svg"
   inkscape:export-filename="C:\Users\facep\Downloads\DicksonObeliskNeweBay.png"
   inkscape:export-xdpi="281.52982"
   inkscape:export-ydpi="281.52982"
   xmlns:inkscape="http://www.inkscape.org/namespaces/inkscape"
   xmlns:sodipodi="http://sodipodi.sourceforge.net/DTD/sodipodi-0.dtd"
   xmlns="http://www.w3.org/2000/svg"
   xmlns:svg="http://www.w3.org/2000/svg"><sodipodi:namedview
     id="namedview1"
     pagecolor="#ffffff"
     bordercolor="#000000"
     borderopacity="0.25"
     inkscape:showpageshadow="2"
     inkscape:pageopacity="0.0"
     inkscape:pagecheckerboard="0"
     inkscape:deskcolor="#d1d1d1"
     inkscape:document-units="mm"
     inkscape:zoom="0.17972959"
     inkscape:cx="1326.9935"
     inkscape:cy="1677.5201"
     inkscape:window-width="1920"
     inkscape:window-height="1009"
     inkscape:window-x="-8"
     inkscape:window-y="-8"
     inkscape:window-maximized="1"
     inkscape:current-layer="layer1"
     showgrid="false" /><defs
     id="defs1" /><g
     inkscape:label="Layer 1"
     inkscape:groupmode="layer"
     id="layer1"
     transform="translate(30.691739,-12.979649)"><g
       id="g292"
       inkscape:label="Dickson"
       transform="matrix(2.9326062,0,0,2.9326062,-707.6881,-792.05825)"><path
         style="fill:#000000"
         d="m 358.62534,314.00447 c -0.28897,-0.31913 -0.30286,-0.48547 -0.0607,-0.7276 0.17263,-0.17264 0.46016,-0.31389 0.63894,-0.31389 0.17878,0 0.51216,-0.1871 0.74084,-0.41577 0.36371,-0.36372 0.41577,-1.70377 0.41577,-10.70318 0,-6.97591 -0.0946,-10.49494 -0.29376,-10.93213 -0.16157,-0.3546 -0.57829,-0.77437 -0.92604,-0.93282 -0.68192,-0.3107 -0.83727,-1.12284 -0.30007,-1.56868 0.18271,-0.15164 0.68873,-0.35898 1.12447,-0.46075 0.43575,-0.10177 1.05401,-0.34818 1.37391,-0.54757 0.3199,-0.1994 0.97475,-0.39359 1.45522,-0.43155 l 0.87357,-0.069 v 8.72613 c 0,10.22944 -0.11621,9.91159 2.64035,7.22198 1.75746,-1.71479 2.23297,-2.86438 1.3284,-3.2115 -0.21828,-0.0838 -0.39688,-0.43586 -0.39688,-0.78244 0,-0.60538 0.0951,-0.63689 2.4219,-0.80205 4.09718,-0.29083 5.51054,-0.22837 5.69474,0.25167 0.1975,0.51465 -0.27125,0.8409 -1.50206,1.04544 -0.50933,0.0846 -1.40229,0.35429 -1.98438,0.59921 -1.26083,0.53051 -3.83646,3.09265 -3.83646,3.81637 0,0.48777 4.59588,7.22079 5.61125,8.22056 0.26763,0.26351 0.89238,0.64866 1.38833,0.85589 1.07527,0.44927 1.40508,0.88774 0.90567,1.20406 -0.20054,0.12702 -2.06126,0.23277 -4.13493,0.235 -3.42364,0.004 -3.77032,-0.0387 -3.77032,-0.46147 0,-0.25603 0.23813,-0.61423 0.52917,-0.79599 0.29104,-0.18176 0.52917,-0.51121 0.52917,-0.73213 0,-0.42376 -2.55932,-4.59148 -3.44521,-5.61033 -0.63891,-0.73482 -0.90443,-0.74639 -1.58188,-0.0689 -0.44025,0.44025 -0.52916,0.88194 -0.52916,2.62861 0,2.53532 0.24441,3.25868 1.31469,3.89091 0.45044,0.26608 0.78183,0.66283 0.73852,0.88418 -0.11764,0.60114 -6.41766,0.5901 -6.96304,-0.0122 z"
         id="path290" /><path
         style="fill:#000000"
         d="m 388.22221,316.96488 c -0.61041,-0.24263 -1.47361,-0.7101 -1.91823,-1.03882 -0.68572,-0.50697 -0.80608,-0.76712 -0.79315,-1.71423 0.0295,-2.16367 0.33902,-3.2261 0.96586,-3.31585 0.48181,-0.069 0.62569,0.1058 0.87122,1.05833 0.59846,2.32171 0.84678,2.85854 1.62522,3.51355 1.51905,1.2782 4.09421,0.55815 4.22714,-1.18196 0.11801,-1.54488 -0.0725,-1.92487 -1.83245,-3.65439 -2.40678,-2.36519 -2.99353,-3.25511 -3.04418,-4.61709 -0.0508,-1.36458 0.95212,-3.50656 1.99703,-4.26534 1.60645,-1.16654 6.30031,-0.66791 7.24201,0.76932 0.52578,0.80243 0.3143,2.71758 -0.39708,3.59611 -0.62612,0.77323 -0.96927,0.50332 -1.34353,-1.05677 -0.60288,-2.51307 -2.80674,-3.51532 -4.05038,-1.84197 -0.92987,1.25116 -0.47235,2.41461 1.85606,4.71985 1.10223,1.09126 2.16418,2.36736 2.3599,2.83578 0.91889,2.19922 -0.0136,4.83523 -2.18536,6.17743 -1.0498,0.64881 -3.96708,0.65721 -5.58008,0.0161 z"
         id="path289" /><path
         style="fill:#000000"
         d="m 340.38412,317.08908 c -2.92,-0.83519 -4.47334,-2.52603 -5.70748,-6.2127 -0.62152,-1.8566 -0.62925,-2.94328 -0.0341,-4.79257 0.61617,-1.91466 1.1425,-2.85164 2.21312,-3.93986 1.364,-1.38643 2.75753,-2.15028 4.64224,-2.54461 2.07595,-0.43435 3.32557,-0.12533 3.99234,0.98726 0.40753,0.68001 0.4011,0.76178 -0.11436,1.45521 -0.83546,1.12391 -1.97913,1.13565 -4.12826,0.0424 -0.78991,-0.40183 -1.53645,-0.25958 -2.59193,0.49389 -1.79912,1.28433 -2.31145,3.18535 -1.54603,5.73668 1.67487,5.58277 6.73092,7.23142 9.76374,3.18371 0.93274,-1.24487 1.31985,-1.41735 1.8223,-0.81194 0.23857,0.28746 0.14895,0.7023 -0.404,1.87015 -1.03589,2.18782 -2.58537,3.75552 -4.33195,4.38286 -1.60326,0.57587 -2.02358,0.59345 -3.57561,0.14953 z"
         id="path288"
         inkscape:label="C" /><path
         id="path287"
         style="fill:#000000"
         d="m 321.02776,326.31098 c -0.0891,-0.23229 0.0867,-0.67021 0.40518,-1.00924 0.59616,-0.63458 0.7309,-1.72423 0.30749,-2.48662 -0.14033,-0.25269 -0.71494,-1.41193 -1.27691,-2.5761 -2.19765,-4.55261 -2.63284,-5.10327 -4.11883,-5.2117 -1.49461,-0.10905 -1.43511,-0.57975 0.35923,-2.84174 2.05752,-2.59378 2.29684,-2.63769 3.22032,-0.59083 1.67729,3.71763 4.66207,9.52776 5.27236,10.26312 0.18129,0.21844 0.81638,0.36553 1.57826,0.36553 1.36269,0 1.85967,0.36261 1.2713,0.92758 -0.31093,0.29857 -2.01855,1.26125 -4.78855,2.69959 -0.39729,0.2063 -0.79127,0.48661 -0.87551,0.62292 -0.24583,0.39777 -1.18246,0.28538 -1.35434,-0.16251 z m -8.93905,-22.4027 c -1.15942,-1.65531 0.60646,-3.57427 2.19961,-2.39028 1.41614,1.05244 0.82273,2.97831 -0.9177,2.97831 -0.59913,0 -0.99828,-0.18309 -1.28191,-0.58803 z"
         inkscape:label="i" /><path
         id="path285"
         style="fill:#000000"
         d="m 413.13551,310.0524 c -1.58345,0 -2.29896,0.13763 -3.38222,0.65009 -4.24539,2.00839 -6.23954,7.78336 -4.13928,11.98635 0.8948,1.79065 1.98005,2.7851 4.03438,3.69641 1.14517,0.508 1.71648,0.5944 3.36362,0.5085 2.43803,-0.12715 3.98228,-0.77442 5.47925,-2.29702 1.50883,-1.53466 2.41062,-3.48161 2.71146,-5.85442 0.47751,-3.76624 -0.79076,-6.14096 -4.14807,-7.76542 -1.6684,-0.80727 -2.16552,-0.92449 -3.91914,-0.92449 z m 0.82114,1.85208 c 2.77199,0 4.08244,1.38323 4.08244,4.30878 0,3.09393 -1.4929,6.22523 -3.81165,7.99383 -2.08663,1.59155 -5.03066,1.16547 -5.96501,-0.863 -0.51243,-1.11251 -0.66307,-3.62003 -0.27751,-4.61728 1.747,-4.51866 3.76322,-6.82233 5.97173,-6.82233 z" /><path
         style="fill:#000000"
         d="m 435.22253,344.95485 c -0.35571,-0.31398 -1.4586,-1.22283 -2.45088,-2.01966 -1.93902,-1.55711 -2.32154,-2.10413 -1.74015,-2.48851 0.36021,-0.23814 0.81885,-0.19886 2.01461,0.17258 0.62688,0.19473 0.60507,0.21287 3.52167,-2.92929 3.76857,-4.06002 4.37862,-5.98893 2.5375,-8.02335 -0.70039,-0.77392 -2.83194,-1.43758 -3.63055,-1.13038 -0.74347,0.28598 -5.68994,5.52472 -6.44175,6.82237 -0.45293,0.78177 -0.47508,1.00258 -0.18187,1.81343 0.18362,0.5078 0.25984,1.04303 0.16938,1.1894 -0.27059,0.43783 -1.06911,0.30277 -1.74641,-0.29538 -0.34968,-0.30883 -1.25066,-1.0298 -2.00217,-1.60217 -0.75151,-0.57236 -1.43239,-1.21265 -1.51305,-1.42287 -0.2841,-0.74034 0.12995,-1.17596 1.11771,-1.17596 0.8657,0 1.20664,-0.25306 3.47743,-2.58104 4.03042,-4.13195 4.59594,-4.91094 4.43519,-6.10942 -0.19398,-1.44621 0.16862,-1.96877 1.21347,-1.74882 0.77563,0.16328 2.14033,0.67686 3.08667,1.16162 0.22327,0.11437 0.45474,0.7097 0.52917,1.361 0.12833,1.1231 0.16529,1.16329 1.23655,1.34493 3.41565,0.57915 5.40948,3.53272 4.58886,6.79771 -0.36803,1.46425 -1.06446,2.42657 -3.6538,5.04874 -3.2115,3.25223 -3.2718,3.34471 -3.17901,4.87555 0.0952,1.57007 -0.34036,1.86475 -1.38857,0.93952 z"
         id="path284" /><path
         id="path282"
         style="fill:#000000"
         d="m 295.59643,314.68312 c -1.66532,-0.0352 -3.22307,0.1773 -4.39818,0.64338 -3.80942,1.51091 -7.09388,4.27816 -9.68726,8.16177 -1.20594,1.80591 -3.92837,4.54976 -5.75159,5.79706 -0.66147,0.45253 -0.8,1.53422 -0.22479,1.75494 0.20375,0.0782 0.76294,-0.14709 1.2423,-0.50075 1.77152,-1.30698 1.67737,-1.37205 9.90586,6.85385 4.69645,4.69496 7.5657,7.76052 7.67653,8.20208 0.25737,1.02547 -0.0362,1.88052 -0.93793,2.73162 -0.86657,0.81791 -0.96123,1.14044 -0.47697,1.6247 0.54448,0.54448 1.01118,0.35606 2.00091,-0.80718 0.52621,-0.61846 2.08787,-2.19604 3.47059,-3.50573 7.67188,-7.26667 9.35496,-9.29921 10.7363,-12.96459 0.44308,-1.17568 0.62793,-4.30198 0.36742,-6.2177 -0.64585,-4.74943 -4.50511,-9.49945 -8.8806,-10.9306 -1.60454,-0.52482 -3.37726,-0.80765 -5.04259,-0.84285 z m -2.6019,3.82406 v 5.2e-4 c 1.24903,0.0335 2.52648,0.14392 3.05252,0.31057 4.33361,1.37286 7.72665,4.08999 9.42372,7.54631 0.6796,1.38409 0.76098,1.8265 0.76998,4.19303 0.01,2.54637 -0.0286,2.72553 -1.0201,4.75733 -1.13852,2.33297 -3.37456,4.90363 -4.97644,5.72161 -1.23256,0.62942 -1.97942,0.63176 -2.98741,0.009 -1.56451,-0.96643 -10.21955,-9.48367 -13.1961,-12.98577 -1.46637,-1.72527 -1.55961,-2.55849 -0.47594,-4.26331 1.39382,-2.19273 4.05626,-4.28826 6.52829,-5.13767 0.41179,-0.1415 1.63244,-0.18491 2.88148,-0.15141 z"
         inkscape:label="D" /></g><g
       id="g293"
       inkscape:label="Dash"
       transform="matrix(2.9326062,0,0,2.9326062,-707.6881,-792.05825)"><path
         style="fill:#000000"
         d="m 465.77309,411.02521 c -0.0782,-0.20374 -0.10487,-0.89008 -0.0593,-1.52519 l 0.0828,-1.15475 8.12994,-0.07 8.12994,-0.07 0.15778,0.62866 c 0.0868,0.34577 0.11925,1.03209 0.0721,1.52517 l -0.0856,0.89651 -8.14277,0.07 c -6.78244,0.0583 -8.16652,0.008 -8.28493,-0.30046 z"
         id="path281" /><path
         style="fill:#000000"
         d="m 250.08186,409.86663 0.0794,-1.52136 8.26823,-0.0699 8.26823,-0.0699 v 1.59127 1.59127 h -8.34758 -8.34758 z"
         id="path280" /></g><path
       style="display:none;fill:#000000;stroke-width:2.93261"
       d="m 237.84873,612.18054 c -8.93544,-5.59119 -18.03485,-11.8318 -19.09669,-13.09699 -0.21349,-0.25426 -1.95804,-1.67531 -3.87702,-3.15792 -5.63504,-4.35366 -6.95538,-5.49588 -13.43084,-11.61872 -7.90317,-7.47287 -15.91036,-15.74079 -19.5377,-20.1739 -1.57135,-1.92038 -3.60092,-4.36453 -4.5102,-5.43142 -1.86766,-2.19145 -16.06224,-22.39432 -16.06224,-22.8611 0,-0.16628 -1.66938,-3.03419 -3.70977,-6.37288 -5.11854,-8.37552 -15.68819,-30.16516 -15.68819,-32.34169 0,-0.55831 -0.2393,-1.25442 -0.53177,-1.54689 -0.58062,-0.58062 -2.28247,-4.96745 -3.35569,-8.64992 -0.37311,-1.28026 -1.35941,-4.27601 -2.19174,-6.65723 -2.75181,-7.87237 -6.50628,-24.67717 -8.39382,-37.57014 -2.106,-14.38532 -1.87931,-55.26676 0.38077,-68.6688 3.19149,-18.9251 7.83252,-37.36595 11.4532,-45.5085 0.59796,-1.34478 1.08721,-2.83346 1.08721,-3.30819 0,-0.47476 0.31924,-1.46947 0.70945,-2.21051 0.39019,-0.74101 1.47736,-3.26771 2.41597,-5.61488 1.43595,-3.59089 5.15579,-11.26127 12.79385,-26.38123 0.75456,-1.49364 2.19508,-3.8272 3.2012,-5.18567 1.00615,-1.3585 1.82933,-2.67084 1.82933,-2.91633 0,-0.24546 2.32063,-3.8477 5.15693,-8.00493 24.05394,-35.25632 56.64842,-63.40735 94.38693,-81.51965 4.6054,-2.21033 8.53729,-4.01878 8.73755,-4.01878 0.2003,0 1.84426,-0.66837 3.65333,-1.48525 3.5686,-1.61144 13.82216,-5.09212 23.07512,-7.83311 3.20065,-0.94814 6.57623,-2.01209 7.50129,-2.36433 0.92503,-0.35226 3.82013,-0.88239 6.43358,-1.17808 l 4.75167,-0.53758 -0.51045,5.3413 c -0.56587,5.92123 -1.36005,6.99761 -5.70222,7.72842 -1.52618,0.25689 -4.17154,0.9196 -5.87855,1.47281 -1.70704,0.55318 -5.72243,1.79402 -8.92307,2.75744 -3.20068,0.96342 -6.15112,2.05092 -6.55652,2.41668 -0.40543,0.36572 -1.22556,0.66496 -1.82253,0.66496 -0.59699,0 -2.18567,0.48201 -3.53044,1.07111 -1.34475,0.5891 -4.36542,1.85543 -6.71256,2.81404 -18.17853,7.42442 -44.31274,23.54598 -57.77575,35.64049 -8.71262,7.82695 -12.05439,10.95886 -16.60767,15.5646 -9.82716,9.94042 -22.61025,26.42507 -30.36808,39.16168 -3.95819,6.49845 -13.16819,24.24749 -15.10999,29.11916 -4.67343,11.72491 -9.10571,24.8876 -10.84298,32.20064 -0.70964,2.98729 -1.61053,6.47891 -2.00195,7.7592 -1.3487,4.41126 -3.7662,20.20707 -4.68771,30.62931 -1.47384,16.66903 0.16628,51.41015 2.82894,59.92447 0.22757,0.72776 0.71074,2.9973 1.07368,5.04347 0.36291,2.04619 1.53247,7.03737 2.59897,11.09155 11.805,44.87504 36.40534,84.43027 71.53474,115.02181 6.11299,5.32332 20.16029,15.48463 27.27981,19.73324 l 7.24858,4.32559 v 6.49972 c 0,5.67471 -0.17244,6.49912 -1.35786,6.49507 -0.74682,-0.003 -5.85797,-2.82052 -11.3581,-6.26214 z"
       id="path273"
       inkscape:label="Left half-ring collapsing/rotating" /><path
       style="fill:#000000;stroke-width:2.93261"
       d="m 480.75393,618.70597 c -0.28447,-0.28446 -0.5111,-3.1651 -0.50353,-6.40135 l 0.0147,-5.88404 7.92598,-5.04347 c 7.04844,-4.48507 16.59375,-11.20504 17.6518,-12.42697 0.21349,-0.24634 2.6575,-2.15547 5.43142,-4.24228 7.36677,-5.54201 25.84732,-24.30216 33.64442,-34.15343 6.83575,-8.63667 13.79559,-18.63917 16.80087,-24.14582 0.90389,-1.65622 2.36638,-4.23339 3.24994,-5.72705 5.29599,-8.95264 13.59345,-27.83639 18.41058,-41.89959 1.90693,-5.56708 7.0074,-27.02335 8.11572,-34.14043 4.26422,-27.38286 2.94352,-64.78429 -3.02756,-85.73903 -0.60802,-2.13376 -1.68815,-6.32372 -2.40028,-9.31102 -2.70392,-11.34265 -10.91988,-33.06003 -15.99789,-42.28757 -1.29167,-2.34714 -3.30511,-6.01336 -4.47434,-8.14713 -9.93218,-18.12588 -21.33087,-33.3423 -36.80515,-49.13206 -5.15303,-5.25811 -11.8133,-11.54227 -14.8006,-13.96478 -2.98727,-2.42254 -5.606,-4.58883 -5.81937,-4.81396 -0.2135,-0.22523 -3.00669,-2.3121 -6.20736,-4.63763 -3.20068,-2.32552 -5.99399,-4.42427 -6.20736,-4.66387 -0.41491,-0.46593 -11.76585,-7.57225 -14.35449,-8.98673 -12.7823,-6.9845 -18.82332,-10.05714 -26.57522,-13.51691 l -4.07357,-1.8181 v -6.06903 c 0,-3.3732 0.33191,-6.06903 0.7472,-6.06903 2.364,0 22.191,9.09337 32.42333,14.87051 1.38695,0.78307 3.8038,2.14984 5.37078,3.03725 3.44429,1.95056 10.01274,6.34064 18.87669,12.61639 23.92168,16.93674 50.37528,46.13485 65.13908,71.89712 3.22076,5.62014 14.2341,28.14429 15.93437,32.58859 5.59873,14.63415 8.27989,23.89505 12.35528,42.67552 5.66749,26.1175 5.67864,66.09118 0.0264,92.7223 -3.29942,15.54401 -4.30146,19.17575 -9.31267,33.75245 -4.3321,12.60129 -12.54129,30.46423 -17.90514,38.96114 -1.00952,1.59921 -1.83552,3.26372 -1.83552,3.69898 0,0.43523 -0.34916,0.79133 -0.77591,0.79133 -0.42675,0 -0.77591,0.38324 -0.77591,0.85166 0,1.35449 -12.44052,19.03834 -19.06376,27.09855 -6.05536,7.36917 -21.04024,22.76682 -29.04321,29.84322 -8.30162,7.34049 -27.48028,20.79896 -37.4656,26.2912 -4.1609,2.28861 -3.98594,2.23177 -4.69264,1.52507 z"
       id="path272"
       inkscape:label="Right half-ring" /><path
       id="path229"
       style="fill:#000000;stroke-width:2.93261"
       inkscape:label="Main Obelisk"
       d="m 368.20812,140.90523 c -10.0413,-0.70954 -30.60347,2.79454 -42.77405,7.28941 -8.85542,3.27053 -27.53753,13.42268 -27.53753,14.96371 0,0.54913 1.96277,0.62552 6.01337,0.23637 15.46375,-1.48522 20.89118,-1.74332 33.17053,-1.57763 11.1986,0.15103 22.81316,1.18932 26.59795,2.37626 1.25149,0.39247 0.35212,2.17896 -11.31297,22.45468 -13.77146,23.93696 -12.8142,21.42594 -13.19969,34.62082 l -0.33191,11.34326 -4.36909,0.98052 c -4.95927,1.11328 -28.57,8.78019 -32.68858,10.6143 -30.69498,13.66935 -44.40506,32.99103 -39.16874,55.20239 1.8415,7.81138 4.86947,13.12104 10.90073,19.12065 11.54095,11.48033 25.29402,17.19466 53.87332,22.38191 5.41333,0.98251 5.80982,1.18651 5.67844,2.92789 -0.0777,1.02964 -0.504,10.07693 -0.94717,20.10568 -1.11551,25.24259 -2.37996,43.75496 -3.02487,44.28646 -0.29833,0.24576 -1.93919,0.836 -3.6462,1.31088 -12.88505,3.58446 -30.04933,9.61264 -31.77479,11.15991 -0.4054,0.36356 -1.16151,0.66075 -1.68064,0.66075 -1.53461,0 -15.12234,7.95478 -19.71773,11.54329 -12.84939,10.03403 -20.37077,20.19314 -24.48389,33.07203 -2.23078,6.98488 -2.07019,22.09825 0.3137,29.48489 3.17158,9.82731 6.60273,15.48636 13.66952,22.54711 6.62226,6.61667 14.07974,11.33719 26.42973,16.72926 5.62339,2.45521 22.96536,6.452 30.64879,7.06356 2.68747,0.21379 2.71761,0.25631 2.94606,4.18724 l 0.23197,3.97204 -3.7235,1.17451 c -2.04745,0.64581 -4.65088,1.38844 -5.78603,1.65032 -1.98194,0.45737 -2.08054,0.73195 -2.50052,6.88174 -0.24047,3.52224 -0.6257,11.4657 -0.85473,17.65367 -0.22933,6.18795 -0.63262,15.14853 -0.89715,19.9117 l -0.48191,8.66089 -4.74798,0.84107 c -2.61154,0.46268 -8.58875,1.36246 -13.28306,2.00042 -12.53431,1.70347 -16.64697,2.43342 -17.27783,3.06428 -0.72958,0.7289 -0.71154,12.58215 0.0205,13.31339 0.57693,0.57693 10.72055,2.80325 28.11947,6.17249 5.54781,1.0743 11.48361,2.29905 13.19062,2.72178 1.70705,0.42277 7.62865,1.64179 13.15881,2.70812 5.53017,1.06629 11.29136,2.2511 12.80265,2.63236 1.51129,0.38124 6.23918,1.43839 10.50673,2.34899 4.26756,0.91063 8.6321,1.97315 9.69898,2.3611 l 0.002,-0.002 c 3.58778,1.30465 15.74985,-0.15396 36.08021,-4.32818 2.98727,-0.61335 8.57388,-1.66155 12.41469,-2.32928 12.05034,-2.09494 19.20144,-3.40924 25.21736,-4.63428 9.81898,-1.99948 18.10139,-3.58432 20.94981,-4.00993 1.49363,-0.22317 3.15217,-0.75664 3.68561,-1.18509 1.03351,-0.83008 1.34146,-9.39622 0.49103,-13.64829 -0.43194,-2.15975 -0.82559,-2.43803 -4.07359,-2.87786 -5.62058,-0.76113 -10.42143,-2.22157 -10.10664,-3.07337 0.15777,-0.42675 2.42749,-1.52457 5.04499,-2.4399 18.36354,-6.42161 33.91031,-19.8311 38.7641,-33.43423 1.33451,-3.74013 1.38979,-16.06655 0.088,-19.60406 -4.53398,-12.31994 -13.03599,-21.09451 -26.05086,-26.8874 -9.77655,-4.35155 -11.99554,-5.1676 -17.54154,-6.44833 -2.13379,-0.49274 -5.20464,-1.24258 -6.82414,-1.66701 -3.05047,-0.79946 -11.47649,-1.95881 -19.55708,-2.68994 -7.74604,-0.70086 -7.89625,-0.7725 -8.41083,-4.00236 -0.25602,-1.60613 -0.82184,-11.82394 -1.25786,-22.70623 -0.43602,-10.88226 -1.14955,-24.32506 -1.58516,-29.87288 -0.43561,-5.54781 -0.8745,-14.06988 -0.97597,-18.93877 l -0.18505,-8.85336 4.65551,-1.06081 c 9.29071,-2.11849 28.16036,-8.95553 38.02004,-13.7756 19.49987,-9.53275 32.7119,-22.10314 37.89575,-36.05445 2.51134,-6.75881 2.2189,-18.14841 -0.66074,-25.75383 -2.60301,-6.87473 -5.17696,-10.80956 -10.59768,-16.20186 -10.4655,-10.4106 -27.02012,-17.8264 -47.58713,-21.31805 -4.26753,-0.7245 -9.27763,-1.6532 -11.13262,-2.06409 -1.85502,-0.41091 -6.21956,-0.95723 -9.69898,-1.21236 -3.47945,-0.25514 -6.76203,-0.80685 -7.29547,-1.22753 -0.62946,-0.49635 -0.97805,-2.97854 -0.99565,-7.07116 -0.0147,-3.46849 -0.35053,-8.75152 -0.74864,-11.73882 -0.65796,-4.93707 -2.24162,-33.43036 -2.57934,-46.40509 l -0.13783,-5.28291 3.93564,-1.40029 c 19.18177,-6.8277 34.33988,-18.38172 40.40387,-30.79729 2.78457,-5.70128 3.00809,-6.6728 3.25824,-14.17567 0.19561,-5.87046 -0.0859,-9.31618 -1.03659,-12.70416 -6.05741,-21.58838 -32.64269,-38.98804 -62.00984,-40.58419 -4.30636,-0.23403 -9.53373,-0.54688 -11.61755,-0.69409 z m -6.27707,6.38165 c 5.89481,-0.16364 12.03193,-0.006 16.99293,0.51828 5.73158,0.60394 11.05584,1.41445 11.83275,1.80188 0.7769,0.38743 3.4366,1.17117 5.91031,1.74129 2.47374,0.57013 4.67771,1.32683 4.89649,1.68065 0.21877,0.35388 0.90345,0.64256 1.52305,0.64256 4.0372,0 17.94819,9.08141 23.87769,15.58807 6.44988,7.07773 8.92755,12.84024 9.60804,22.34555 0.73406,10.25324 -4.32047,19.9189 -14.97281,28.63021 -9.66777,7.90616 -29.95182,16.0069 -51.93047,20.73916 -4.48516,0.96571 -15.55026,3.82157 -24.44146,6.30886 -6.14598,1.71932 -11.88397,3.89731 -22.01366,8.35479 -8.57248,3.77224 -18.49082,11.81526 -22.67744,18.39016 -1.83082,2.87522 -2.16939,4.24498 -2.19285,8.83366 -0.0372,7.51052 1.85904,10.87434 9.2519,16.40946 3.17769,2.37916 9.77634,5.70424 11.31901,5.70424 0.47362,0 1.96048,0.47872 3.30525,1.06233 1.34475,0.58365 4.65276,1.71842 7.35152,2.52172 l 4.90707,1.45941 -0.18182,10.47489 c -0.0997,5.7612 -0.48573,11.08596 -0.85925,11.83278 -0.76459,1.52888 -1.07715,1.5341 -9.1595,0.13636 -22.51585,-3.89374 -39.79864,-11.98923 -48.21909,-22.585 -2.12766,-2.67732 -2.91146,-4.14729 -5.21171,-9.78839 -0.48672,-1.19366 -0.8835,-5.21362 -0.8835,-8.93369 0,-7.87416 1.59102,-13.11015 5.52843,-18.18257 10.90443,-14.04788 24.94859,-21.53521 58.48485,-31.1807 3.8408,-1.10465 8.72908,-2.52321 10.86287,-3.15369 5.43054,-1.60458 17.78904,-5.67665 20.35727,-6.70746 1.17914,-0.47329 2.8427,-1.11542 3.6962,-1.42604 6.12572,-2.22925 22.28904,-10.90988 27.47846,-14.75761 17.43511,-12.92733 21.40656,-29.82234 9.71564,-41.32828 -4.00955,-3.94611 -13.35298,-9.36657 -19.73591,-11.44936 -6.05299,-1.97511 -10.63651,-3.17798 -13.57859,-3.56285 -1.70704,-0.22318 -5.11109,-0.89885 -7.56369,-1.50182 -5.44256,-1.33809 -28.44082,-3.00762 -32.94472,-2.39142 -10.03071,1.37234 2.13567,-4.48906 14.12719,-6.80597 3.99283,-0.77148 9.64478,-1.25776 15.53958,-1.42149 z m 8.82606,18.09315 c 1.32921,0.0235 3.63526,0.62283 7.22879,1.8337 14.03971,4.7308 16.60846,5.96548 21.62873,10.39155 8.39327,7.39993 7.86971,16.93638 -1.50334,27.39661 -4.47058,4.9891 -5.05402,4.95153 -7.98197,-0.50769 -3.27624,-6.10862 -6.66232,-12.14017 -9.72777,-17.32784 -1.84913,-3.12923 -3.36282,-5.81984 -3.36282,-5.97849 0,-0.15866 -1.74581,-3.32209 -3.87958,-7.03025 -2.13376,-3.70817 -3.8796,-7.21515 -3.8796,-7.79405 0,-0.66855 0.44376,-1.00104 1.47756,-0.98354 z m -2.98392,9.63986 c 0.81949,-0.009 3.83412,3.46587 3.83412,4.50246 0,0.21613 1.34724,2.77938 2.99304,5.69817 6.63708,11.77084 11.68574,21.79545 11.21447,22.26672 -0.65084,0.65081 -5.33465,0.50688 -8.77609,-0.2698 -1.49367,-0.33704 -4.37422,-0.84734 -6.40132,-1.13357 l -3.68562,-0.5198 v -15.03796 c 0,-8.35773 0.31854,-15.23293 0.71682,-15.47897 0.0293,-0.0176 0.0642,-0.0264 0.1047,-0.0264 z m -5.86486,5.03288 c 0.21349,0 0.38795,0.17449 0.38795,0.38796 0,0.21349 -0.17449,0.38795 -0.38795,0.38795 -0.2135,0 -0.38796,-0.17449 -0.38796,-0.38795 0,-0.2135 0.17449,-0.38796 0.38796,-0.38796 z m -1.64276,1.77763 c 0.15983,-0.003 0.22082,0.31728 0.3137,0.7623 0.15777,0.7565 -1.66144,5.39488 -4.04175,10.3082 -2.38031,4.91332 -4.33606,9.18357 -4.34486,9.48833 -0.009,0.30476 -0.70063,1.42607 -1.53516,2.49295 -0.83453,1.06688 -1.52487,2.25388 -1.53366,2.63691 -0.009,0.3962 2.80427,0.47896 6.53167,0.19238 6.57974,-0.50576 8.91818,0.19297 5.95428,1.77918 -1.55378,0.83157 -17.15965,2.14089 -17.15965,1.43968 0,-0.56277 7.94725,-15.66971 8.48814,-16.13517 0.24809,-0.21349 1.49583,-2.40459 2.77178,-4.87071 3.24229,-6.26663 4.17709,-8.08698 4.55551,-8.09411 z m 7.2833,28.20739 c 0.73166,-0.45221 18.96338,0.95509 19.51468,1.50636 1.33472,1.33472 -3.8584,4.74566 -14.36965,9.43833 -2.15078,0.96023 -4.32158,1.74581 -4.82526,1.74581 -1.03617,0 -1.34005,-12.05993 -0.31977,-12.6905 z m -22.33341,9.58684 c 0.003,-3e-4 0.006,0 0.0117,0 0.43696,0 0.77591,2.1835 0.77591,4.99801 0,2.74873 -0.34915,5.21323 -0.77591,5.47688 -0.48942,0.30238 -0.77593,-1.54259 -0.77593,-4.99649 0,-3.10971 0.32654,-5.44216 0.76532,-5.4784 z m 44.68351,23.92616 1.37454,21.98338 c 0.75562,12.09093 1.69675,28.44285 2.09133,36.33783 0.39455,7.89496 1.24043,23.60734 1.87918,34.91635 0.63876,11.30901 1.34827,25.27557 1.5776,31.03677 0.22933,5.76119 0.6323,12.7939 0.89565,15.62747 l 0.47889,5.15107 -2.6248,1.2048 c -3.65285,1.67537 -14.33927,5.54556 -18.53263,6.712 -1.92042,0.53421 -4.50334,1.27941 -5.74058,1.6564 -2.97035,0.90485 -4.14357,0.86426 -4.7798,-0.16511 -0.28915,-0.46769 -0.2651,-34.16557 0.0531,-74.88524 l 0.57892,-74.03658 1.64578,-0.38493 c 0.90603,-0.21203 5.13895,-1.28422 9.40651,-2.38231 4.26756,-1.09811 8.64512,-2.17062 9.72778,-2.38382 z m -44.68198,12.63901 c 0.22815,-10e-4 0.39528,0.0317 0.46523,0.10147 0.18651,0.18651 -0.0147,3.79623 -0.44705,8.02287 -0.43297,4.22668 -1.1207,16.41404 -1.52759,27.08292 -0.40687,10.66888 -1.09915,26.03204 -1.53821,34.1404 -0.43905,8.10836 -1.18833,21.90032 -1.66549,30.64882 -0.47716,8.74849 -1.11043,23.41894 -1.40636,32.60069 -0.29593,9.18176 -0.80336,17.12522 -1.12903,17.65215 -0.32566,0.52693 -1.13987,0.95779 -1.80944,0.95779 -1.0758,0 -1.15375,-1.33178 -0.66834,-11.44482 1.34492,-28.02111 1.9176,-40.7112 2.70512,-59.93971 0.46315,-11.30901 1.19862,-24.75181 1.63519,-29.87288 1.12988,-13.25394 2.27653,-34.53059 2.28532,-42.4285 0.006,-6.1337 0.15074,-6.78315 1.61698,-7.24847 0.55356,-0.17566 1.10325,-0.27097 1.48367,-0.27273 z m -9.38378,2.57629 c 0.10322,-0.006 0.19883,-0.006 0.28798,0 0.29499,0.0147 0.51174,0.0874 0.63799,0.22112 0.58646,0.62221 -0.40277,29.87112 -1.27299,37.64722 -0.44109,3.94145 -0.69362,4.4502 -2.16863,4.35694 -6.93658,-0.43898 -20.65667,-6.42678 -24.40506,-10.6507 -5.82832,-6.56769 -3.57987,-13.43468 6.9681,-21.28471 6.96362,-5.1825 16.75489,-10.12702 19.95263,-10.29001 z m 63.53289,61.72796 h 3.44161 c 3.62688,0 14.37429,1.58971 23.50185,3.47497 2.98727,0.61702 6.64326,1.35407 8.12291,1.63824 1.47962,0.28417 3.22549,0.79095 3.8796,1.1275 0.65415,0.33654 3.6016,1.38046 6.54983,2.31866 7.46378,2.37509 17.98509,7.86387 22.43347,11.70394 4.7632,4.11184 9.35833,10.32832 11.52207,15.58505 1.99083,4.83672 2.35259,15.0179 0.685,19.3025 -4.4717,11.48931 -10.39955,18.33553 -23.03659,26.60551 -4.3256,2.83076 -8.0442,5.14655 -8.26385,5.14655 -0.21966,0 -3.31561,1.33454 -6.8787,2.96575 -3.56311,1.63117 -8.04985,3.43765 -9.97024,4.01447 -1.92042,0.57678 -3.82277,1.33718 -4.22817,1.68974 -0.40544,0.35244 -1.22613,0.64107 -1.82309,0.64107 -0.59699,0 -2.18476,0.48748 -3.52954,1.08353 -1.34474,0.59606 -6.11216,2.02529 -10.5931,3.1749 -4.48093,1.14958 -9.02005,2.37025 -10.08693,2.71269 -1.06688,0.34247 -4.03477,1.03545 -6.59532,1.53971 -5.313,1.04632 -6.15234,1.24941 -20.9498,5.08895 -12.53848,3.2534 -27.8207,7.95704 -30.64424,9.43073 -1.06873,0.55782 -2.20916,1.0158 -2.53386,1.01841 -1.0333,0.009 -7.7402,3.26423 -14.15296,6.87113 -18.30284,10.29459 -27.9034,22.19915 -27.87701,34.56173 0.009,4.26263 0.46116,6.48402 1.99133,9.78232 1.96405,4.2336 9.42997,12.40733 11.33722,12.4132 0.53344,0.001 0.9699,0.26804 0.9699,0.59406 0,0.50998 2.24878,1.65208 9.69898,4.92223 0.85351,0.37464 3.82139,1.3553 6.59532,2.18074 16.70257,4.97018 25.63508,6.06334 73.62437,9.0034 10.83389,0.66373 20.32665,1.54287 21.09376,1.95344 0.76714,0.41053 2.33374,0.74561 3.48256,0.74561 3.10675,0 15.28768,2.91747 23.23058,5.56327 16.90791,5.63201 27.98067,14.94172 30.72304,25.83263 1.26519,5.02458 0.43866,13.5472 -1.7549,18.09163 -0.97377,2.01734 -4.56724,6.45862 -7.99713,9.88388 -5.20367,5.19669 -7.6326,6.92672 -14.76368,10.52339 -10.22913,5.15922 -13.68354,6.48021 -21.33776,8.15323 -3.20014,0.69949 -6.60367,1.44754 -7.56369,1.66247 -0.96019,0.21496 -1.78399,0.088 -1.82915,-0.28183 -0.0452,-0.36983 -0.20616,-3.72397 -0.35919,-7.45459 l -0.27889,-6.78321 6.37405,-3.1734 c 11.17965,-5.56527 17.40129,-11.36649 19.82835,-18.48718 5.06898,-14.87189 -12.44581,-28.08859 -42.16481,-31.8172 -8.72424,-1.09456 -28.90283,-1.28923 -54.3143,-0.52435 -18.38301,0.55333 -23.56851,0.45095 -33.70852,-0.66529 -6.59112,-0.72558 -12.52692,-1.60006 -13.19063,-1.94282 -0.66373,-0.34276 -2.85812,-0.86213 -4.87525,-1.1548 -2.01714,-0.29268 -3.87063,-0.86028 -4.11902,-1.26237 -0.24839,-0.40212 -1.30909,-0.73198 -2.35656,-0.73198 -1.04749,0 -2.50963,-0.30701 -3.25067,-0.68195 -0.74104,-0.37493 -3.61834,-1.66715 -6.39223,-2.87334 -13.46782,-5.85615 -23.94236,-15.34764 -29.04545,-26.31759 -0.79409,-1.70701 -1.69666,-3.63901 -2.00646,-4.2933 -1.37026,-2.89396 -2.4699,-13.01189 -1.98983,-18.30988 0.56388,-6.22269 2.82724,-13.94785 5.31171,-18.13253 7.47492,-12.59027 21.42208,-23.79605 39.00962,-31.3444 9.26185,-3.97503 9.57563,-4.09982 13.16183,-5.17987 1.70704,-0.51408 3.80201,-1.22143 4.65551,-1.57155 2.4321,-0.99767 15.65596,-4.61877 22.50166,-6.16188 3.41405,-0.76957 9.17524,-2.09083 12.80264,-2.93545 3.62743,-0.84462 8.16658,-1.88197 10.08696,-2.30655 44.47351,-9.83303 72.26288,-28.55924 67.52007,-45.49883 -1.5664,-5.59465 -7.9313,-11.89483 -14.36966,-14.22569 -1.28028,-0.46347 -4.24204,-1.56757 -6.58317,-2.45201 -2.34113,-0.88447 -4.85229,-1.60792 -5.57996,-1.60792 -0.72767,0 -1.4797,-0.26188 -1.67003,-0.58195 -0.19033,-0.32006 -0.59945,-5.90665 -0.90928,-12.41469 z m 3.13096,32.58859 c 0.88445,0 1.82315,0.34918 2.08679,0.77594 0.26364,0.42675 1.07116,0.78054 1.79279,0.78347 1.97499,0.0117 8.73823,3.41376 11.57514,5.82243 2.96601,2.51829 3.9016,6.22598 2.63539,10.45219 -0.97304,3.24768 -5.70193,7.93 -12.27982,12.16008 -2.21995,1.42759 -4.22058,2.59448 -4.44639,2.59448 -0.71207,0 -1.12712,-3.22801 -1.54578,-12.02674 -0.22346,-4.69431 -0.6362,-11.24115 -0.91685,-14.54848 -0.48608,-5.73037 -0.43367,-6.01337 1.09873,-6.01337 z m -1.79282,79.53167 0.48195,11.37813 c 0.26452,6.25786 0.69778,12.24023 0.9623,13.29368 0.40371,1.60853 2.105,38.67949 2.35808,51.36823 0.0909,4.56619 1.28528,4.26087 -13.5013,3.46435 -5.76123,-0.31033 -13.15532,-0.60573 -16.43219,-0.65617 -3.94218,-0.0607 -6.32217,-0.45585 -7.03479,-1.16844 -0.88357,-0.8836 -1.08929,-7.13263 -1.14266,-34.80118 -0.0358,-18.54838 0.16188,-34.06973 0.43948,-34.4905 0.27771,-0.4208 1.37756,-1.00398 2.44444,-1.29724 1.06688,-0.29326 3.86019,-1.06811 6.20736,-1.72156 2.34714,-0.65344 5.83879,-1.50565 7.75918,-1.89282 1.92041,-0.38716 5.76119,-1.27325 8.53511,-1.97009 2.7739,-0.69685 5.91639,-1.32097 6.98327,-1.38666 z m -66.95025,19.78594 c 1.43129,0 1.49527,0.39141 1.04113,6.40132 -0.38047,5.03523 -1.95869,40.54014 -1.97921,44.5335 -0.009,1.4632 -2.3443,1.92262 -2.86575,0.56374 -0.26129,-0.68063 -0.0704,-8.09391 0.42435,-16.47462 0.49464,-8.38075 0.89553,-18.59871 0.8926,-22.70623 -0.009,-9.71585 0.51573,-12.31771 2.48688,-12.31771 z m -8.19716,5.43142 c 0.78511,0 1.04538,1.41243 1.03658,5.62541 -0.0117,5.83196 -1.14835,25.283 -1.97009,33.75248 -0.25866,2.66721 -0.70339,4.84464 -0.98961,4.83584 -0.28622,-0.009 -2.44172,-1.0726 -4.78889,-2.36565 -8.44233,-4.65087 -12.41469,-10.38368 -12.41469,-17.91734 0,-4.61463 1.56129,-8.23552 5.81938,-13.49676 2.68814,-3.32144 11.75949,-10.43398 13.30732,-10.43398 z m 45.2397,83.83409 c 2.54166,-0.13021 7.0882,-0.039 15.6002,0.17273 16.11491,0.40098 18.2336,0.60224 19.1252,1.82159 1.23876,1.69411 1.30439,4.67651 0.11965,5.40869 -0.81418,0.50318 -6.67963,1.80828 -20.45575,4.55399 -2.98727,0.59541 -6.65353,1.42448 -8.14716,1.84129 -1.49367,0.41685 -4.33213,0.95401 -6.30889,1.19419 -3.52103,0.42784 -3.60385,0.38757 -4.07356,-1.96103 -0.82483,-4.12404 -0.52588,-10.37876 0.56831,-11.87518 0.49256,-0.67365 1.03028,-1.02594 3.57194,-1.1563 z m -41.47679,1.12902 c 1.16647,0 1.56029,0.52996 1.58669,2.13075 0.0551,3.38241 -0.44259,3.17686 14.58637,6.01337 2.06658,0.39003 4.25075,1.11782 4.85402,1.6185 0.60327,0.50066 2.2301,1.17926 3.61441,1.50789 l 2.51565,0.59711 -3.10367,0.002 c -1.70701,1.2e-4 -4.15116,-0.29033 -5.43142,-0.64409 -1.28026,-0.3539 -5.81943,-1.22565 -10.08696,-1.93675 -11.33526,-1.88874 -10.5907,-1.4802 -10.32031,-5.66785 0.19531,-3.02545 0.48851,-3.62045 1.78522,-3.62045 z m 83.71283,1.21692 c 0.35323,0.003 0.82125,0.0754 1.44425,0.17273 9.68605,1.51627 20.78537,6.09718 25.66291,10.5931 6.01496,5.54442 5.52427,10.79965 -1.60035,17.13689 -2.14552,1.90839 -6.04369,4.60762 -8.66239,5.99973 l -4.76161,2.53237 -0.76075,-2.00042 c -0.41816,-1.09985 -0.76078,-6.69039 -0.76078,-12.42381 0,-12.11123 -0.13226,-12.38126 -7.21512,-14.60907 -4.41369,-1.3885 -4.42366,-1.39636 -4.42366,-4.50701 0,-2.30966 0.0176,-2.90571 1.0775,-2.89454 z m -89.32461,10.07635 c 1.90458,0.0701 4.26897,0.44951 6.45892,1.11386 2.09491,0.63549 5.22309,1.158 6.95145,1.16386 1.72836,0.006 3.47414,0.32426 3.87958,0.71075 0.4054,0.38646 3.18064,1.11656 6.16794,1.62308 2.98727,0.50649 7.17723,1.24263 9.31103,1.63519 8.6225,1.58639 11.08129,1.6339 16.76409,0.32127 3.15607,-0.72902 8.35629,-1.8042 11.55696,-2.38838 3.20068,-0.58414 8.43811,-1.63088 11.63879,-2.32623 3.20067,-0.69538 7.66427,-1.43958 9.91872,-1.65337 3.97467,-0.3771 7.04617,0.122 6.16642,1.00172 -0.46553,0.46552 -14.93292,3.54353 -25.00821,5.3208 -3.41406,0.60224 -8.65149,1.60223 -11.63879,2.22169 -9.82871,2.03804 -13.52705,2.15458 -17.07023,0.53798 -0.8535,-0.38942 -3.12308,-0.88215 -5.04346,-1.09418 -4.93505,-0.54517 -12.19847,-1.71898 -16.2943,-2.63386 -1.92039,-0.42896 -6.28492,-1.37965 -9.69898,-2.11256 -8.22786,-1.76631 -8.32053,-1.79866 -7.76222,-2.70208 0.35273,-0.57074 1.79771,-0.80966 3.70229,-0.73954 z m 94.5545,5.2147 c 0.85544,0.91562 2.25699,21.27462 2.44292,35.47858 l 0.17273,13.19063 -3.49162,0.46068 c -1.92041,0.25279 -6.28498,1.01809 -9.69901,1.70036 -3.41405,0.68227 -9.34979,1.81991 -13.1906,2.52931 -3.8408,0.7094 -8.88887,1.77731 -11.219,2.37324 -2.32961,0.59576 -5.57008,1.08334 -7.20149,1.08354 h -0.002 c -1.63112,2.9e-4 -4.13917,0.49168 -5.57389,1.09114 -1.9049,0.79596 -2.8414,0.85784 -3.4674,0.23196 -1.30046,-1.30034 -1.19298,-48.35284 0.11232,-49.16628 0.53344,-0.33247 2.71571,-0.84885 4.84948,-1.14721 2.13379,-0.29836 5.4508,-0.89195 7.37122,-1.31844 13.58668,-3.01727 38.29479,-7.15087 38.89598,-6.50742 z m -100.239,1.72613 c 0.45194,0 0.82136,0.34916 0.82136,0.77591 0,0.42675 -0.15279,0.77591 -0.34097,0.77591 -0.18827,0 -0.55925,-0.34916 -0.82289,-0.77591 -0.26364,-0.42675 -0.10939,-0.77591 0.3425,-0.77591 z m 3.51889,1.1851 c 2.42747,-0.076 6.96441,0.53194 7.7395,1.24266 0.40543,0.37174 2.22626,0.67591 4.04629,0.67591 2.51504,0 3.50752,0.37241 4.13873,1.55184 0.39966,0.74682 0.66084,1.33797 0.63802,1.43361 -2.3e-4,7.9e-4 -0.001,0.003 -0.002,0.006 l -10e-4,10e-4 -0.002,0.002 -0.002,0.002 v 10e-4 l -0.001,0.002 c -5.8e-4,2e-4 -0.003,0.001 -0.006,0.002 h -0.002 c -7e-4,-6e-5 -0.003,1.2e-4 -0.006,0 -0.002,-6.4e-4 -0.009,-0.003 -0.0117,-0.006 -0.1217,-0.0601 -1.96708,-0.33449 -4.10084,-0.61075 -2.13377,-0.27625 -4.64173,-0.9255 -5.57389,-1.44272 -0.93213,-0.51725 -2.7365,-0.9411 -4.00993,-0.9411 -2.889,0 -4.88833,-0.7321 -4.35544,-1.59429 0.12287,-0.19912 0.69722,-0.299 1.50636,-0.32428 z m -5.88304,13.01631 c 0.044,-0.003 0.0877,0.046 0.13021,0.15308 0.34077,0.85351 0.64294,7.53319 0.67285,14.84248 0.0396,9.64009 0.32092,13.50509 1.02445,14.07413 0.53344,0.43148 3.23947,1.0251 6.01337,1.31997 2.77392,0.29484 8.53511,1.41662 12.80267,2.49295 4.26756,1.07632 9.50499,2.2372 11.63878,2.57931 2.13377,0.34212 4.86353,1.00501 6.0649,1.47302 1.20134,0.46802 2.33608,0.8502 2.52172,0.8502 0.18563,0 0.36109,-4.97558 0.391,-11.05684 0.0601,-12.19551 0.90257,-16.93448 1.75188,-9.85963 0.63893,5.32116 0.53922,18.35991 -0.15924,20.85887 -0.63271,2.26412 -1.41674,2.54981 -3.97506,1.44425 -1.06688,-0.46107 -3.68564,-1.1136 -5.81941,-1.4488 -2.13376,-0.33516 -5.79996,-0.99758 -8.14713,-1.47302 -6.65839,-1.34873 -14.62479,-2.91084 -20.56185,-4.03265 l -5.43145,-1.0275 -0.25162,-6.59531 c -0.3315,-8.66703 0.57289,-24.53955 1.33361,-24.59451 z m 116.46057,36.08933 c 2.55755,0.0868 4.6646,0.37807 4.6646,0.81684 0,0.71316 -9.12325,2.85889 -16.68225,3.92354 -2.9873,0.42074 -9.27222,1.49011 -13.96653,2.37626 -4.69432,0.88612 -11.50304,2.11764 -15.13043,2.73691 -3.62743,0.61925 -9.21402,1.6766 -12.41469,2.34899 -11.87894,2.4955 -13.02913,2.39515 -39.18391,-3.4386 -10.14588,-2.26303 -14.89462,-3.18941 -20.4588,-3.99022 -2.71758,-0.39112 -5.33628,-1.0245 -5.81937,-1.40788 -0.48309,-0.38338 -2.53753,-0.93718 -4.5646,-1.23055 -2.02711,-0.29335 -3.68561,-0.8904 -3.68561,-1.32604 0,-1.20354 9.39387,-0.36883 17.84614,1.58519 4.05418,0.93726 9.11706,2.01743 11.25082,2.40049 10.21536,1.83378 23.45071,4.61976 28.07249,5.91031 3.54071,0.98864 4.69197,0.97978 9.69898,-0.0757 3.12475,-0.65878 8.29872,-1.70857 11.49937,-2.3338 3.20067,-0.62526 10.5331,-2.06024 16.29429,-3.18853 5.76119,-1.12829 13.09365,-2.50096 16.29429,-3.04912 3.20068,-0.54816 7.21606,-1.28982 8.92307,-1.64883 1.79655,-0.37784 4.80458,-0.49596 7.36214,-0.40919 z m -146.51377,3.42343 c 2.52702,-0.009 11.48696,1.3602 14.56364,2.30958 1.46452,0.45188 4.60698,1.09439 6.98327,1.42756 4.55973,0.63934 10.55911,1.76857 26.43428,4.97831 5.33444,1.07855 13.3652,2.69773 17.84611,3.59772 4.48096,0.89998 9.16035,1.94901 10.39761,2.3323 3.45807,1.07125 7.89103,0.82969 16.3716,-0.89412 4.26756,-0.86747 12.64748,-2.44251 18.62205,-3.49922 25.58239,-4.52469 33.74066,-5.94172 39.95981,-6.94236 3.62743,-0.58362 8.6289,-1.45475 11.11291,-1.93522 5.47819,-1.05961 6.73323,-0.33547 6.73323,3.88109 0,3.26379 -0.87374,4.27246 -4.26756,4.92376 -1.28026,0.24575 -8.9619,1.69373 -17.07023,3.21883 -14.99987,2.82131 -21.044,4.00673 -31.42469,6.15886 -3.20065,0.66359 -8.26353,1.57085 -11.25083,2.0171 -2.98727,0.44626 -8.05018,1.3336 -11.25083,1.97162 -3.20067,0.63802 -7.47791,1.36818 -9.50498,1.62156 l -3.68561,0.46068 v -3.57649 c 0,-3.27918 -0.17684,-3.61136 -2.1338,-4.00538 -1.1736,-0.23637 -3.18126,-0.73893 -4.46152,-1.11692 -1.28026,-0.37798 -4.24814,-0.91875 -6.59531,-1.20175 -2.34714,-0.28299 -5.98803,-1.00791 -8.09259,-1.61246 -2.10455,-0.60453 -5.0905,-1.10023 -6.63473,-1.10023 -1.54419,0 -3.13923,-0.31018 -3.54467,-0.68954 -0.71555,-0.6696 -3.75675,-1.35733 -15.86845,-3.5886 -5.63673,-1.03844 -8.40206,-1.62754 -18.23409,-3.89022 -2.56055,-0.58925 -6.22672,-1.3034 -8.14713,-1.58669 -3.60031,-0.53083 -8.20488,-2.47157 -7.51064,-3.16581 0.0625,-0.0625 0.29208,-0.0927 0.65315,-0.0938 z" /><g
       id="g294"
       inkscape:label="Antiquities"
       transform="matrix(2.9326062,0,0,2.9326062,-707.6881,-792.05825)"><path
         style="fill:#000000"
         d="m 475.58862,444.68011 c -0.68964,-0.54247 -0.70358,-0.59416 -0.2497,-0.92604 0.26439,-0.19333 0.69269,-0.35151 0.95177,-0.35151 0.86561,0 3.2956,-1.2434 3.87871,-1.98471 0.78929,-1.00342 0.75822,-2.35522 -0.0733,-3.18669 -1.21298,-1.21297 -2.67927,-0.69045 -5.68295,2.02515 -1.91989,1.73576 -3.1572,2.22982 -4.86272,1.94167 -2.27132,-0.38374 -3.76768,-2.08248 -4.068,-4.61821 -0.21303,-1.79876 0.61806,-3.70539 2.04626,-4.6944 1.02689,-0.7111 2.13998,-0.76047 3.18799,-0.14139 1.33549,0.78889 0.96517,1.61802 -0.98057,2.1954 -1.33934,0.39745 -2.74892,1.66776 -2.74892,2.47735 0,0.88803 1.05611,1.7525 2.141,1.7525 1.05784,0 1.64064,-0.35629 3.76664,-2.30272 2.097,-1.91989 3.23265,-2.45978 5.17402,-2.45978 1.30467,0 1.71636,0.11663 2.37862,0.67389 1.27912,1.07631 1.67148,2.11352 1.65264,4.36879 -0.0188,2.24495 -0.67975,4.12738 -1.82055,5.18463 -0.93831,0.86961 -3.61067,0.89585 -4.69099,0.0461 z"
         id="path279" /><path
         id="path277"
         style="fill:#000000"
         d="m 250.15476,434.40657 c -0.91326,0 -1.60031,1.84033 -0.94361,2.52697 0.31996,0.33455 1.43304,3.67679 2.15439,6.46886 0.60955,2.35928 1.12499,3.12809 1.75028,2.60914 0.23369,-0.19395 0.35244,-0.93337 0.35244,-2.19418 0,-2.80555 0.13296,-2.91648 3.5605,-2.98328 1.54534,-0.0301 3.59869,0.0404 4.56355,0.15658 1.4866,0.17896 1.84774,0.32797 2.36419,0.97565 0.33519,0.42037 0.68634,1.12376 0.78084,1.56321 0.0945,0.43944 0.31967,1.09658 0.50022,1.46038 0.18054,0.3638 0.4052,1.34416 0.4992,2.17868 0.16464,1.46202 0.13941,1.54779 -0.69092,2.34766 -0.47395,0.45657 -1.15962,1.01983 -1.52342,1.2516 -1.52486,0.97145 -4.64576,3.3289 -4.84156,3.65714 -0.37286,0.62504 -1.43474,0.40732 -2.01952,-0.41393 -0.30095,-0.42265 -0.54725,-0.94862 -0.54725,-1.16892 0,-0.81442 -0.33885,-1.23765 -0.99115,-1.23765 -0.64391,0 -0.66416,0.0489 -0.52039,1.25677 0.0823,0.69123 0.33617,1.61395 0.56431,2.05052 0.22814,0.43656 0.41561,0.94423 0.41651,1.1281 9e-4,0.18388 0.10673,0.54107 0.23513,0.79375 0.27502,0.5412 0.74956,2.30878 1.11776,4.16357 0.15176,0.76445 0.4965,1.52166 0.81649,1.79317 0.50003,0.42427 0.59762,0.42985 1.00407,0.062 0.24756,-0.22404 0.59437,-1.05293 0.77101,-1.84226 0.17664,-0.78932 0.58485,-1.82632 0.90693,-2.30425 0.32207,-0.47792 2.11243,-1.9037 3.97856,-3.1688 1.86612,-1.2651 4.12569,-3.00518 5.0214,-3.86695 0.8957,-0.86176 2.40223,-2.08983 3.34812,-2.72903 0.94588,-0.63921 1.83885,-1.25662 1.98437,-1.37201 0.76929,-0.61001 4.71745,-3.30282 5.41208,-3.69125 0.47271,-0.26433 0.80563,-0.66605 0.80563,-0.97151 0,-0.59151 -1.95889,-2.38233 -2.77089,-2.53318 -1.58391,-0.29425 -7.02631,-0.97019 -9.79682,-1.21647 -16.40953,-1.45868 -14.72057,-1.13881 -16.46876,-3.11867 -0.79226,-0.89724 -1.59964,-1.63142 -1.79369,-1.63142 z m 19.44068,6.91999 c 2.84609,0.0974 3.71657,0.3717 3.71657,1.17047 0,0.47424 -2.07285,2.48204 -3.87729,3.75584 -1.30685,0.92253 -1.85905,0.68275 -2.40864,-1.04541 -1.24357,-3.91038 -1.17813,-4.00917 2.56936,-3.8809 z" /><path
         id="path275"
         style="fill:#000000"
         d="m 459.41227,453.20542 c -0.58197,0.0119 -1.13029,0.12394 -1.72082,0.32969 -1.22334,0.42623 -1.72367,0.84791 -2.57142,2.1668 -0.57725,0.89806 -0.6833,1.36861 -0.6873,3.04632 -0.005,2.12546 0.30229,3.13002 1.51671,4.96197 0.74742,1.12749 3.78065,3.36653 5.34902,3.94808 0.43657,0.16187 1.75291,0.30696 2.92489,0.32246 1.78872,0.0236 2.348,-0.0804 3.48403,-0.64647 2.17352,-1.08311 3.63688,-3.45738 3.94446,-6.40012 0.18403,-1.76072 -0.15365,-2.71508 -0.96067,-2.71508 -0.57221,0 -0.90646,0.51956 -1.14463,1.77715 -0.52024,2.74709 -4.10512,5.05019 -7.27708,4.67568 -1.7512,-0.20676 -3.4845,-1.10127 -3.4835,-1.79782 4.3e-4,-0.30454 1.06999,-2.16132 2.3766,-4.12585 1.30661,-1.96453 2.37721,-3.7828 2.38021,-4.04058 0.003,-0.25779 -0.26324,-0.56971 -0.59066,-0.6935 -1.50687,-0.56971 -2.56988,-0.82856 -3.53984,-0.80873 z m -1.39888,2.93987 c 0.17198,-0.0122 0.36464,-0.007 0.59325,0.009 0.88937,0.0647 1.11991,0.18846 1.18391,0.63666 0.0746,0.5227 -1.79999,3.70127 -2.43913,4.13566 -0.43023,0.29242 -0.55594,0.25254 -1.10484,-0.35398 -0.33766,-0.37311 -0.50437,-0.94794 -0.50437,-1.7415 0,-1.00797 0.13123,-1.30187 0.88005,-1.97094 0.54649,-0.48825 0.87521,-0.67861 1.39113,-0.7152 z" /><path
         style="fill:#000000"
         d="m 435.54795,468.45478 c -0.69977,-0.74487 -0.7224,-1.42995 -0.0751,-2.27194 0.40477,-0.52648 0.63691,-0.60566 1.35468,-0.46211 1.53186,0.30637 2.05284,1.68577 1.04519,2.76736 -0.69812,0.74935 -1.60171,0.7364 -2.32482,-0.0333 z"
         id="path274" /><path
         style="fill:#000000"
         d="m 275.72491,484.00369 c -1.03592,-1.40527 -1.88349,-2.64739 -1.88349,-2.76027 0,-0.11288 0.18357,-0.35759 0.40794,-0.54379 0.33831,-0.28077 0.5397,-0.24114 1.17991,0.23218 0.42458,0.31391 0.96677,0.57075 1.20486,0.57075 0.38908,0 1.41134,-0.61702 2.49896,-1.50833 0.21828,-0.17888 1.4089,-1.07149 2.64583,-1.98358 2.99657,-2.20961 3.15556,-2.42028 3.1662,-4.19525 0.008,-1.31951 -0.0789,-1.55272 -0.8511,-2.28548 -0.94568,-0.89744 -2.31996,-1.66903 -2.97273,-1.66903 -0.66467,0 -4.39962,2.55287 -7.08143,4.8402 -1.50853,1.28664 -1.81463,1.95978 -1.2772,2.80873 0.32245,0.50936 0.0618,1.08232 -0.49233,1.08232 -0.25088,0 -1.31847,-0.88931 -2.37241,-1.97625 -2.38161,-2.45616 -2.465,-3.11113 -0.42213,-3.31541 0.87389,-0.0874 1.71908,-0.40171 2.49007,-0.92605 0.64193,-0.43656 1.51961,-1.00777 1.95039,-1.26936 0.43078,-0.26159 1.71615,-1.18577 2.85636,-2.05374 1.78319,-1.35743 2.0961,-1.71645 2.23741,-2.5671 0.35486,-2.13607 0.6109,-2.23274 2.68855,-1.01507 2.03432,1.19228 2.32701,1.5378 1.93042,2.27883 -0.44594,0.83323 -0.21064,1.15301 1.44407,1.96259 2.21197,1.08222 3.22452,2.24293 3.42937,3.93118 0.37357,3.07891 -0.50469,4.30951 -5.355,7.50323 -2.13513,1.40589 -3.94158,2.6076 -4.01434,2.67048 -0.0728,0.0629 -0.1323,0.66952 -0.1323,1.3481 0,1.13562 -0.0554,1.2402 -0.69619,1.31447 -0.60682,0.0703 -0.93801,-0.24733 -2.57969,-2.47435 z"
         id="path271" /><path
         style="fill:#000000"
         d="m 450.51319,487.27211 c -0.0681,-0.19008 -0.0675,-0.71569 0.002,-1.16803 0.17279,-1.13295 -0.71496,-2.3972 -3.66427,-5.21829 -2.49401,-2.3856 -3.29228,-2.81787 -4.33031,-2.34492 -0.45948,0.20936 -0.73701,0.19168 -1.0945,-0.0697 -0.41047,-0.30014 -0.43315,-0.45066 -0.15866,-1.05309 0.17614,-0.38659 0.32026,-0.93703 0.32026,-1.2232 0,-0.28617 0.10104,-0.72705 0.22455,-0.97973 0.69246,-1.41676 1.08744,-2.04329 1.34153,-2.12799 0.15673,-0.0522 1.86278,1.46034 3.79121,3.36131 3.26749,3.22094 6.04237,5.58329 6.5583,5.58329 0.12143,0 0.52516,-0.11573 0.89717,-0.25717 0.71956,-0.27357 1.47473,-0.11797 1.47473,0.30386 0,0.14007 -0.6518,0.99054 -1.44844,1.88993 -0.79665,0.89939 -1.72348,2.05197 -2.05962,2.56129 -0.62851,0.95233 -1.63388,1.35506 -1.85349,0.74247 z"
         id="path270" /><path
         style="fill:#000000"
         d="m 401.80846,493.18954 c -0.66002,-0.72932 -0.54766,-1.77264 0.25926,-2.40736 0.38343,-0.3016 0.84362,-0.54837 1.02265,-0.54837 0.17903,0 0.63923,0.24677 1.02265,0.54837 0.77068,0.60622 0.91317,1.65842 0.32883,2.42819 -0.47388,0.62426 -2.06095,0.6117 -2.63339,-0.0208 z"
         id="path228" /><path
         style="fill:#000000"
         d="m 330.61171,494.5788 c -1.09773,-1.09772 -1.07369,-1.81392 0.0964,-2.87284 0.53134,-0.48086 0.60571,-0.48425 1.47971,-0.0675 0.88524,0.42214 1.07641,0.83749 0.93662,2.0349 -0.0627,0.53694 -1.02177,1.32292 -1.61428,1.32292 -0.26452,0 -0.66883,-0.18788 -0.89846,-0.41751 z"
         id="path227" /><path
         style="fill:#000000"
         d="m 430.42617,503.26314 c -0.39051,-0.25389 -1.69472,-1.65225 -2.89823,-3.10746 -1.20351,-1.45521 -2.26154,-2.70536 -2.35117,-2.77812 -0.0896,-0.0728 -0.67504,-0.83128 -1.3009,-1.68559 -1.78478,-2.43626 -1.97596,-2.57901 -3.1934,-2.38433 -1.23281,0.19713 -1.25688,0.10949 -0.75755,-2.75789 0.232,-1.33221 0.22217,-2.02828 -0.0443,-3.13913 -0.2749,-1.14591 -0.27684,-1.49085 -0.01,-1.74947 0.26359,-0.25533 0.5638,-0.0615 1.4477,0.93464 0.61333,0.69122 1.29582,1.25677 1.51664,1.25677 0.22083,0 1.22288,-0.65454 2.2268,-1.45454 1.35219,-1.07753 1.96448,-1.41117 2.36231,-1.28725 0.68444,0.2132 0.92476,0.5851 0.92984,1.43893 0.003,0.53215 -0.40048,0.99603 -1.8418,2.11666 -1.12664,0.87597 -1.84828,1.63241 -1.85209,1.94141 -0.006,0.49679 4.41199,6.5952 6.25964,8.64034 0.7801,0.86348 1.11031,1.03986 1.9467,1.03986 1.2955,0 2.42023,-0.92396 3.07309,-2.52454 0.41485,-1.01706 0.5878,-1.18586 1.14976,-1.12223 0.96059,0.10877 1.03815,1.59741 0.17172,3.29571 -1.5558,3.04954 -4.81835,4.63728 -6.83488,3.32623 z"
         id="path226" /><path
         style="fill:#000000"
         d="m 295.90709,504.15214 c -3.2822,-1.5283 -4.43142,-4.25147 -2.8161,-6.67303 0.74414,-1.11556 2.35338,-3.06455 4.78138,-5.79087 1.00654,-1.1302 2.83167,-3.37883 3.05917,-3.76899 0.10588,-0.1816 -0.0108,-0.67435 -0.25926,-1.09499 -0.76624,-1.29714 -0.40193,-1.61753 1.83923,-1.61753 1.3914,0 2.29996,-0.15255 3.11716,-0.52336 0.63435,-0.28785 1.36173,-0.52597 1.61639,-0.52917 0.75845,-0.01 0.53584,0.87815 -0.46302,1.84628 -0.50932,0.49365 -0.92604,1.1056 -0.92604,1.35988 0,0.25427 0.48319,0.856 1.07376,1.33716 2.75572,2.24518 2.96719,2.47948 2.77749,3.07718 -0.23014,0.72512 -1.08046,1.19367 -1.82648,1.00643 -0.31447,-0.0789 -1.05385,-0.60673 -1.64305,-1.17289 -0.58921,-0.56616 -1.38749,-1.23657 -1.77396,-1.48979 -0.69451,-0.45507 -0.71294,-0.45016 -1.58759,0.42279 -0.48671,0.48575 -1.11668,1.18881 -1.39994,1.56234 -0.485,0.63956 -3.09283,3.67685 -3.7076,4.31817 -0.9974,1.04049 -1.9668,2.72501 -1.9668,3.41772 0,1.12545 1.68494,2.69309 3.14567,2.92667 1.35208,0.2162 1.50077,0.99879 0.30706,1.61608 -1.06935,0.55298 -1.76904,0.50489 -3.34747,-0.23008 z"
         id="path225" /><path
         style="fill:#000000"
         d="m 407.02036,516.28965 c -0.0906,-0.23601 0.13174,-0.68869 0.53747,-1.09441 0.38055,-0.38056 0.69192,-0.99027 0.69192,-1.35492 0,-0.70898 -0.92544,-4.15569 -1.2968,-4.82978 -0.12288,-0.22306 -0.30725,-0.78724 -0.40971,-1.25374 -0.10246,-0.46649 -0.29619,-0.9161 -0.43052,-0.99911 -0.13432,-0.083 -0.24422,-0.36129 -0.24422,-0.61838 0,-0.72595 -1.12431,-1.618 -2.03927,-1.618 -1.40137,0 -1.21943,-0.62994 0.79867,-2.76535 1.84862,-1.95608 1.91878,-2.00083 2.49737,-1.59301 0.32742,0.23079 0.59531,0.5873 0.59531,0.79224 0,0.37389 0.62775,2.44358 1.0415,3.43383 0.12161,0.29104 0.37518,1.06494 0.5635,1.71979 0.18832,0.65484 0.4236,1.30969 0.52284,1.45521 0.0993,0.14552 0.26505,0.61745 0.36845,1.04874 0.10341,0.43128 0.54946,1.53358 0.99122,2.44955 0.78893,1.6358 0.93518,1.75356 2.46562,1.98513 0.32368,0.049 0.52916,0.28315 0.52916,0.60305 0,0.41325 -0.41633,0.66735 -1.98437,1.21114 -1.09141,0.3785 -2.48565,0.9452 -3.09832,1.25934 -1.31407,0.67379 -1.88829,0.71992 -2.09982,0.16868 z"
         id="path224" /><path
         style="fill:#000000"
         d="m 323.05392,516.45516 c -1.33014,-0.70298 -3.05008,-1.41914 -4.34673,-1.80994 -1.70563,-0.51406 -1.49464,-1.64467 0.30851,-1.65319 0.70892,-0.003 0.97118,-0.18559 1.52136,-1.05713 0.36562,-0.57919 0.66477,-1.12048 0.66477,-1.20286 0,-0.0824 0.39767,-1.00748 0.8837,-2.05578 0.48604,-1.0483 1.10636,-2.53522 1.3785,-3.30428 l 0.4948,-1.39828 -0.63953,-1.17072 c -0.35174,-0.64389 -0.55541,-1.25484 -0.4526,-1.35765 0.29476,-0.29476 5.04046,-0.41244 5.45284,-0.13522 0.36777,0.24723 0.092,1.00641 -2.37534,6.53981 -1.53994,3.45352 -2.38852,6.06626 -2.17124,6.6851 0.0845,0.24053 0.389,0.69916 0.67677,1.01918 0.54092,0.60154 0.46549,1.40713 -0.13074,1.39645 -0.18647,-0.003 -0.75575,-0.22632 -1.26507,-0.49549 z"
         id="path223" /><path
         style="fill:#000000"
         d="m 377.42638,522.8899 c -1.70528,-0.88916 -2.37621,-2.00493 -2.66214,-4.42721 -0.0892,-0.75552 -0.33049,-2.30956 -0.53624,-3.45342 -0.20575,-1.14386 -0.37408,-2.61378 -0.37408,-3.26647 0,-1.44815 -0.64845,-2.62116 -1.64009,-2.96684 -0.91904,-0.32038 -1.01047,-1.21988 -0.14585,-1.43496 1.27377,-0.31686 4.05332,-0.45215 4.40315,-0.21431 0.24925,0.16945 0.44283,1.17842 0.599,3.12197 0.40949,5.09629 0.98033,8.64264 1.50564,9.3539 0.6888,0.93261 1.62085,1.35784 2.60246,1.18732 1.06888,-0.18567 3.19537,-1.3652 3.49709,-1.93978 0.25365,-0.48306 -0.0396,-5.45678 -0.49299,-8.36183 -0.32538,-2.08474 -0.72427,-2.66859 -1.98475,-2.90505 -0.48519,-0.091 -1.03272,-0.34692 -1.21675,-0.56865 -0.62043,-0.74758 0.22095,-1.12245 2.96168,-1.31954 l 2.54798,-0.18323 0.28746,0.89381 c 0.1581,0.4916 0.41077,2.20351 0.56149,3.80424 0.42711,4.53633 0.94425,8.45158 1.16305,8.80561 0.10963,0.17738 0.3577,0.32251 0.55127,0.32251 0.19357,0 0.63303,0.23813 0.97657,0.52917 l 0.62463,0.52917 -0.60672,0.51466 c -0.33369,0.28307 -1.13883,0.59446 -1.78919,0.69199 -0.65036,0.0975 -1.24757,0.28265 -1.32713,0.41138 -0.29512,0.47752 -1.30237,0.21135 -1.86772,-0.49355 l -0.58356,-0.72761 -0.7493,0.70051 c -1.84689,1.72664 -4.5312,2.32107 -6.30496,1.39621 z"
         id="path222" /><path
         id="path220"
         style="fill:#000000"
         d="m 349.4009,504.52787 c -1.5,-0.005 -2.12207,0.13553 -3.43958,0.77824 -3.34528,1.63189 -4.90753,3.99275 -5.12114,7.73907 -0.0833,1.46045 -0.008,2.75176 0.20413,3.51038 0.40563,1.44879 1.89482,3.2075 3.47214,4.1 1.02881,0.58214 1.48637,0.6588 4.06951,0.6811 l 2.91042,0.0248 -0.0553,0.64183 c -0.0305,0.35303 -0.24044,1.77291 -0.46664,3.15536 -0.22619,1.38244 -0.51678,3.38617 -0.64544,4.45244 -0.25703,2.13008 -0.94612,3.22048 -2.03553,3.22048 -0.61183,0 -1.08231,0.81048 -0.76688,1.32085 0.0907,0.14683 1.08631,0.26665 2.21278,0.26665 1.12647,0 2.16135,0.11171 2.2996,0.24804 0.13824,0.13634 0.78693,0.29602 1.44178,0.35502 1.8288,0.16467 2.23677,0.0963 2.32957,-0.39067 0.055,-0.28876 -0.29842,-0.69126 -0.9896,-1.12758 -1.03656,-0.65437 -1.07539,-0.72897 -1.07539,-2.08205 0,-0.77181 0.11434,-2.05046 0.25373,-2.84117 0.1394,-0.79071 0.32239,-2.39014 0.40669,-3.5543 0.0843,-1.16417 0.26451,-2.77152 0.4005,-3.57188 0.32547,-1.91549 0.98366,-6.6024 1.20767,-8.59896 0.098,-0.87312 0.26752,-1.70656 0.37673,-1.85208 0.10921,-0.14552 0.28209,-0.84294 0.38447,-1.54978 0.10237,-0.70685 0.41527,-1.69243 0.69505,-2.19056 0.83336,-1.48372 0.74056,-1.58003 -1.80661,-1.88257 -1.2733,-0.15124 -2.79136,-0.40358 -3.37344,-0.56069 -0.58209,-0.15711 -1.88208,-0.28897 -2.88923,-0.29197 z m 0.58601,1.7942 c 2.63715,0.0661 3.78782,1.36277 3.26595,3.6804 -0.15672,0.69603 -0.3536,1.86087 -0.4377,2.58847 -0.0841,0.7276 -0.26465,2.03729 -0.40152,2.91042 -0.13686,0.87312 -0.31526,2.03383 -0.39636,2.57917 -0.11141,0.74903 -0.33549,1.08875 -0.91622,1.38906 -0.42706,0.22084 -1.4572,0.39739 -2.31769,0.39739 -1.37858,0 -1.65225,-0.0946 -2.4877,-0.85989 -1.56565,-1.43423 -2.07533,-2.74526 -2.07533,-5.33973 0,-1.79561 0.12756,-2.54007 0.6289,-3.67368 1.08948,-2.46351 2.86017,-3.72861 5.13767,-3.67161 z" /></g><g
       id="g291"
       inkscape:label="Smoke trails"
       transform="matrix(2.9326062,0,0,2.9326062,-707.6881,-792.05825)"><path
         style="fill:#000000"
         d="m 378.76941,345.27564 c -0.0707,-0.11439 0.46162,-0.65805 1.18292,-1.20812 4.10573,-3.13107 5.49785,-7.91297 3.50937,-12.05454 -0.94458,-1.96737 -3.97379,-4.90734 -6.18523,-6.00302 -3.85014,-1.90759 -6.08731,-2.62529 -10.30172,-3.30485 -2.68322,-0.43265 -2.60879,-0.80156 0.13229,-0.65573 5.46496,0.29074 9.00835,1.34042 13.36146,3.95815 2.95353,1.7761 5.02144,4.84283 5.60453,8.31159 0.51139,3.04224 -0.39703,5.63859 -2.8398,8.11641 -1.79685,1.82264 -4.16245,3.32775 -4.46382,2.84011 z"
         id="path262" /><path
         style="fill:#000000"
         d="m 377.82267,345.9036 c 0,-0.0728 0.0595,-0.13229 0.13229,-0.13229 0.0728,0 0.13229,0.0595 0.13229,0.13229 0,0.0728 -0.0595,0.1323 -0.13229,0.1323 -0.0728,0 -0.13229,-0.0595 -0.13229,-0.1323 z"
         id="path261" /><path
         style="fill:#000000"
         d="m 349.24766,378.57965 c -0.21828,-0.14107 -0.71075,-0.25831 -1.09437,-0.26053 -0.94306,-0.005 -4.53324,-1.23105 -6.02771,-2.05766 -3.78734,-2.09482 -5.87061,-5.72952 -5.04756,-8.80655 0.55145,-2.06165 1.25162,-3.28936 2.58985,-4.54111 1.21192,-1.13361 3.49438,-2.54979 3.49438,-2.16812 0,0.0926 -0.62508,0.84482 -1.38906,1.6715 -2.02256,2.18852 -2.65751,3.57526 -2.65751,5.80403 0,1.69775 0.0766,1.93935 1.11632,3.52077 0.66444,1.0106 1.69721,2.12237 2.55128,2.74644 1.54281,1.12733 5.03363,3.03289 5.55598,3.03289 0.17531,0 0.65978,0.17786 1.0766,0.39525 0.41681,0.21738 0.99597,0.3978 1.28701,0.40093 0.43871,0.005 0.46133,0.0495 0.13229,0.26216 -0.21828,0.14106 -0.57546,0.25648 -0.79375,0.25648 -0.21828,0 -0.57546,-0.11542 -0.79375,-0.25648 z"
         id="path259" /><path
         style="fill:#000000"
         d="m 390.08169,383.95951 c 0.097,-0.097 0.25577,-0.097 0.35278,0 0.097,0.097 0.0176,0.17639 -0.17639,0.17639 -0.19403,0 -0.2734,-0.0794 -0.17639,-0.17639 z"
         id="path246" /><path
         style="fill:#000000"
         d="m 386.55392,403.48091 c 0,-0.12878 0.31839,-0.44278 0.70755,-0.69776 1.2333,-0.80809 3.10818,-2.88644 3.70519,-4.10731 1.34793,-2.75643 1.42685,-4.72816 0.2759,-6.8926 -0.61557,-1.15762 -2.86786,-3.33537 -4.09997,-3.96429 -0.39653,-0.2024 -1.26992,-0.69717 -1.94085,-1.09949 -0.67094,-0.40231 -1.41508,-0.73148 -1.65365,-0.73148 -0.23857,0 -0.43376,-0.11906 -0.43376,-0.26458 0,-0.44772 0.9731,-0.29561 2.53892,0.39687 0.82262,0.3638 1.59139,0.66146 1.70837,0.66146 0.60046,0 3.58585,2.08483 4.59898,3.21167 2.43346,2.70659 2.62174,5.93626 0.53847,9.23638 -0.69108,1.09474 -3.03753,3.06973 -4.71573,3.96919 -1.08423,0.58111 -1.22942,0.61441 -1.22942,0.28194 z"
         id="path245" /><path
         style="fill:#000000"
         d="m 371.60496,412.40171 c 0.43656,-0.14708 1.16893,-0.43533 1.62748,-0.64057 0.45856,-0.20524 1.14317,-0.37316 1.52136,-0.37316 0.37819,0 0.68762,-0.10581 0.68762,-0.23514 0,-0.12932 0.4404,-0.31776 0.97867,-0.41874 0.53827,-0.10098 1.21961,-0.35235 1.51408,-0.55861 0.29447,-0.20626 0.75843,-0.37501 1.03102,-0.37501 0.27259,0 0.81165,-0.16844 1.1979,-0.37431 0.38626,-0.20586 1.41666,-0.63431 2.28978,-0.9521 10.35995,-3.77067 16.07124,-8.41304 16.48475,-13.39946 0.30579,-3.68744 -2.27857,-7.38653 -6.83266,-9.77982 -1.23686,-0.65001 -1.35689,-0.77518 -0.81652,-0.85157 1.00642,-0.14227 4.42014,1.77789 6.37943,3.58833 2.46937,2.28175 3.17409,3.81329 3.17191,6.89335 -0.001,1.52979 -0.13488,2.56337 -0.39687,3.06572 -0.21739,0.41682 -0.39856,0.89307 -0.40261,1.05833 -0.0139,0.56775 -2.48434,3.5389 -3.99003,4.79873 -1.69377,1.41721 -5.49802,3.47535 -8.78635,4.75351 -3.27073,1.27132 -10.10748,3.14548 -12.74855,3.49477 -0.58208,0.077 -1.17144,0.24684 -1.30968,0.37745 -0.13825,0.13062 -0.73356,0.22809 -1.32292,0.2166 l -1.07156,-0.0209 z"
         id="path244" /><path
         style="fill:#000000"
         d="m 352.22926,418.87754 c 0.25743,-0.0671 0.61462,-0.0627 0.79375,0.01 0.17913,0.0725 -0.0315,0.12736 -0.46805,0.12197 -0.43657,-0.005 -0.58313,-0.0647 -0.3257,-0.13178 z"
         id="path243" /><path
         style="fill:#000000"
         d="m 339.15285,437.38026 c -1.0177,-2.3008 -1.09464,-2.72271 -0.94303,-5.17064 0.15536,-2.50821 0.44165,-3.36215 1.79146,-5.34352 2.02051,-2.96585 5.97898,-5.82349 9.92053,-7.16169 1.86812,-0.63424 2.28175,-0.35034 0.69159,0.47467 -2.65149,1.37564 -4.42299,2.70003 -6.82752,5.1043 -2.49283,2.49257 -3.10233,3.41034 -4.04384,6.08909 -0.74537,2.12071 -0.7155,3.64046 0.12591,6.4077 0.29533,0.97126 -0.24135,0.67113 -0.7151,-0.39991 z"
         id="path242" /><path
         style="fill:#000000"
         d="m 339.98725,438.77235 c 0,-0.0728 0.0595,-0.13229 0.13229,-0.13229 0.0728,0 0.13229,0.0595 0.13229,0.13229 0,0.0728 -0.0595,0.13229 -0.13229,0.13229 -0.0728,0 -0.13229,-0.0595 -0.13229,-0.13229 z"
         id="path241" /><path
         style="fill:#000000"
         d="m 352.02579,449.83154 c -4.13189,-0.64888 -7.54354,-1.38714 -7.92427,-1.71477 -0.13825,-0.11896 -0.41669,-0.21629 -0.61876,-0.21629 -0.7385,0 -5.27221,-2.36657 -6.53879,-3.41321 -4.56585,-3.773 -6.44087,-9.56084 -4.80981,-14.84699 0.79203,-2.56692 2.16562,-4.69968 4.51352,-7.00812 2.91784,-2.8688 6.94479,-5.28405 11.01248,-6.60497 0.80037,-0.25991 1.72871,-0.57662 2.06297,-0.7038 0.33427,-0.12718 0.92959,-0.21909 1.32292,-0.20423 0.66745,0.0252 0.65339,0.0464 -0.21089,0.31831 -0.50932,0.16022 -1.08337,0.44572 -1.27566,0.63445 -0.1923,0.18873 -0.52368,0.34314 -0.7364,0.34314 -1.02248,0 -5.8604,2.92374 -8.7157,5.26722 -5.06076,4.15362 -7.19383,9.64057 -5.67581,14.60004 1.08584,3.54751 2.8896,5.84861 6.25088,7.97441 3.07899,1.94726 4.51795,2.50846 10.28499,4.01116 1.49907,0.39061 5.19335,0.97481 8.73125,1.38073 1.16264,0.13339 1.44588,0.2375 1.05833,0.38903 -0.83951,0.32822 -6.12294,0.2035 -8.73125,-0.20611 z"
         id="path240" /><path
         style="fill:#000000"
         d="m 393.03621,470.94543 c 2.97482,-1.90751 4.65679,-3.44761 5.54256,-5.07506 0.98395,-1.80784 1.11318,-4.77387 0.28149,-6.46052 -1.07174,-2.17344 -4.91824,-5.24336 -7.94072,-6.33754 -0.7276,-0.2634 -1.43603,-0.58232 -1.57427,-0.70871 -0.13825,-0.12638 -0.56197,-0.22979 -0.94162,-0.22979 -0.37964,0 -0.92138,-0.17481 -1.20385,-0.38846 -0.28248,-0.21365 -0.89352,-0.39225 -1.35787,-0.39687 -0.46436,-0.005 -0.91839,-0.12832 -1.00896,-0.27487 -0.32042,-0.51845 0.72811,-0.59585 2.26889,-0.16747 0.8584,0.23866 1.80805,0.43392 2.11032,0.43392 0.81738,0 3.01081,0.7137 5.53749,1.80178 6.26536,2.69811 8.61132,8.8134 5.26283,13.7188 -1.33792,1.96001 -4.65282,4.28339 -6.95031,4.8714 -0.45085,0.11539 -1.11739,0.29098 -1.48119,0.39021 -0.3638,0.0992 0.29104,-0.43034 1.45521,-1.17682 z"
         id="path239" /><path
         id="path233"
         style="fill:#000000"
         d="m 368.82683,478.52948 c 0,-0.28179 0.40848,-0.45329 1.38907,-0.58318 0.76398,-0.10121 2.2225,-0.29558 3.24114,-0.43194 3.37792,-0.45219 5.59255,-0.56577 5.15938,-0.26459 -0.21829,0.15176 -0.99814,0.27776 -1.73303,0.27999 -0.73488,0.002 -1.45552,0.12343 -1.60142,0.26933 -0.14591,0.14591 -1.09245,0.37568 -2.10344,0.5106 -1.01099,0.13493 -2.4037,0.32939 -3.09493,0.43214 -1.02651,0.15259 -1.25677,0.11369 -1.25677,-0.21235 z m 0.15288,-5.09671 c -0.13419,-0.72761 -0.25325,-3.04869 -0.26458,-5.15797 l -0.0206,-3.83506 1.05833,-0.18748 c 3.82602,-0.67776 6.1186,-0.93954 6.47502,-0.73936 0.48914,0.27473 0.21165,0.39671 -1.44793,0.63652 -1.13161,0.16351 -2.8609,0.51087 -4.36563,0.87691 l -0.92604,0.22527 -0.13229,4.75204 c -0.10985,3.94582 -0.17369,4.5276 -0.37629,3.42913 z m 13.47039,-8.40247 c -0.14705,-1.12886 -0.1896,-2.25996 -0.0945,-2.51355 0.32366,-0.8635 0.52264,0.25489 0.43995,2.47274 l -0.078,2.09328 z m -4.95816,-1.97072 c 0.32742,-0.0631 0.8632,-0.0631 1.19062,0 0.32742,0.0631 0.0595,0.11467 -0.59531,0.11467 -0.65484,0 -0.92274,-0.0516 -0.59531,-0.11467 z" /></g><path
       id="path1"
       style="fill:#000000;stroke-width:2.93261"
       d="m 365.01199,12.9802 c -29.25492,-0.01466 -43.53873,0.262468 -47.33103,0.915325 -2.9873,0.51432 -10.31761,1.667304 -16.29127,2.562658 -18.5988,2.787676 -46.08277,9.292432 -59.42446,14.065043 -23.5051,8.408251 -24.25808,8.703858 -39.89617,15.672962 -1.28029,0.570568 -5.72181,2.639786 -9.87174,4.597916 -4.14996,1.958131 -7.87537,3.559832 -8.27749,3.559832 -0.40212,0 -0.84737,0.274492 -0.98961,0.60922 -0.14223,0.334698 -2.35409,1.671234 -4.91463,2.970319 -21.12395,10.717357 -53.64555,33.051265 -73.28038,50.324085 -25.009118,22.00058 -46.072914,45.23234 -65.446943,72.18317 -3.284313,4.56873 -13.425676,20.228 -15.744165,24.3111 -0.888727,1.56519 -3.332878,5.82201 -5.431422,9.45956 -2.098544,3.63754 -4.61428,8.17666 -5.590574,10.08693 -0.976264,1.91027 -2.069188,3.9972 -2.429283,4.63733 -1.1234226,1.99705 -8.07933,17.10284 -8.9321612,19.39796 -0.23783436,0.64013 -0.75080584,1.6876 -1.14113573,2.32776 -1.02262917,1.6771 -5.30241607,12.43428 -9.41407657,23.66551 -0.9373785,2.56055 -2.1867565,5.8031 -2.7778525,7.20454 -0.591067,1.40143 -1.075973,3.16381 -1.075973,3.91749 0,0.75368 -0.315373,1.70258 -0.701685,2.10802 -0.640511,0.67218 -2.208253,5.78647 -3.912918,12.76326 -0.364933,1.49363 -1.020136,3.7632 -1.456362,5.04346 -0.436225,1.28029 -1.38894,5.12104 -2.117107,8.53509 -0.728166,3.41405 -1.775751,7.9532 -2.327756,10.08696 -0.551975,2.1338 -1.588475,7.37122 -2.302008,11.63878 -0.713503,4.26756 -1.638975,9.50502 -2.057986,11.63878 -2.119717,10.7949 -2.55254,21.2209 -2.567203,61.68553 -0.01466,41.16344 0.441299,51.71715 2.730872,63.23737 0.424084,2.13376 1.466479,7.54583 2.315615,12.02677 0.849166,4.48093 1.878863,9.54375 2.288372,11.25079 0.40948,1.70701 1.482315,6.24616 2.383827,10.08697 0.901484,3.8408 1.949773,8.03076 2.329282,9.31102 0.379508,1.28026 1.266446,4.42272 1.97162,6.98327 1.625866,5.90375 6.378301,20.18548 7.7849259,23.39577 0.5892193,1.34475 1.0699321,2.81589 1.0699321,3.27036 0,0.45447 0.4930298,1.97353 1.0941554,3.37496 0.6011256,1.40143 2.2218304,5.34077 3.6022669,8.75483 1.380407,3.41402 3.54986116,8.47693 4.8207061,11.25082 6.5014121,14.19077 7.753195,16.86677 8.8897266,19.01001 3.666755,6.91479 6.87614,12.76161 8.519954,15.51838 1.017879,1.70701 2.051652,3.7147 2.295938,4.46155 0.244286,0.74682 0.752037,1.35786 1.129024,1.35786 0.376957,0 0.684969,0.32745 0.684969,0.7274 0,0.85216 12.229994,20.12636 13.731635,21.64087 0.561887,0.56673 1.420173,1.77373 1.906458,2.68237 0.486285,0.90864 2.839877,4.24659 5.231388,7.41668 2.391511,3.17006 5.03074,6.67678 5.864861,7.79255 15.168847,20.29059 43.039164,48.87825 64.567953,66.23042 5.1589,4.15808 14.57327,11.22461 20.91951,15.70326 6.34625,4.47861 11.95988,8.49576 12.47531,8.92761 0.51543,0.43186 1.1053,0.785 1.31088,0.785 0.20557,0 3.75109,2.10696 7.87891,4.68129 4.12779,2.57433 9.47381,5.77439 11.87975,7.11058 2.40597,1.33615 5.59571,3.11683 7.08935,3.95837 6.53343,3.68106 26.64815,13.45163 33.36449,16.2064 2.37635,0.97468 5.9439,2.46612 8.53512,3.56743 1.06691,0.45344 3.68558,1.41759 5.81937,2.14285 2.13377,0.72527 4.98083,1.80021 6.32558,2.38838 1.34477,0.58813 2.98301,1.0684 3.64015,1.0684 0.65714,0 1.3863,0.30963 1.62003,0.68802 0.23373,0.37837 1.73807,0.93366 3.34311,1.2336 1.60505,0.29995 3.28147,0.84462 3.72503,1.21085 0.44356,0.36622 2.18937,1.01843 3.87957,1.44879 10.21852,2.60184 19.09335,4.9079 22.46984,5.83756 2.13376,0.58755 7.5458,1.81426 12.02673,2.72633 4.48094,0.91204 9.54382,1.96728 11.25083,2.34444 1.70701,0.37713 9.5632,1.43645 17.45816,2.35503 7.89498,0.91861 16.79864,2.13265 19.78594,2.69753 6.90764,1.30624 68.86305,1.12069 76.04002,-0.22728 2.56051,-0.48097 9.89294,-1.4341 16.29429,-2.1186 6.40132,-0.68453 13.90835,-1.73827 16.68228,-2.34139 2.77389,-0.60312 9.23343,-1.98441 14.35449,-3.07035 9.29636,-1.97133 14.06146,-3.12405 22.11367,-5.34656 10.25277,-2.82981 12.38428,-3.48604 13.85592,-4.27362 0.85849,-0.45946 2.14174,-0.83653 2.8521,-0.83653 0.7104,0 2.39237,-0.49315 3.73714,-1.09568 1.34475,-0.60253 4.71402,-1.85306 7.48791,-2.77938 5.00329,-1.67079 9.93641,-3.59411 15.90634,-6.20278 1.70704,-0.74594 6.59532,-2.88012 10.86287,-4.74191 8.97407,-3.91506 23.64966,-11.32596 29.97441,-15.13647 2.40297,-1.44774 4.60164,-2.63237 4.88434,-2.63237 0.89574,0 23.80619,-14.65681 31.48229,-20.14055 6.02425,-4.30369 19.063,-14.39875 26.76921,-20.72552 28.6552,-23.52587 60.07274,-59.71396 81.39722,-93.75583 2.94058,-4.69431 5.89767,-9.40801 6.57106,-10.47489 0.67338,-1.06691 1.88279,-3.16188 2.68691,-4.65551 0.80412,-1.49367 2.6985,-4.98529 4.20996,-7.75921 1.51144,-2.77389 3.0327,-5.5672 3.37951,-6.20733 0.61822,-1.14114 6.68338,-14.0571 9.83839,-20.94981 3.50728,-7.66231 8.21705,-19.89277 12.25102,-31.81267 1.08319,-3.20068 2.26975,-6.51772 2.63692,-7.37123 0.36716,-0.8535 1.39853,-4.17057 2.29139,-7.37122 0.89283,-3.20068 2.12449,-7.56524 2.73694,-9.69901 0.61245,-2.13379 1.67247,-6.32375 2.35503,-9.31102 0.68256,-2.9873 1.73068,-7.35181 2.32925,-9.69898 1.71279,-6.71626 3.79831,-19.61984 6.39528,-39.57186 1.12325,-8.62981 1.3624,-16.55691 1.3624,-45.00328 0,-34.46874 -0.62124,-46.72949 -3.10821,-61.29757 -0.61925,-3.62742 -1.68745,-9.91235 -2.37324,-13.96653 -0.68579,-4.05418 -1.72375,-9.29161 -2.30805,-11.63878 -0.58429,-2.34714 -1.61402,-6.88632 -2.28834,-10.08697 -0.67429,-3.20067 -1.70384,-7.39063 -2.28685,-9.31102 -0.58297,-1.92042 -1.84126,-6.11038 -2.79603,-9.31103 -2.50207,-8.38763 -6.17982,-19.39221 -7.42882,-22.23035 -0.5918,-1.34478 -1.07597,-2.78959 -1.07597,-3.20977 0,-0.42016 -0.52031,-1.76311 -1.15783,-2.98548 -0.63749,-1.22234 -1.16125,-2.76346 -1.16386,-3.42493 -0.003,-0.66148 -0.3027,-1.53437 -0.66529,-1.93981 -0.36259,-0.4054 -1.26633,-2.30925 -2.00951,-4.22967 -5.7738,-14.91969 -21.08256,-44.11812 -32.77953,-62.52055 -7.00453,-11.02003 -25.30616,-35.86997 -30.87612,-41.92386 -0.43523,-0.47306 -3.02272,-3.44095 -5.74967,-6.59532 -14.61382,-16.90436 -42.58578,-42.64003 -59.83214,-55.0493 -3.20065,-2.302975 -6.28232,-4.635512 -6.8499,-5.182912 -1.22017,-1.176767 -22.1859,-15.021044 -24.97639,-16.492801 -1.0594,-0.55875 -2.10063,-1.224305 -2.31412,-1.480615 -0.21349,-0.256309 -1.78464,-1.217735 -3.49165,-2.135289 -1.70701,-0.917554 -4.50032,-2.470046 -6.20736,-3.450739 -4.89094,-2.809935 -12.19644,-6.75347 -14.74244,-7.957715 -14.70242,-6.954089 -21.26823,-10.026112 -22.88961,-10.70979 -1.06688,-0.449862 -2.9873,-1.281432 -4.26756,-1.848862 -1.28029,-0.56743 -6.16853,-2.486351 -10.86284,-4.264537 -8.07872,-3.060204 -10.22849,-3.852975 -16.68225,-6.149763 -2.73413,-0.973039 -12.59179,-3.862037 -19.78594,-5.798173 -14.28848,-3.845439 -21.24043,-5.456554 -30.26083,-7.013563 -3.84078,-0.662945 -8.84316,-1.580587 -11.11745,-2.039833 -13.62404,-2.751019 -23.69646,-3.254372 -65.69851,-3.2749 z m -2.52931,18.608413 c 14.89969,-0.09883 29.99522,0.355431 38.9975,1.404835 5.97457,0.696436 13.65618,1.564722 17.07021,1.929186 8.52033,0.909518 23.55554,3.853943 38.79594,7.598529 4.26756,1.048554 8.98125,2.169191 10.47489,2.48993 2.63102,0.564996 30.19989,9.743349 35.69228,11.882774 12.88379,5.018539 40.03365,18.091394 49.65879,23.911005 2.77389,1.677186 5.5672,3.276073 6.20736,3.55379 1.71848,0.745205 27.49987,17.786168 28.77869,19.022118 0.60218,0.58194 3.63778,2.89416 6.74535,5.13895 3.10753,2.24482 6.42461,4.73496 7.37122,5.53298 0.94662,0.79799 5.21168,4.34718 9.47924,7.88648 8.82929,7.3226 31.66423,29.83159 39.66884,39.10358 11.24346,13.02364 20.57167,25.27593 29.78651,39.12478 16.09039,24.182 28.93626,49.15708 39.3415,76.48709 0.64992,1.70701 1.48859,3.80201 1.86402,4.65551 1.56032,3.54702 4.36392,12.18131 6.80142,20.94981 0.83039,2.9873 2.09646,7.52644 2.81421,10.08696 2.49313,8.89389 5.43644,22.4684 6.98175,32.20063 3.81157,24.0047 6.28572,56.88767 5.45418,72.50444 -0.20587,3.865 -0.56459,11.21719 -0.79714,16.33825 -1.067,23.48733 -5.9673,51.75264 -13.58466,78.36778 -3.72112,13.00176 -4.37577,15.14054 -6.17551,20.17389 -0.91556,2.56055 -2.02834,5.87759 -2.47324,7.37123 -0.44491,1.49366 -1.12536,3.04832 -1.51243,3.45376 -0.38711,0.4054 -0.7158,1.27832 -0.73046,1.9398 -0.0147,0.66148 -0.70151,2.59837 -1.52607,4.30542 -0.82453,1.70701 -1.50991,3.38762 -1.52457,3.73411 -0.0147,0.34649 -0.86694,2.44148 -1.89432,4.65551 -1.02738,2.21403 -2.63761,5.77088 -3.57801,7.90467 -4.60654,10.45213 -8.27723,17.63226 -16.17611,31.63992 -11.59037,20.55405 -28.927,44.45244 -47.40681,65.34993 -6.07197,6.86635 -27.26896,27.61943 -34.55719,33.8343 -15.51281,13.22819 -34.85951,27.07969 -53.53839,38.33069 -23.03554,13.87518 -58.35693,29.72721 -79.53167,35.69378 -1.92039,0.54112 -7.68158,2.20631 -12.80264,3.69924 -5.12107,1.49293 -11.23142,3.1276 -13.57859,3.63259 -18.57125,3.99562 -22.19161,4.68886 -24.45811,4.68886 -1.41498,0 -4.60862,0.50684 -7.09693,1.12597 -2.48832,0.61911 -9.93723,1.6832 -16.55193,2.36412 -11.37675,1.17117 -47.26118,2.08494 -58.1939,1.48214 -10.06254,-0.55482 -30.76691,-2.74978 -35.69225,-3.78411 -2.7739,-0.58254 -7.13847,-1.27457 -9.69898,-1.53821 -7.96314,-0.81979 -37.70027,-7.8147 -46.58091,-10.95681 -1.72129,-0.60901 -3.58795,-1.10782 -4.14934,-1.10782 -0.56136,0 -2.1211,-0.49045 -3.46587,-1.08961 -1.34475,-0.59919 -5.06467,-1.97493 -8.26535,-3.05821 -17.65393,-5.9751 -41.98231,-17.18026 -61.29757,-28.23161 -6.63077,-3.79386 -20.31542,-12.5776 -30.54726,-19.60712 -34.23014,-23.51695 -73.008489,-63.20699 -95.900238,-98.15371 -2.236376,-3.41405 -5.07728,-7.70158 -6.313432,-9.52774 -1.236181,-1.8262 -2.248927,-3.47778 -2.248927,-3.67045 0,-0.19268 -1.171342,-2.19007 -2.603568,-4.43883 -5.840755,-9.17049 -19.134464,-35.56641 -23.747366,-47.1522 -0.934504,-2.34714 -2.176639,-5.31506 -2.761195,-6.59531 -1.163981,-2.54929 -4.7516435,-12.59719 -5.8178512,-16.2943 -0.3692151,-1.28026 -1.4094692,-4.42272 -2.311099,-6.98327 -4.42826471,-12.57566 -10.0119763,-35.51092 -13.5073497,-55.47819 -3.4008261,-19.42711 -3.9202201,-27.44943 -3.9114221,-60.52166 0.0088,-33.78923 0.0915,-34.9691 4.5009346,-64.01328 3.8661721,-25.46673 14.7963182,-61.68081 26.4630764,-87.67883 8.68333,-19.34975 19.171972,-38.55096 30.303265,-55.47819 5.812309,-8.83873 9.047941,-13.31213 20.048088,-27.71938 2.02822,-2.65641 7.989974,-9.63968 13.248225,-15.51838 27.526589,-30.77466 58.428809,-55.85903 95.106119,-77.199367 11.60371,-6.751505 29.00946,-15.454806 40.73572,-20.369385 1.70704,-0.715439 4.15116,-1.754784 5.43142,-2.309574 1.28026,-0.55479 3.81169,-1.576305 5.62542,-2.27016 1.8137,-0.693854 4.60703,-1.779329 6.20736,-2.412626 3.68499,-1.458297 20.48487,-6.802854 28.12706,-8.947323 14.41265,-4.044328 36.65397,-8.575116 49.27084,-10.038428 3.41405,-0.395961 8.65148,-1.06653 11.63878,-1.489705 8.21499,-1.163717 22.91878,-1.816633 37.81845,-1.915549 z"
       inkscape:label="Outer Ring" /><path
       style="fill:#000000;stroke-width:2.93261"
       d="m 249.82746,618.45004 c 0.28446,-0.28446 0.51109,-3.1651 0.50353,-6.40135 l -0.0147,-5.88404 -7.92599,-5.04346 c -7.04843,-4.48507 -16.59374,-11.20505 -17.6518,-12.42698 -0.21349,-0.24634 -2.65749,-2.15547 -5.43142,-4.24228 -7.36676,-5.54201 -25.84731,-24.30216 -33.64441,-34.15343 -6.83576,-8.63667 -13.7956,-18.63917 -16.80087,-24.14582 -0.90389,-1.65621 -2.36638,-4.23339 -3.24995,-5.72705 -5.29599,-8.95263 -13.59345,-27.83639 -18.41058,-41.89959 -1.90692,-5.56708 -7.0074,-27.02335 -8.11572,-34.14043 -4.26421,-27.38286 -2.94351,-64.78429 3.02757,-85.73902 0.60801,-2.13377 1.68815,-6.32373 2.40027,-9.31103 2.70393,-11.34265 10.91989,-33.06003 15.9979,-42.28757 1.29167,-2.34714 3.30511,-6.01336 4.47434,-8.14713 9.93218,-18.12588 21.33086,-33.34229 36.80514,-49.13206 5.15303,-5.25811 11.8133,-11.54227 14.8006,-13.96478 2.98727,-2.42254 5.606,-4.58882 5.81938,-4.81396 0.21349,-0.22522 3.00668,-2.3121 6.20736,-4.63762 3.20067,-2.32553 5.99398,-4.42428 6.20736,-4.66387 0.4149,-0.46594 11.76585,-7.57226 14.35449,-8.98674 12.78229,-6.9845 18.82331,-10.05714 26.57522,-13.51691 l 4.07356,-1.8181 v -6.06903 c 0,-3.3732 -0.33191,-6.06903 -0.74719,-6.06903 -2.36401,0 -22.19101,9.09337 -32.42334,14.87052 -1.38695,0.78306 -3.80379,2.14983 -5.37077,3.03724 -3.44429,1.95056 -10.01274,6.34064 -18.87669,12.61639 -23.92168,16.93674 -50.37529,46.13485 -65.13908,71.89713 -3.22077,5.62013 -14.23411,28.14428 -15.93438,32.58858 -5.59872,14.63415 -8.27989,23.89505 -12.35527,42.67552 -5.6675,26.1175 -5.67864,66.09118 -0.0264,92.7223 3.29941,15.54401 4.30145,19.17575 9.31266,33.75245 4.33211,12.60129 12.54129,30.46423 17.90515,38.96114 1.00952,1.59921 1.83552,3.26372 1.83552,3.69898 0,0.43523 0.34915,0.79134 0.7759,0.79134 0.42676,0 0.77591,0.38323 0.77591,0.85165 0,1.35449 12.44053,19.03834 19.06376,27.09855 6.05536,7.36917 21.04025,22.76682 29.04321,29.84322 8.30163,7.34049 27.48028,20.79896 37.4656,26.2912 4.1609,2.28861 3.98594,2.23177 4.69264,1.52507 z"
       id="path272-8"
       inkscape:label="Left half-ring Alternate" /></g></svg>
