<?xml version="1.0" encoding="UTF-8" standalone="no"?>
<!-- Created with Inkscape (http://www.inkscape.org/) -->

<svg
   width="919.43036"
   height="1903.7734"
   viewBox="0 0 243.26596 503.70677"
   version="1.1"
   id="svg1"
   xml:space="preserve"
   inkscape:version="1.4.2 (f4327f4, 2025-05-13)"
   sodipodi:docname="DicksonObeliskPageTopper.svg"
   inkscape:export-filename="C:\Users\facep\Downloads\DicksonObeliskNeweBay.png"
   inkscape:export-xdpi="281.52982"
   inkscape:export-ydpi="281.52982"
   xmlns:inkscape="http://www.inkscape.org/namespaces/inkscape"
   xmlns:sodipodi="http://sodipodi.sourceforge.net/DTD/sodipodi-0.dtd"
   xmlns="http://www.w3.org/2000/svg"
   xmlns:svg="http://www.w3.org/2000/svg"><sodipodi:namedview
     id="namedview1"
     pagecolor="#ffffff"
     bordercolor="#000000"
     borderopacity="0.25"
     inkscape:showpageshadow="2"
     inkscape:pageopacity="0.0"
     inkscape:pagecheckerboard="0"
     inkscape:deskcolor="#d1d1d1"
     inkscape:document-units="mm"
     inkscape:zoom="0.25417602"
     inkscape:cx="428.83667"
     inkscape:cy="643.25501"
     inkscape:window-width="2560"
     inkscape:window-height="1009"
     inkscape:window-x="1912"
     inkscape:window-y="-8"
     inkscape:window-maximized="1"
     inkscape:current-layer="layer1"
     showgrid="false" /><defs
     id="defs1" /><g
     inkscape:label="Layer 1"
     inkscape:groupmode="layer"
     id="layer1"
     transform="translate(-246.20639,-140.8136)"><path
       style="display:none;fill:#000000;stroke-width:2.93261"
       d="m 237.84873,612.18054 c -8.93544,-5.59119 -18.03485,-11.8318 -19.09669,-13.09699 -0.21349,-0.25426 -1.95804,-1.67531 -3.87702,-3.15792 -5.63504,-4.35366 -6.95538,-5.49588 -13.43084,-11.61872 -7.90317,-7.47287 -15.91036,-15.74079 -19.5377,-20.1739 -1.57135,-1.92038 -3.60092,-4.36453 -4.5102,-5.43142 -1.86766,-2.19145 -16.06224,-22.39432 -16.06224,-22.8611 0,-0.16628 -1.66938,-3.03419 -3.70977,-6.37288 -5.11854,-8.37552 -15.68819,-30.16516 -15.68819,-32.34169 0,-0.55831 -0.2393,-1.25442 -0.53177,-1.54689 -0.58062,-0.58062 -2.28247,-4.96745 -3.35569,-8.64992 -0.37311,-1.28026 -1.35941,-4.27601 -2.19174,-6.65723 -2.75181,-7.87237 -6.50628,-24.67717 -8.39382,-37.57014 -2.106,-14.38532 -1.87931,-55.26676 0.38077,-68.6688 3.19149,-18.9251 7.83252,-37.36595 11.4532,-45.5085 0.59796,-1.34478 1.08721,-2.83346 1.08721,-3.30819 0,-0.47476 0.31924,-1.46947 0.70945,-2.21051 0.39019,-0.74101 1.47736,-3.26771 2.41597,-5.61488 1.43595,-3.59089 5.15579,-11.26127 12.79385,-26.38123 0.75456,-1.49364 2.19508,-3.8272 3.2012,-5.18567 1.00615,-1.3585 1.82933,-2.67084 1.82933,-2.91633 0,-0.24546 2.32063,-3.8477 5.15693,-8.00493 24.05394,-35.25632 56.64842,-63.40735 94.38693,-81.51965 4.6054,-2.21033 8.53729,-4.01878 8.73755,-4.01878 0.2003,0 1.84426,-0.66837 3.65333,-1.48525 3.5686,-1.61144 13.82216,-5.09212 23.07512,-7.83311 3.20065,-0.94814 6.57623,-2.01209 7.50129,-2.36433 0.92503,-0.35226 3.82013,-0.88239 6.43358,-1.17808 l 4.75167,-0.53758 -0.51045,5.3413 c -0.56587,5.92123 -1.36005,6.99761 -5.70222,7.72842 -1.52618,0.25689 -4.17154,0.9196 -5.87855,1.47281 -1.70704,0.55318 -5.72243,1.79402 -8.92307,2.75744 -3.20068,0.96342 -6.15112,2.05092 -6.55652,2.41668 -0.40543,0.36572 -1.22556,0.66496 -1.82253,0.66496 -0.59699,0 -2.18567,0.48201 -3.53044,1.07111 -1.34475,0.5891 -4.36542,1.85543 -6.71256,2.81404 -18.17853,7.42442 -44.31274,23.54598 -57.77575,35.64049 -8.71262,7.82695 -12.05439,10.95886 -16.60767,15.5646 -9.82716,9.94042 -22.61025,26.42507 -30.36808,39.16168 -3.95819,6.49845 -13.16819,24.24749 -15.10999,29.11916 -4.67343,11.72491 -9.10571,24.8876 -10.84298,32.20064 -0.70964,2.98729 -1.61053,6.47891 -2.00195,7.7592 -1.3487,4.41126 -3.7662,20.20707 -4.68771,30.62931 -1.47384,16.66903 0.16628,51.41015 2.82894,59.92447 0.22757,0.72776 0.71074,2.9973 1.07368,5.04347 0.36291,2.04619 1.53247,7.03737 2.59897,11.09155 11.805,44.87504 36.40534,84.43027 71.53474,115.02181 6.11299,5.32332 20.16029,15.48463 27.27981,19.73324 l 7.24858,4.32559 v 6.49972 c 0,5.67471 -0.17244,6.49912 -1.35786,6.49507 -0.74682,-0.003 -5.85797,-2.82052 -11.3581,-6.26214 z"
       id="path273"
       inkscape:label="Left half-ring collapsing/rotating" /><path
       id="path229"
       style="fill:#000000;stroke-width:2.93261"
       inkscape:label="Main Obelisk"
       d="m 368.20812,140.90523 c -10.0413,-0.70954 -30.60347,2.79454 -42.77405,7.28941 -8.85542,3.27053 -27.53753,13.42268 -27.53753,14.96371 0,0.54913 1.96277,0.62552 6.01337,0.23637 15.46375,-1.48522 20.89118,-1.74332 33.17053,-1.57763 11.1986,0.15103 22.81316,1.18932 26.59795,2.37626 1.25149,0.39247 0.35212,2.17896 -11.31297,22.45468 -13.77146,23.93696 -12.8142,21.42594 -13.19969,34.62082 l -0.33191,11.34326 -4.36909,0.98052 c -4.95927,1.11328 -28.57,8.78019 -32.68858,10.6143 -30.69498,13.66935 -44.40506,32.99103 -39.16874,55.20239 1.8415,7.81138 4.86947,13.12104 10.90073,19.12065 11.54095,11.48033 25.29402,17.19466 53.87332,22.38191 5.41333,0.98251 5.80982,1.18651 5.67844,2.92789 -0.0777,1.02964 -0.504,10.07693 -0.94717,20.10568 -1.11551,25.24259 -2.37996,43.75496 -3.02487,44.28646 -0.29833,0.24576 -1.93919,0.836 -3.6462,1.31088 -12.88505,3.58446 -30.04933,9.61264 -31.77479,11.15991 -0.4054,0.36356 -1.16151,0.66075 -1.68064,0.66075 -1.53461,0 -15.12234,7.95478 -19.71773,11.54329 -12.84939,10.03403 -20.37077,20.19314 -24.48389,33.07203 -2.23078,6.98488 -2.07019,22.09825 0.3137,29.48489 3.17158,9.82731 6.60273,15.48636 13.66952,22.54711 6.62226,6.61667 14.07974,11.33719 26.42973,16.72926 5.62339,2.45521 22.96536,6.452 30.64879,7.06356 2.68747,0.21379 2.71761,0.25631 2.94606,4.18724 l 0.23197,3.97204 -3.7235,1.17451 c -2.04745,0.64581 -4.65088,1.38844 -5.78603,1.65032 -1.98194,0.45737 -2.08054,0.73195 -2.50052,6.88174 -0.24047,3.52224 -0.6257,11.4657 -0.85473,17.65367 -0.22933,6.18795 -0.63262,15.14853 -0.89715,19.9117 l -0.48191,8.66089 -4.74798,0.84107 c -2.61154,0.46268 -8.58875,1.36246 -13.28306,2.00042 -12.53431,1.70347 -16.64697,2.43342 -17.27783,3.06428 -0.72958,0.7289 -0.71154,12.58215 0.0205,13.31339 0.57693,0.57693 10.72055,2.80325 28.11947,6.17249 5.54781,1.0743 11.48361,2.29905 13.19062,2.72178 1.70705,0.42277 7.62865,1.64179 13.15881,2.70812 5.53017,1.06629 11.29136,2.2511 12.80265,2.63236 1.51129,0.38124 6.23918,1.43839 10.50673,2.34899 4.26756,0.91063 8.6321,1.97315 9.69898,2.3611 l 0.002,-0.002 c 3.58778,1.30465 15.74985,-0.15396 36.08021,-4.32818 2.98727,-0.61335 8.57388,-1.66155 12.41469,-2.32928 12.05034,-2.09494 19.20144,-3.40924 25.21736,-4.63428 9.81898,-1.99948 18.10139,-3.58432 20.94981,-4.00993 1.49363,-0.22317 3.15217,-0.75664 3.68561,-1.18509 1.03351,-0.83008 1.34146,-9.39622 0.49103,-13.64829 -0.43194,-2.15975 -0.82559,-2.43803 -4.07359,-2.87786 -5.62058,-0.76113 -10.42143,-2.22157 -10.10664,-3.07337 0.15777,-0.42675 2.42749,-1.52457 5.04499,-2.4399 18.36354,-6.42161 33.91031,-19.8311 38.7641,-33.43423 1.33451,-3.74013 1.38979,-16.06655 0.088,-19.60406 -4.53398,-12.31994 -13.03599,-21.09451 -26.05086,-26.8874 -9.77655,-4.35155 -11.99554,-5.1676 -17.54154,-6.44833 -2.13379,-0.49274 -5.20464,-1.24258 -6.82414,-1.66701 -3.05047,-0.79946 -11.47649,-1.95881 -19.55708,-2.68994 -7.74604,-0.70086 -7.89625,-0.7725 -8.41083,-4.00236 -0.25602,-1.60613 -0.82184,-11.82394 -1.25786,-22.70623 -0.43602,-10.88226 -1.14955,-24.32506 -1.58516,-29.87288 -0.43561,-5.54781 -0.8745,-14.06988 -0.97597,-18.93877 l -0.18505,-8.85336 4.65551,-1.06081 c 9.29071,-2.11849 28.16036,-8.95553 38.02004,-13.7756 19.49987,-9.53275 32.7119,-22.10314 37.89575,-36.05445 2.51134,-6.75881 2.2189,-18.14841 -0.66074,-25.75383 -2.60301,-6.87473 -5.17696,-10.80956 -10.59768,-16.20186 -10.4655,-10.4106 -27.02012,-17.8264 -47.58713,-21.31805 -4.26753,-0.7245 -9.27763,-1.6532 -11.13262,-2.06409 -1.85502,-0.41091 -6.21956,-0.95723 -9.69898,-1.21236 -3.47945,-0.25514 -6.76203,-0.80685 -7.29547,-1.22753 -0.62946,-0.49635 -0.97805,-2.97854 -0.99565,-7.07116 -0.0147,-3.46849 -0.35053,-8.75152 -0.74864,-11.73882 -0.65796,-4.93707 -2.24162,-33.43036 -2.57934,-46.40509 l -0.13783,-5.28291 3.93564,-1.40029 c 19.18177,-6.8277 34.33988,-18.38172 40.40387,-30.79729 2.78457,-5.70128 3.00809,-6.6728 3.25824,-14.17567 0.19561,-5.87046 -0.0859,-9.31618 -1.03659,-12.70416 -6.05741,-21.58838 -32.64269,-38.98804 -62.00984,-40.58419 -4.30636,-0.23403 -9.53373,-0.54688 -11.61755,-0.69409 z m -6.27707,6.38165 c 5.89481,-0.16364 12.03193,-0.006 16.99293,0.51828 5.73158,0.60394 11.05584,1.41445 11.83275,1.80188 0.7769,0.38743 3.4366,1.17117 5.91031,1.74129 2.47374,0.57013 4.67771,1.32683 4.89649,1.68065 0.21877,0.35388 0.90345,0.64256 1.52305,0.64256 4.0372,0 17.94819,9.08141 23.87769,15.58807 6.44988,7.07773 8.92755,12.84024 9.60804,22.34555 0.73406,10.25324 -4.32047,19.9189 -14.97281,28.63021 -9.66777,7.90616 -29.95182,16.0069 -51.93047,20.73916 -4.48516,0.96571 -15.55026,3.82157 -24.44146,6.30886 -6.14598,1.71932 -11.88397,3.89731 -22.01366,8.35479 -8.57248,3.77224 -18.49082,11.81526 -22.67744,18.39016 -1.83082,2.87522 -2.16939,4.24498 -2.19285,8.83366 -0.0372,7.51052 1.85904,10.87434 9.2519,16.40946 3.17769,2.37916 9.77634,5.70424 11.31901,5.70424 0.47362,0 1.96048,0.47872 3.30525,1.06233 1.34475,0.58365 4.65276,1.71842 7.35152,2.52172 l 4.90707,1.45941 -0.18182,10.47489 c -0.0997,5.7612 -0.48573,11.08596 -0.85925,11.83278 -0.76459,1.52888 -1.07715,1.5341 -9.1595,0.13636 -22.51585,-3.89374 -39.79864,-11.98923 -48.21909,-22.585 -2.12766,-2.67732 -2.91146,-4.14729 -5.21171,-9.78839 -0.48672,-1.19366 -0.8835,-5.21362 -0.8835,-8.93369 0,-7.87416 1.59102,-13.11015 5.52843,-18.18257 10.90443,-14.04788 24.94859,-21.53521 58.48485,-31.1807 3.8408,-1.10465 8.72908,-2.52321 10.86287,-3.15369 5.43054,-1.60458 17.78904,-5.67665 20.35727,-6.70746 1.17914,-0.47329 2.8427,-1.11542 3.6962,-1.42604 6.12572,-2.22925 22.28904,-10.90988 27.47846,-14.75761 17.43511,-12.92733 21.40656,-29.82234 9.71564,-41.32828 -4.00955,-3.94611 -13.35298,-9.36657 -19.73591,-11.44936 -6.05299,-1.97511 -10.63651,-3.17798 -13.57859,-3.56285 -1.70704,-0.22318 -5.11109,-0.89885 -7.56369,-1.50182 -5.44256,-1.33809 -28.44082,-3.00762 -32.94472,-2.39142 -10.03071,1.37234 2.13567,-4.48906 14.12719,-6.80597 3.99283,-0.77148 9.64478,-1.25776 15.53958,-1.42149 z m 8.82606,18.09315 c 1.32921,0.0235 3.63526,0.62283 7.22879,1.8337 14.03971,4.7308 16.60846,5.96548 21.62873,10.39155 8.39327,7.39993 7.86971,16.93638 -1.50334,27.39661 -4.47058,4.9891 -5.05402,4.95153 -7.98197,-0.50769 -3.27624,-6.10862 -6.66232,-12.14017 -9.72777,-17.32784 -1.84913,-3.12923 -3.36282,-5.81984 -3.36282,-5.97849 0,-0.15866 -1.74581,-3.32209 -3.87958,-7.03025 -2.13376,-3.70817 -3.8796,-7.21515 -3.8796,-7.79405 0,-0.66855 0.44376,-1.00104 1.47756,-0.98354 z m -2.98392,9.63986 c 0.81949,-0.009 3.83412,3.46587 3.83412,4.50246 0,0.21613 1.34724,2.77938 2.99304,5.69817 6.63708,11.77084 11.68574,21.79545 11.21447,22.26672 -0.65084,0.65081 -5.33465,0.50688 -8.77609,-0.2698 -1.49367,-0.33704 -4.37422,-0.84734 -6.40132,-1.13357 l -3.68562,-0.5198 v -15.03796 c 0,-8.35773 0.31854,-15.23293 0.71682,-15.47897 0.0293,-0.0176 0.0642,-0.0264 0.1047,-0.0264 z m -5.86486,5.03288 c 0.21349,0 0.38795,0.17449 0.38795,0.38796 0,0.21349 -0.17449,0.38795 -0.38795,0.38795 -0.2135,0 -0.38796,-0.17449 -0.38796,-0.38795 0,-0.2135 0.17449,-0.38796 0.38796,-0.38796 z m -1.64276,1.77763 c 0.15983,-0.003 0.22082,0.31728 0.3137,0.7623 0.15777,0.7565 -1.66144,5.39488 -4.04175,10.3082 -2.38031,4.91332 -4.33606,9.18357 -4.34486,9.48833 -0.009,0.30476 -0.70063,1.42607 -1.53516,2.49295 -0.83453,1.06688 -1.52487,2.25388 -1.53366,2.63691 -0.009,0.3962 2.80427,0.47896 6.53167,0.19238 6.57974,-0.50576 8.91818,0.19297 5.95428,1.77918 -1.55378,0.83157 -17.15965,2.14089 -17.15965,1.43968 0,-0.56277 7.94725,-15.66971 8.48814,-16.13517 0.24809,-0.21349 1.49583,-2.40459 2.77178,-4.87071 3.24229,-6.26663 4.17709,-8.08698 4.55551,-8.09411 z m 7.2833,28.20739 c 0.73166,-0.45221 18.96338,0.95509 19.51468,1.50636 1.33472,1.33472 -3.8584,4.74566 -14.36965,9.43833 -2.15078,0.96023 -4.32158,1.74581 -4.82526,1.74581 -1.03617,0 -1.34005,-12.05993 -0.31977,-12.6905 z m -22.33341,9.58684 c 0.003,-3e-4 0.006,0 0.0117,0 0.43696,0 0.77591,2.1835 0.77591,4.99801 0,2.74873 -0.34915,5.21323 -0.77591,5.47688 -0.48942,0.30238 -0.77593,-1.54259 -0.77593,-4.99649 0,-3.10971 0.32654,-5.44216 0.76532,-5.4784 z m 44.68351,23.92616 1.37454,21.98338 c 0.75562,12.09093 1.69675,28.44285 2.09133,36.33783 0.39455,7.89496 1.24043,23.60734 1.87918,34.91635 0.63876,11.30901 1.34827,25.27557 1.5776,31.03677 0.22933,5.76119 0.6323,12.7939 0.89565,15.62747 l 0.47889,5.15107 -2.6248,1.2048 c -3.65285,1.67537 -14.33927,5.54556 -18.53263,6.712 -1.92042,0.53421 -4.50334,1.27941 -5.74058,1.6564 -2.97035,0.90485 -4.14357,0.86426 -4.7798,-0.16511 -0.28915,-0.46769 -0.2651,-34.16557 0.0531,-74.88524 l 0.57892,-74.03658 1.64578,-0.38493 c 0.90603,-0.21203 5.13895,-1.28422 9.40651,-2.38231 4.26756,-1.09811 8.64512,-2.17062 9.72778,-2.38382 z m -44.68198,12.63901 c 0.22815,-10e-4 0.39528,0.0317 0.46523,0.10147 0.18651,0.18651 -0.0147,3.79623 -0.44705,8.02287 -0.43297,4.22668 -1.1207,16.41404 -1.52759,27.08292 -0.40687,10.66888 -1.09915,26.03204 -1.53821,34.1404 -0.43905,8.10836 -1.18833,21.90032 -1.66549,30.64882 -0.47716,8.74849 -1.11043,23.41894 -1.40636,32.60069 -0.29593,9.18176 -0.80336,17.12522 -1.12903,17.65215 -0.32566,0.52693 -1.13987,0.95779 -1.80944,0.95779 -1.0758,0 -1.15375,-1.33178 -0.66834,-11.44482 1.34492,-28.02111 1.9176,-40.7112 2.70512,-59.93971 0.46315,-11.30901 1.19862,-24.75181 1.63519,-29.87288 1.12988,-13.25394 2.27653,-34.53059 2.28532,-42.4285 0.006,-6.1337 0.15074,-6.78315 1.61698,-7.24847 0.55356,-0.17566 1.10325,-0.27097 1.48367,-0.27273 z m -9.38378,2.57629 c 0.10322,-0.006 0.19883,-0.006 0.28798,0 0.29499,0.0147 0.51174,0.0874 0.63799,0.22112 0.58646,0.62221 -0.40277,29.87112 -1.27299,37.64722 -0.44109,3.94145 -0.69362,4.4502 -2.16863,4.35694 -6.93658,-0.43898 -20.65667,-6.42678 -24.40506,-10.6507 -5.82832,-6.56769 -3.57987,-13.43468 6.9681,-21.28471 6.96362,-5.1825 16.75489,-10.12702 19.95263,-10.29001 z m 63.53289,61.72796 h 3.44161 c 3.62688,0 14.37429,1.58971 23.50185,3.47497 2.98727,0.61702 6.64326,1.35407 8.12291,1.63824 1.47962,0.28417 3.22549,0.79095 3.8796,1.1275 0.65415,0.33654 3.6016,1.38046 6.54983,2.31866 7.46378,2.37509 17.98509,7.86387 22.43347,11.70394 4.7632,4.11184 9.35833,10.32832 11.52207,15.58505 1.99083,4.83672 2.35259,15.0179 0.685,19.3025 -4.4717,11.48931 -10.39955,18.33553 -23.03659,26.60551 -4.3256,2.83076 -8.0442,5.14655 -8.26385,5.14655 -0.21966,0 -3.31561,1.33454 -6.8787,2.96575 -3.56311,1.63117 -8.04985,3.43765 -9.97024,4.01447 -1.92042,0.57678 -3.82277,1.33718 -4.22817,1.68974 -0.40544,0.35244 -1.22613,0.64107 -1.82309,0.64107 -0.59699,0 -2.18476,0.48748 -3.52954,1.08353 -1.34474,0.59606 -6.11216,2.02529 -10.5931,3.1749 -4.48093,1.14958 -9.02005,2.37025 -10.08693,2.71269 -1.06688,0.34247 -4.03477,1.03545 -6.59532,1.53971 -5.313,1.04632 -6.15234,1.24941 -20.9498,5.08895 -12.53848,3.2534 -27.8207,7.95704 -30.64424,9.43073 -1.06873,0.55782 -2.20916,1.0158 -2.53386,1.01841 -1.0333,0.009 -7.7402,3.26423 -14.15296,6.87113 -18.30284,10.29459 -27.9034,22.19915 -27.87701,34.56173 0.009,4.26263 0.46116,6.48402 1.99133,9.78232 1.96405,4.2336 9.42997,12.40733 11.33722,12.4132 0.53344,0.001 0.9699,0.26804 0.9699,0.59406 0,0.50998 2.24878,1.65208 9.69898,4.92223 0.85351,0.37464 3.82139,1.3553 6.59532,2.18074 16.70257,4.97018 25.63508,6.06334 73.62437,9.0034 10.83389,0.66373 20.32665,1.54287 21.09376,1.95344 0.76714,0.41053 2.33374,0.74561 3.48256,0.74561 3.10675,0 15.28768,2.91747 23.23058,5.56327 16.90791,5.63201 27.98067,14.94172 30.72304,25.83263 1.26519,5.02458 0.43866,13.5472 -1.7549,18.09163 -0.97377,2.01734 -4.56724,6.45862 -7.99713,9.88388 -5.20367,5.19669 -7.6326,6.92672 -14.76368,10.52339 -10.22913,5.15922 -13.68354,6.48021 -21.33776,8.15323 -3.20014,0.69949 -6.60367,1.44754 -7.56369,1.66247 -0.96019,0.21496 -1.78399,0.088 -1.82915,-0.28183 -0.0452,-0.36983 -0.20616,-3.72397 -0.35919,-7.45459 l -0.27889,-6.78321 6.37405,-3.1734 c 11.17965,-5.56527 17.40129,-11.36649 19.82835,-18.48718 5.06898,-14.87189 -12.44581,-28.08859 -42.16481,-31.8172 -8.72424,-1.09456 -28.90283,-1.28923 -54.3143,-0.52435 -18.38301,0.55333 -23.56851,0.45095 -33.70852,-0.66529 -6.59112,-0.72558 -12.52692,-1.60006 -13.19063,-1.94282 -0.66373,-0.34276 -2.85812,-0.86213 -4.87525,-1.1548 -2.01714,-0.29268 -3.87063,-0.86028 -4.11902,-1.26237 -0.24839,-0.40212 -1.30909,-0.73198 -2.35656,-0.73198 -1.04749,0 -2.50963,-0.30701 -3.25067,-0.68195 -0.74104,-0.37493 -3.61834,-1.66715 -6.39223,-2.87334 -13.46782,-5.85615 -23.94236,-15.34764 -29.04545,-26.31759 -0.79409,-1.70701 -1.69666,-3.63901 -2.00646,-4.2933 -1.37026,-2.89396 -2.4699,-13.01189 -1.98983,-18.30988 0.56388,-6.22269 2.82724,-13.94785 5.31171,-18.13253 7.47492,-12.59027 21.42208,-23.79605 39.00962,-31.3444 9.26185,-3.97503 9.57563,-4.09982 13.16183,-5.17987 1.70704,-0.51408 3.80201,-1.22143 4.65551,-1.57155 2.4321,-0.99767 15.65596,-4.61877 22.50166,-6.16188 3.41405,-0.76957 9.17524,-2.09083 12.80264,-2.93545 3.62743,-0.84462 8.16658,-1.88197 10.08696,-2.30655 44.47351,-9.83303 72.26288,-28.55924 67.52007,-45.49883 -1.5664,-5.59465 -7.9313,-11.89483 -14.36966,-14.22569 -1.28028,-0.46347 -4.24204,-1.56757 -6.58317,-2.45201 -2.34113,-0.88447 -4.85229,-1.60792 -5.57996,-1.60792 -0.72767,0 -1.4797,-0.26188 -1.67003,-0.58195 -0.19033,-0.32006 -0.59945,-5.90665 -0.90928,-12.41469 z m 3.13096,32.58859 c 0.88445,0 1.82315,0.34918 2.08679,0.77594 0.26364,0.42675 1.07116,0.78054 1.79279,0.78347 1.97499,0.0117 8.73823,3.41376 11.57514,5.82243 2.96601,2.51829 3.9016,6.22598 2.63539,10.45219 -0.97304,3.24768 -5.70193,7.93 -12.27982,12.16008 -2.21995,1.42759 -4.22058,2.59448 -4.44639,2.59448 -0.71207,0 -1.12712,-3.22801 -1.54578,-12.02674 -0.22346,-4.69431 -0.6362,-11.24115 -0.91685,-14.54848 -0.48608,-5.73037 -0.43367,-6.01337 1.09873,-6.01337 z m -1.79282,79.53167 0.48195,11.37813 c 0.26452,6.25786 0.69778,12.24023 0.9623,13.29368 0.40371,1.60853 2.105,38.67949 2.35808,51.36823 0.0909,4.56619 1.28528,4.26087 -13.5013,3.46435 -5.76123,-0.31033 -13.15532,-0.60573 -16.43219,-0.65617 -3.94218,-0.0607 -6.32217,-0.45585 -7.03479,-1.16844 -0.88357,-0.8836 -1.08929,-7.13263 -1.14266,-34.80118 -0.0358,-18.54838 0.16188,-34.06973 0.43948,-34.4905 0.27771,-0.4208 1.37756,-1.00398 2.44444,-1.29724 1.06688,-0.29326 3.86019,-1.06811 6.20736,-1.72156 2.34714,-0.65344 5.83879,-1.50565 7.75918,-1.89282 1.92041,-0.38716 5.76119,-1.27325 8.53511,-1.97009 2.7739,-0.69685 5.91639,-1.32097 6.98327,-1.38666 z m -66.95025,19.78594 c 1.43129,0 1.49527,0.39141 1.04113,6.40132 -0.38047,5.03523 -1.95869,40.54014 -1.97921,44.5335 -0.009,1.4632 -2.3443,1.92262 -2.86575,0.56374 -0.26129,-0.68063 -0.0704,-8.09391 0.42435,-16.47462 0.49464,-8.38075 0.89553,-18.59871 0.8926,-22.70623 -0.009,-9.71585 0.51573,-12.31771 2.48688,-12.31771 z m -8.19716,5.43142 c 0.78511,0 1.04538,1.41243 1.03658,5.62541 -0.0117,5.83196 -1.14835,25.283 -1.97009,33.75248 -0.25866,2.66721 -0.70339,4.84464 -0.98961,4.83584 -0.28622,-0.009 -2.44172,-1.0726 -4.78889,-2.36565 -8.44233,-4.65087 -12.41469,-10.38368 -12.41469,-17.91734 0,-4.61463 1.56129,-8.23552 5.81938,-13.49676 2.68814,-3.32144 11.75949,-10.43398 13.30732,-10.43398 z m 45.2397,83.83409 c 2.54166,-0.13021 7.0882,-0.039 15.6002,0.17273 16.11491,0.40098 18.2336,0.60224 19.1252,1.82159 1.23876,1.69411 1.30439,4.67651 0.11965,5.40869 -0.81418,0.50318 -6.67963,1.80828 -20.45575,4.55399 -2.98727,0.59541 -6.65353,1.42448 -8.14716,1.84129 -1.49367,0.41685 -4.33213,0.95401 -6.30889,1.19419 -3.52103,0.42784 -3.60385,0.38757 -4.07356,-1.96103 -0.82483,-4.12404 -0.52588,-10.37876 0.56831,-11.87518 0.49256,-0.67365 1.03028,-1.02594 3.57194,-1.1563 z m -41.47679,1.12902 c 1.16647,0 1.56029,0.52996 1.58669,2.13075 0.0551,3.38241 -0.44259,3.17686 14.58637,6.01337 2.06658,0.39003 4.25075,1.11782 4.85402,1.6185 0.60327,0.50066 2.2301,1.17926 3.61441,1.50789 l 2.51565,0.59711 -3.10367,0.002 c -1.70701,1.2e-4 -4.15116,-0.29033 -5.43142,-0.64409 -1.28026,-0.3539 -5.81943,-1.22565 -10.08696,-1.93675 -11.33526,-1.88874 -10.5907,-1.4802 -10.32031,-5.66785 0.19531,-3.02545 0.48851,-3.62045 1.78522,-3.62045 z m 83.71283,1.21692 c 0.35323,0.003 0.82125,0.0754 1.44425,0.17273 9.68605,1.51627 20.78537,6.09718 25.66291,10.5931 6.01496,5.54442 5.52427,10.79965 -1.60035,17.13689 -2.14552,1.90839 -6.04369,4.60762 -8.66239,5.99973 l -4.76161,2.53237 -0.76075,-2.00042 c -0.41816,-1.09985 -0.76078,-6.69039 -0.76078,-12.42381 0,-12.11123 -0.13226,-12.38126 -7.21512,-14.60907 -4.41369,-1.3885 -4.42366,-1.39636 -4.42366,-4.50701 0,-2.30966 0.0176,-2.90571 1.0775,-2.89454 z m -89.32461,10.07635 c 1.90458,0.0701 4.26897,0.44951 6.45892,1.11386 2.09491,0.63549 5.22309,1.158 6.95145,1.16386 1.72836,0.006 3.47414,0.32426 3.87958,0.71075 0.4054,0.38646 3.18064,1.11656 6.16794,1.62308 2.98727,0.50649 7.17723,1.24263 9.31103,1.63519 8.6225,1.58639 11.08129,1.6339 16.76409,0.32127 3.15607,-0.72902 8.35629,-1.8042 11.55696,-2.38838 3.20068,-0.58414 8.43811,-1.63088 11.63879,-2.32623 3.20067,-0.69538 7.66427,-1.43958 9.91872,-1.65337 3.97467,-0.3771 7.04617,0.122 6.16642,1.00172 -0.46553,0.46552 -14.93292,3.54353 -25.00821,5.3208 -3.41406,0.60224 -8.65149,1.60223 -11.63879,2.22169 -9.82871,2.03804 -13.52705,2.15458 -17.07023,0.53798 -0.8535,-0.38942 -3.12308,-0.88215 -5.04346,-1.09418 -4.93505,-0.54517 -12.19847,-1.71898 -16.2943,-2.63386 -1.92039,-0.42896 -6.28492,-1.37965 -9.69898,-2.11256 -8.22786,-1.76631 -8.32053,-1.79866 -7.76222,-2.70208 0.35273,-0.57074 1.79771,-0.80966 3.70229,-0.73954 z m 94.5545,5.2147 c 0.85544,0.91562 2.25699,21.27462 2.44292,35.47858 l 0.17273,13.19063 -3.49162,0.46068 c -1.92041,0.25279 -6.28498,1.01809 -9.69901,1.70036 -3.41405,0.68227 -9.34979,1.81991 -13.1906,2.52931 -3.8408,0.7094 -8.88887,1.77731 -11.219,2.37324 -2.32961,0.59576 -5.57008,1.08334 -7.20149,1.08354 h -0.002 c -1.63112,2.9e-4 -4.13917,0.49168 -5.57389,1.09114 -1.9049,0.79596 -2.8414,0.85784 -3.4674,0.23196 -1.30046,-1.30034 -1.19298,-48.35284 0.11232,-49.16628 0.53344,-0.33247 2.71571,-0.84885 4.84948,-1.14721 2.13379,-0.29836 5.4508,-0.89195 7.37122,-1.31844 13.58668,-3.01727 38.29479,-7.15087 38.89598,-6.50742 z m -100.239,1.72613 c 0.45194,0 0.82136,0.34916 0.82136,0.77591 0,0.42675 -0.15279,0.77591 -0.34097,0.77591 -0.18827,0 -0.55925,-0.34916 -0.82289,-0.77591 -0.26364,-0.42675 -0.10939,-0.77591 0.3425,-0.77591 z m 3.51889,1.1851 c 2.42747,-0.076 6.96441,0.53194 7.7395,1.24266 0.40543,0.37174 2.22626,0.67591 4.04629,0.67591 2.51504,0 3.50752,0.37241 4.13873,1.55184 0.39966,0.74682 0.66084,1.33797 0.63802,1.43361 -2.3e-4,7.9e-4 -0.001,0.003 -0.002,0.006 l -10e-4,10e-4 -0.002,0.002 -0.002,0.002 v 10e-4 l -0.001,0.002 c -5.8e-4,2e-4 -0.003,0.001 -0.006,0.002 h -0.002 c -7e-4,-6e-5 -0.003,1.2e-4 -0.006,0 -0.002,-6.4e-4 -0.009,-0.003 -0.0117,-0.006 -0.1217,-0.0601 -1.96708,-0.33449 -4.10084,-0.61075 -2.13377,-0.27625 -4.64173,-0.9255 -5.57389,-1.44272 -0.93213,-0.51725 -2.7365,-0.9411 -4.00993,-0.9411 -2.889,0 -4.88833,-0.7321 -4.35544,-1.59429 0.12287,-0.19912 0.69722,-0.299 1.50636,-0.32428 z m -5.88304,13.01631 c 0.044,-0.003 0.0877,0.046 0.13021,0.15308 0.34077,0.85351 0.64294,7.53319 0.67285,14.84248 0.0396,9.64009 0.32092,13.50509 1.02445,14.07413 0.53344,0.43148 3.23947,1.0251 6.01337,1.31997 2.77392,0.29484 8.53511,1.41662 12.80267,2.49295 4.26756,1.07632 9.50499,2.2372 11.63878,2.57931 2.13377,0.34212 4.86353,1.00501 6.0649,1.47302 1.20134,0.46802 2.33608,0.8502 2.52172,0.8502 0.18563,0 0.36109,-4.97558 0.391,-11.05684 0.0601,-12.19551 0.90257,-16.93448 1.75188,-9.85963 0.63893,5.32116 0.53922,18.35991 -0.15924,20.85887 -0.63271,2.26412 -1.41674,2.54981 -3.97506,1.44425 -1.06688,-0.46107 -3.68564,-1.1136 -5.81941,-1.4488 -2.13376,-0.33516 -5.79996,-0.99758 -8.14713,-1.47302 -6.65839,-1.34873 -14.62479,-2.91084 -20.56185,-4.03265 l -5.43145,-1.0275 -0.25162,-6.59531 c -0.3315,-8.66703 0.57289,-24.53955 1.33361,-24.59451 z m 116.46057,36.08933 c 2.55755,0.0868 4.6646,0.37807 4.6646,0.81684 0,0.71316 -9.12325,2.85889 -16.68225,3.92354 -2.9873,0.42074 -9.27222,1.49011 -13.96653,2.37626 -4.69432,0.88612 -11.50304,2.11764 -15.13043,2.73691 -3.62743,0.61925 -9.21402,1.6766 -12.41469,2.34899 -11.87894,2.4955 -13.02913,2.39515 -39.18391,-3.4386 -10.14588,-2.26303 -14.89462,-3.18941 -20.4588,-3.99022 -2.71758,-0.39112 -5.33628,-1.0245 -5.81937,-1.40788 -0.48309,-0.38338 -2.53753,-0.93718 -4.5646,-1.23055 -2.02711,-0.29335 -3.68561,-0.8904 -3.68561,-1.32604 0,-1.20354 9.39387,-0.36883 17.84614,1.58519 4.05418,0.93726 9.11706,2.01743 11.25082,2.40049 10.21536,1.83378 23.45071,4.61976 28.07249,5.91031 3.54071,0.98864 4.69197,0.97978 9.69898,-0.0757 3.12475,-0.65878 8.29872,-1.70857 11.49937,-2.3338 3.20067,-0.62526 10.5331,-2.06024 16.29429,-3.18853 5.76119,-1.12829 13.09365,-2.50096 16.29429,-3.04912 3.20068,-0.54816 7.21606,-1.28982 8.92307,-1.64883 1.79655,-0.37784 4.80458,-0.49596 7.36214,-0.40919 z m -146.51377,3.42343 c 2.52702,-0.009 11.48696,1.3602 14.56364,2.30958 1.46452,0.45188 4.60698,1.09439 6.98327,1.42756 4.55973,0.63934 10.55911,1.76857 26.43428,4.97831 5.33444,1.07855 13.3652,2.69773 17.84611,3.59772 4.48096,0.89998 9.16035,1.94901 10.39761,2.3323 3.45807,1.07125 7.89103,0.82969 16.3716,-0.89412 4.26756,-0.86747 12.64748,-2.44251 18.62205,-3.49922 25.58239,-4.52469 33.74066,-5.94172 39.95981,-6.94236 3.62743,-0.58362 8.6289,-1.45475 11.11291,-1.93522 5.47819,-1.05961 6.73323,-0.33547 6.73323,3.88109 0,3.26379 -0.87374,4.27246 -4.26756,4.92376 -1.28026,0.24575 -8.9619,1.69373 -17.07023,3.21883 -14.99987,2.82131 -21.044,4.00673 -31.42469,6.15886 -3.20065,0.66359 -8.26353,1.57085 -11.25083,2.0171 -2.98727,0.44626 -8.05018,1.3336 -11.25083,1.97162 -3.20067,0.63802 -7.47791,1.36818 -9.50498,1.62156 l -3.68561,0.46068 v -3.57649 c 0,-3.27918 -0.17684,-3.61136 -2.1338,-4.00538 -1.1736,-0.23637 -3.18126,-0.73893 -4.46152,-1.11692 -1.28026,-0.37798 -4.24814,-0.91875 -6.59531,-1.20175 -2.34714,-0.28299 -5.98803,-1.00791 -8.09259,-1.61246 -2.10455,-0.60453 -5.0905,-1.10023 -6.63473,-1.10023 -1.54419,0 -3.13923,-0.31018 -3.54467,-0.68954 -0.71555,-0.6696 -3.75675,-1.35733 -15.86845,-3.5886 -5.63673,-1.03844 -8.40206,-1.62754 -18.23409,-3.89022 -2.56055,-0.58925 -6.22672,-1.3034 -8.14713,-1.58669 -3.60031,-0.53083 -8.20488,-2.47157 -7.51064,-3.16581 0.0625,-0.0625 0.29208,-0.0927 0.65315,-0.0938 z" /><g
       id="g291"
       inkscape:label="Smoke trails"
       transform="matrix(2.9326062,0,0,2.9326062,-707.6881,-792.05825)"><path
         style="fill:#000000"
         d="m 378.76941,345.27564 c -0.0707,-0.11439 0.46162,-0.65805 1.18292,-1.20812 4.10573,-3.13107 5.49785,-7.91297 3.50937,-12.05454 -0.94458,-1.96737 -3.97379,-4.90734 -6.18523,-6.00302 -3.85014,-1.90759 -6.08731,-2.62529 -10.30172,-3.30485 -2.68322,-0.43265 -2.60879,-0.80156 0.13229,-0.65573 5.46496,0.29074 9.00835,1.34042 13.36146,3.95815 2.95353,1.7761 5.02144,4.84283 5.60453,8.31159 0.51139,3.04224 -0.39703,5.63859 -2.8398,8.11641 -1.79685,1.82264 -4.16245,3.32775 -4.46382,2.84011 z"
         id="path262" /><path
         style="fill:#000000"
         d="m 377.82267,345.9036 c 0,-0.0728 0.0595,-0.13229 0.13229,-0.13229 0.0728,0 0.13229,0.0595 0.13229,0.13229 0,0.0728 -0.0595,0.1323 -0.13229,0.1323 -0.0728,0 -0.13229,-0.0595 -0.13229,-0.1323 z"
         id="path261" /><path
         style="fill:#000000"
         d="m 349.24766,378.57965 c -0.21828,-0.14107 -0.71075,-0.25831 -1.09437,-0.26053 -0.94306,-0.005 -4.53324,-1.23105 -6.02771,-2.05766 -3.78734,-2.09482 -5.87061,-5.72952 -5.04756,-8.80655 0.55145,-2.06165 1.25162,-3.28936 2.58985,-4.54111 1.21192,-1.13361 3.49438,-2.54979 3.49438,-2.16812 0,0.0926 -0.62508,0.84482 -1.38906,1.6715 -2.02256,2.18852 -2.65751,3.57526 -2.65751,5.80403 0,1.69775 0.0766,1.93935 1.11632,3.52077 0.66444,1.0106 1.69721,2.12237 2.55128,2.74644 1.54281,1.12733 5.03363,3.03289 5.55598,3.03289 0.17531,0 0.65978,0.17786 1.0766,0.39525 0.41681,0.21738 0.99597,0.3978 1.28701,0.40093 0.43871,0.005 0.46133,0.0495 0.13229,0.26216 -0.21828,0.14106 -0.57546,0.25648 -0.79375,0.25648 -0.21828,0 -0.57546,-0.11542 -0.79375,-0.25648 z"
         id="path259" /><path
         style="fill:#000000"
         d="m 390.08169,383.95951 c 0.097,-0.097 0.25577,-0.097 0.35278,0 0.097,0.097 0.0176,0.17639 -0.17639,0.17639 -0.19403,0 -0.2734,-0.0794 -0.17639,-0.17639 z"
         id="path246" /><path
         style="fill:#000000"
         d="m 386.55392,403.48091 c 0,-0.12878 0.31839,-0.44278 0.70755,-0.69776 1.2333,-0.80809 3.10818,-2.88644 3.70519,-4.10731 1.34793,-2.75643 1.42685,-4.72816 0.2759,-6.8926 -0.61557,-1.15762 -2.86786,-3.33537 -4.09997,-3.96429 -0.39653,-0.2024 -1.26992,-0.69717 -1.94085,-1.09949 -0.67094,-0.40231 -1.41508,-0.73148 -1.65365,-0.73148 -0.23857,0 -0.43376,-0.11906 -0.43376,-0.26458 0,-0.44772 0.9731,-0.29561 2.53892,0.39687 0.82262,0.3638 1.59139,0.66146 1.70837,0.66146 0.60046,0 3.58585,2.08483 4.59898,3.21167 2.43346,2.70659 2.62174,5.93626 0.53847,9.23638 -0.69108,1.09474 -3.03753,3.06973 -4.71573,3.96919 -1.08423,0.58111 -1.22942,0.61441 -1.22942,0.28194 z"
         id="path245" /><path
         style="fill:#000000"
         d="m 371.60496,412.40171 c 0.43656,-0.14708 1.16893,-0.43533 1.62748,-0.64057 0.45856,-0.20524 1.14317,-0.37316 1.52136,-0.37316 0.37819,0 0.68762,-0.10581 0.68762,-0.23514 0,-0.12932 0.4404,-0.31776 0.97867,-0.41874 0.53827,-0.10098 1.21961,-0.35235 1.51408,-0.55861 0.29447,-0.20626 0.75843,-0.37501 1.03102,-0.37501 0.27259,0 0.81165,-0.16844 1.1979,-0.37431 0.38626,-0.20586 1.41666,-0.63431 2.28978,-0.9521 10.35995,-3.77067 16.07124,-8.41304 16.48475,-13.39946 0.30579,-3.68744 -2.27857,-7.38653 -6.83266,-9.77982 -1.23686,-0.65001 -1.35689,-0.77518 -0.81652,-0.85157 1.00642,-0.14227 4.42014,1.77789 6.37943,3.58833 2.46937,2.28175 3.17409,3.81329 3.17191,6.89335 -0.001,1.52979 -0.13488,2.56337 -0.39687,3.06572 -0.21739,0.41682 -0.39856,0.89307 -0.40261,1.05833 -0.0139,0.56775 -2.48434,3.5389 -3.99003,4.79873 -1.69377,1.41721 -5.49802,3.47535 -8.78635,4.75351 -3.27073,1.27132 -10.10748,3.14548 -12.74855,3.49477 -0.58208,0.077 -1.17144,0.24684 -1.30968,0.37745 -0.13825,0.13062 -0.73356,0.22809 -1.32292,0.2166 l -1.07156,-0.0209 z"
         id="path244" /><path
         style="fill:#000000"
         d="m 352.22926,418.87754 c 0.25743,-0.0671 0.61462,-0.0627 0.79375,0.01 0.17913,0.0725 -0.0315,0.12736 -0.46805,0.12197 -0.43657,-0.005 -0.58313,-0.0647 -0.3257,-0.13178 z"
         id="path243" /><path
         style="fill:#000000"
         d="m 339.15285,437.38026 c -1.0177,-2.3008 -1.09464,-2.72271 -0.94303,-5.17064 0.15536,-2.50821 0.44165,-3.36215 1.79146,-5.34352 2.02051,-2.96585 5.97898,-5.82349 9.92053,-7.16169 1.86812,-0.63424 2.28175,-0.35034 0.69159,0.47467 -2.65149,1.37564 -4.42299,2.70003 -6.82752,5.1043 -2.49283,2.49257 -3.10233,3.41034 -4.04384,6.08909 -0.74537,2.12071 -0.7155,3.64046 0.12591,6.4077 0.29533,0.97126 -0.24135,0.67113 -0.7151,-0.39991 z"
         id="path242" /><path
         style="fill:#000000"
         d="m 339.98725,438.77235 c 0,-0.0728 0.0595,-0.13229 0.13229,-0.13229 0.0728,0 0.13229,0.0595 0.13229,0.13229 0,0.0728 -0.0595,0.13229 -0.13229,0.13229 -0.0728,0 -0.13229,-0.0595 -0.13229,-0.13229 z"
         id="path241" /><path
         style="fill:#000000"
         d="m 352.02579,449.83154 c -4.13189,-0.64888 -7.54354,-1.38714 -7.92427,-1.71477 -0.13825,-0.11896 -0.41669,-0.21629 -0.61876,-0.21629 -0.7385,0 -5.27221,-2.36657 -6.53879,-3.41321 -4.56585,-3.773 -6.44087,-9.56084 -4.80981,-14.84699 0.79203,-2.56692 2.16562,-4.69968 4.51352,-7.00812 2.91784,-2.8688 6.94479,-5.28405 11.01248,-6.60497 0.80037,-0.25991 1.72871,-0.57662 2.06297,-0.7038 0.33427,-0.12718 0.92959,-0.21909 1.32292,-0.20423 0.66745,0.0252 0.65339,0.0464 -0.21089,0.31831 -0.50932,0.16022 -1.08337,0.44572 -1.27566,0.63445 -0.1923,0.18873 -0.52368,0.34314 -0.7364,0.34314 -1.02248,0 -5.8604,2.92374 -8.7157,5.26722 -5.06076,4.15362 -7.19383,9.64057 -5.67581,14.60004 1.08584,3.54751 2.8896,5.84861 6.25088,7.97441 3.07899,1.94726 4.51795,2.50846 10.28499,4.01116 1.49907,0.39061 5.19335,0.97481 8.73125,1.38073 1.16264,0.13339 1.44588,0.2375 1.05833,0.38903 -0.83951,0.32822 -6.12294,0.2035 -8.73125,-0.20611 z"
         id="path240" /><path
         style="fill:#000000"
         d="m 393.03621,470.94543 c 2.97482,-1.90751 4.65679,-3.44761 5.54256,-5.07506 0.98395,-1.80784 1.11318,-4.77387 0.28149,-6.46052 -1.07174,-2.17344 -4.91824,-5.24336 -7.94072,-6.33754 -0.7276,-0.2634 -1.43603,-0.58232 -1.57427,-0.70871 -0.13825,-0.12638 -0.56197,-0.22979 -0.94162,-0.22979 -0.37964,0 -0.92138,-0.17481 -1.20385,-0.38846 -0.28248,-0.21365 -0.89352,-0.39225 -1.35787,-0.39687 -0.46436,-0.005 -0.91839,-0.12832 -1.00896,-0.27487 -0.32042,-0.51845 0.72811,-0.59585 2.26889,-0.16747 0.8584,0.23866 1.80805,0.43392 2.11032,0.43392 0.81738,0 3.01081,0.7137 5.53749,1.80178 6.26536,2.69811 8.61132,8.8134 5.26283,13.7188 -1.33792,1.96001 -4.65282,4.28339 -6.95031,4.8714 -0.45085,0.11539 -1.11739,0.29098 -1.48119,0.39021 -0.3638,0.0992 0.29104,-0.43034 1.45521,-1.17682 z"
         id="path239" /><path
         id="path233"
         style="fill:#000000"
         d="m 368.82683,478.52948 c 0,-0.28179 0.40848,-0.45329 1.38907,-0.58318 0.76398,-0.10121 2.2225,-0.29558 3.24114,-0.43194 3.37792,-0.45219 5.59255,-0.56577 5.15938,-0.26459 -0.21829,0.15176 -0.99814,0.27776 -1.73303,0.27999 -0.73488,0.002 -1.45552,0.12343 -1.60142,0.26933 -0.14591,0.14591 -1.09245,0.37568 -2.10344,0.5106 -1.01099,0.13493 -2.4037,0.32939 -3.09493,0.43214 -1.02651,0.15259 -1.25677,0.11369 -1.25677,-0.21235 z m 0.15288,-5.09671 c -0.13419,-0.72761 -0.25325,-3.04869 -0.26458,-5.15797 l -0.0206,-3.83506 1.05833,-0.18748 c 3.82602,-0.67776 6.1186,-0.93954 6.47502,-0.73936 0.48914,0.27473 0.21165,0.39671 -1.44793,0.63652 -1.13161,0.16351 -2.8609,0.51087 -4.36563,0.87691 l -0.92604,0.22527 -0.13229,4.75204 c -0.10985,3.94582 -0.17369,4.5276 -0.37629,3.42913 z m 13.47039,-8.40247 c -0.14705,-1.12886 -0.1896,-2.25996 -0.0945,-2.51355 0.32366,-0.8635 0.52264,0.25489 0.43995,2.47274 l -0.078,2.09328 z m -4.95816,-1.97072 c 0.32742,-0.0631 0.8632,-0.0631 1.19062,0 0.32742,0.0631 0.0595,0.11467 -0.59531,0.11467 -0.65484,0 -0.92274,-0.0516 -0.59531,-0.11467 z" /></g></g></svg>
