<?xml version="1.0" encoding="UTF-8" standalone="no"?>
<!-- Created with Inkscape (http://www.inkscape.org/) -->

<svg
   width="119.1364mm"
   height="119.1333mm"
   viewBox="0 0 119.1364 119.1333"
   version="1.1"
   id="svg1"
   xml:space="preserve"
   sodipodi:docname="favicon-light.svg"
   inkscape:version="1.4.2 (f4327f4, 2025-05-13)"
   inkscape:export-filename="..\Favicons\ObeliskSilhouette.png"
   inkscape:export-xdpi="639.60303"
   inkscape:export-ydpi="639.60303"
   xmlns:inkscape="http://www.inkscape.org/namespaces/inkscape"
   xmlns:sodipodi="http://sodipodi.sourceforge.net/DTD/sodipodi-0.dtd"
   xmlns="http://www.w3.org/2000/svg"
   xmlns:svg="http://www.w3.org/2000/svg"><sodipodi:namedview
     id="namedview1"
     pagecolor="#2887ff"
     bordercolor="#000000"
     borderopacity="0.25"
     inkscape:showpageshadow="2"
     inkscape:pageopacity="0.0"
     inkscape:pagecheckerboard="0"
     inkscape:deskcolor="#d1d1d1"
     inkscape:document-units="mm"
     inkscape:zoom="1.4378367"
     inkscape:cx="161.35351"
     inkscape:cy="238.90056"
     inkscape:window-width="1920"
     inkscape:window-height="1009"
     inkscape:window-x="-8"
     inkscape:window-y="-8"
     inkscape:window-maximized="1"
     inkscape:current-layer="layer1"
     showgrid="false" /><defs
     id="defs1" /><g
     inkscape:label="Layer 1"
     inkscape:groupmode="layer"
     id="layer1"
     transform="translate(-45.302144,-89.35837)"><path
       id="path1"
       style="fill:#ffffff"
       d="m 102.92292,89.35837 -3.307295,0.318327 -3.307292,0.318327 -3.070613,0.644921 -3.070614,0.644922 -3.014803,0.947746 -3.014803,0.947746 -2.645833,1.148767 -2.645834,1.14825 -2.461865,1.342037 -2.461865,1.34152 -2.168343,1.444873 -2.168343,1.444874 -2.116667,1.69705 -2.116667,1.69757 -2.479952,2.47996 -2.479952,2.47995 -1.708939,2.11666 -1.709457,2.11667 -1.85415,2.77813 -1.85415,2.77812 -1.817977,3.70417 -1.818494,3.70416 -1.032495,3.04271 -1.033012,3.04271 -0.550354,2.38125 -0.549837,2.38125 -0.414445,2.77813 -0.414962,2.77812 -0.165881,3.70417 -0.165882,3.70416 0.31626,3.57188 0.315743,3.57187 0.66921,3.43959 0.669726,3.43958 1.170472,3.55844 1.170988,3.55844 1.686718,3.45302 1.687236,3.45302 1.920296,2.91041 1.920813,2.91042 1.512053,1.85208 1.512569,1.85209 1.88774,2.02106 1.88774,2.02159 2.667537,2.21175 2.667021,2.21226 2.691825,1.80765 2.691826,1.80712 2.235522,1.21957 2.235523,1.21904 3.029272,1.28364 3.029273,1.28416 2.937288,0.88315 2.937288,0.88315 2.910417,0.56741 2.910417,0.56689 1.984375,0.22428 1.984378,0.22376 4.04523,0.0346 4.04523,0.0341 2.56935,-0.27854 2.56935,-0.27905 3.30729,-0.67231 3.3073,-0.67283 3.175,-1.03921 3.175,-1.03922 3.53415,-1.71255 3.53363,-1.71308 2.2872,-1.38079 2.28668,-1.38079 3.04271,-2.29444 3.04271,-2.29443 3.06286,-3.13883 3.06286,-3.13831 1.911,-2.57969 1.91099,-2.57917 1.35703,-2.18333 1.35702,-2.18281 1.64641,-3.43958 1.64693,-3.43959 1.05988,-3.175 1.05937,-3.175 0.54312,-2.52387 0.5426,-2.52388 0.40824,-3.11195 0.40773,-3.11196 v -4.33875 -4.33875 l -0.40773,-3.11196 -0.40824,-3.11195 -0.54364,-2.52388 -0.54363,-2.52388 -1.156,-3.5233 -1.156,-3.5233 -1.70946,-3.48867 -1.70946,-3.48868 -2.10788,-3.17448 -2.1084,-3.17449 -2.13423,-2.54609 -2.13424,-2.5461 -2.32544,-2.17971 -2.32544,-2.17971 -2.52388,-1.90428 -2.52439,-1.904794 -2.50269,-1.551844 -2.50321,-1.55236 -2.91041,-1.37976 -2.91042,-1.379244 -2.64583,-0.987537 -2.64584,-0.98702 -2.93677,-0.744657 -2.93677,-0.744141 -2.75177,-0.421163 -2.75177,-0.421163 -4.10104,-0.160713 z m 1.73064,5.900415 0.31471,0.393258 2.66082,4.495847 2.71766,5.04569 0.39739,6.12882 0.3974,6.12883 1.52704,22.13146 1.52652,22.13199 0.69246,11.06547 0.69298,11.06599 0.17312,1.10691 0.1726,1.10639 h 0.50384 0.50385 l 0.32349,0.85112 0.3235,0.85111 h 1.82469 1.82418 l 0.19017,0.19017 0.18965,0.18965 -0.17156,0.65784 -0.17209,0.65732 -1.1529,0.71262 -1.1529,0.71262 v 2.66237 2.66185 l 1.27641,0.29817 1.27692,0.29818 0.32815,0.73845 0.32814,0.73846 0.77825,0.19585 0.77876,0.19534 v 1.52549 1.52549 l -15.74735,0.003 -15.74788,0.001 -2.916101,0.0145 -3.042192,0.001 v -1.58491 -1.45159 l 0.751892,-0.10852 0.752409,-0.10904 0.198954,-0.85111 0.199471,-0.85111 1.39113,-0.29507 1.391129,-0.29559 0.211357,-1.53996 0.21084,-1.53944 v -0.9772 -0.97721 l -1.348755,-0.93327 -1.349272,-0.93328 -0.01292,-0.76584 -0.01292,-0.76636 h 1.679484 1.679484 l 0.242879,-0.76482 0.242363,-0.76481 0.482658,-0.35295 0.482658,-0.35243 0.489375,-6.79907 0.489376,-6.79855 1.521354,-21.6209 1.521871,-21.6209 0.372587,-5.61827 0.372071,-5.61774 0.465604,-6.23063 0.465605,-6.23063 2.614309,-4.66483 2.59674,-4.683433 z" /></g></svg>
