<?xml version="1.0" encoding="UTF-8" standalone="no"?>
<!-- Created with Inkscape (http://www.inkscape.org/) -->

<svg
   width="270.93332mm"
   height="270.93332mm"
   viewBox="0 0 270.93332 270.93332"
   version="1.1"
   id="svg1"
   xml:space="preserve"
   inkscape:version="1.4.2 (f4327f4, 2025-05-13)"
   sodipodi:docname="DicksonObeliskReimagined.svg"
   inkscape:export-filename="..\DicksonObeliskReimagined.png"
   inkscape:export-xdpi="96"
   inkscape:export-ydpi="96"
   xmlns:inkscape="http://www.inkscape.org/namespaces/inkscape"
   xmlns:sodipodi="http://sodipodi.sourceforge.net/DTD/sodipodi-0.dtd"
   xmlns="http://www.w3.org/2000/svg"
   xmlns:svg="http://www.w3.org/2000/svg"><sodipodi:namedview
     id="namedview1"
     pagecolor="#ffffff"
     bordercolor="#000000"
     borderopacity="0.25"
     inkscape:showpageshadow="2"
     inkscape:pageopacity="0.0"
     inkscape:pagecheckerboard="0"
     inkscape:deskcolor="#d1d1d1"
     inkscape:document-units="mm"
     inkscape:zoom="0.71891835"
     inkscape:cx="511.8801"
     inkscape:cy="512.57559"
     inkscape:window-width="1920"
     inkscape:window-height="1009"
     inkscape:window-x="-8"
     inkscape:window-y="-8"
     inkscape:window-maximized="1"
     inkscape:current-layer="layer2" /><defs
     id="defs1" /><g
     inkscape:groupmode="layer"
     id="layer2"
     inkscape:label="Layer 2"
     style="fill:#ffffff"><ellipse
       style="fill:#ffffff;stroke-width:1.4837"
       id="path2"
       cx="135.27789"
       cy="134.31438"
       rx="130.12547"
       ry="131.03506" /></g><g
     inkscape:label="Layer 1"
     inkscape:groupmode="layer"
     id="layer1"
     transform="translate(30.69166,-12.96459)"><path
       style="fill:#000000"
       d="m 92.207292,283.49412 c -1.018646,-0.19262 -4.054739,-0.60649 -6.746875,-0.91973 -2.692135,-0.31323 -5.371041,-0.67474 -5.953124,-0.80334 -0.582084,-0.12861 -2.30849,-0.48828 -3.836459,-0.79928 -1.527968,-0.31101 -3.373437,-0.72937 -4.101041,-0.92972 -1.151358,-0.31701 -4.178053,-1.10324 -7.6625,-1.99045 -0.576354,-0.14675 -1.171666,-0.36899 -1.322916,-0.49387 -0.15125,-0.12488 -0.7228,-0.31073 -1.27011,-0.41301 -0.54731,-0.10228 -1.060353,-0.29153 -1.140094,-0.42055 -0.07974,-0.12903 -0.328323,-0.23459 -0.552404,-0.23459 -0.224081,0 -0.782601,-0.1641 -1.241156,-0.36465 -0.458555,-0.20056 -1.429048,-0.56699 -2.156652,-0.8143 -0.727605,-0.24731 -1.620573,-0.57616 -1.984375,-0.73078 -0.883592,-0.37554 -2.100093,-0.88392 -2.910417,-1.21628 -2.290224,-0.93936 -9.149231,-4.271 -11.377083,-5.52622 -0.509323,-0.28696 -1.597292,-0.89454 -2.417709,-1.35016 -0.820417,-0.45563 -2.643302,-1.54664 -4.050856,-2.42447 -1.407554,-0.87783 -2.616563,-1.59606 -2.686687,-1.59606 -0.07012,0 -0.271301,-0.12048 -0.44706,-0.26774 -0.175759,-0.14726 -2.090133,-1.51726 -4.254164,-3.04444 -2.164031,-1.52719 -5.373908,-3.93678 -7.13306,-5.35466 -7.34118,-5.91698 -16.8447901,-15.66534 -22.0172703,-22.5843 -0.2844322,-0.38047 -1.1843695,-1.57619 -1.9998607,-2.65716 -0.8154913,-1.08098 -1.6183835,-2.21892 -1.7842049,-2.52876 -0.1658215,-0.30984 -0.4582614,-0.72145 -0.6498666,-0.9147 -0.512045,-0.51644 -4.6821755,-7.08887 -4.6821755,-7.37945 0,-0.13638 -0.105176,-0.24795 -0.233724,-0.24795 -0.128549,0 -0.301912,-0.20836 -0.385252,-0.46302 -0.08334,-0.25467 -0.435507,-0.93928 -0.782592,-1.52136 -0.560531,-0.94004 -1.655272,-2.93377 -2.905612,-5.29167 -0.387546,-0.73083 -0.81424,-1.64333 -3.031179,-6.48229 -0.433352,-0.94588 -1.173041,-2.67229 -1.643753,-3.83645 -0.470713,-1.16417 -1.023552,-2.50766 -1.228531,-2.98554 -0.204979,-0.47788 -0.372689,-0.99567 -0.372689,-1.15064 0,-0.15497 -0.16439,-0.65695 -0.36531,-1.1155 -0.479647,-1.09469 -2.099923,-5.96435 -2.654341,-7.97749 -0.240458,-0.87313 -0.543077,-1.94469 -0.672487,-2.38125 -0.12941,-0.43656 -0.486806,-1.86531 -0.794213,-3.175 -0.307408,-1.30969 -0.673168,-2.8575 -0.812801,-3.43958 -0.139632,-0.58209 -0.490786,-2.30849 -0.780342,-3.83646 -0.289556,-1.52797 -0.644781,-3.37344 -0.789389,-4.10104 -0.780733,-3.92832 -0.936198,-7.52707 -0.931542,-21.56354 0.0046,-13.79818 0.152527,-17.35339 0.875341,-21.03438 0.142875,-0.7276 0.458843,-2.51354 0.702151,-3.96875 0.243307,-1.45521 0.596381,-3.24114 0.784608,-3.96875 0.188226,-0.7276 0.545386,-2.27541 0.793689,-3.43958 0.248302,-1.16417 0.573162,-2.47385 0.721911,-2.91042 0.148748,-0.43656 0.372269,-1.21047 0.496712,-1.71979 0.581271,-2.37904 1.116017,-4.12318 1.334425,-4.35239 0.131727,-0.13825 0.239504,-0.46163 0.239504,-0.71863 0,-0.257 0.164912,-0.85827 0.36647,-1.33615 0.201559,-0.47788 0.627996,-1.58324 0.947639,-2.45637 1.402046,-3.829776 2.861045,-7.497907 3.209759,-8.069791 0.1331,-0.218281 0.308362,-0.575469 0.389472,-0.79375 0.290804,-0.782612 2.662475,-5.933603 3.045553,-6.614583 0.122792,-0.218281 0.495633,-0.929831 0.828537,-1.581221 0.332903,-0.651391 1.190759,-2.199203 1.906348,-3.439583 0.715588,-1.240381 1.549025,-2.691917 1.852083,-3.225637 0.790582,-1.392308 4.2485397,-6.732103 5.3684696,-8.290016 C -0.08549923,61.05682 7.0972292,53.134785 15.62518,45.632722 22.320529,39.742805 33.410413,32.127077 40.613545,28.472526 c 0.873125,-0.442985 1.627187,-0.898805 1.675694,-1.012932 0.04851,-0.114128 0.200385,-0.207505 0.337507,-0.207505 0.137121,0 1.407121,-0.546309 2.822222,-1.214019 1.4151,-0.667711 2.930097,-1.3732 3.36666,-1.567754 5.33249,-2.376418 5.588823,-2.477118 13.603917,-5.344286 4.549432,-1.627428 13.921238,-3.84572 20.263305,-4.796294 2.036985,-0.305311 4.537046,-0.698602 5.555692,-0.87398 1.293152,-0.222638 6.163839,-0.316728 16.139578,-0.311777 14.32243,0.0071 17.75676,0.178243 22.40247,1.116329 0.77552,0.156597 2.4816,0.469683 3.79128,0.695747 3.0759,0.530929 5.44647,1.080369 10.31875,2.391634 2.45316,0.660212 5.81456,1.645164 6.74688,1.976962 2.20069,0.783189 2.93375,1.053411 5.68854,2.096922 1.60073,0.606355 3.2676,1.260772 3.70417,1.45426 0.43656,0.193488 1.0914,0.477308 1.4552,0.63071 0.55288,0.233127 2.79178,1.280692 7.80521,3.651992 0.86817,0.410636 3.3593,1.755242 5.02708,2.713407 0.58209,0.334415 1.53459,0.86402 2.11667,1.1769 0.58208,0.31288 1.11787,0.640345 1.19063,0.7277 0.0728,0.08736 0.42786,0.314718 0.78911,0.50525 0.95154,0.501862 8.10022,5.222625 8.51629,5.623895 0.19354,0.186652 1.24486,0.981885 2.33626,1.767185 5.8809,4.231478 15.41882,13.007059 20.40204,18.771342 0.92987,1.075618 1.8121,2.087649 1.96051,2.248958 1.89932,2.064344 8.14022,10.53838 10.52872,14.29614 3.98859,6.275116 9.20871,16.231504 11.17754,21.319024 0.25342,0.654843 0.56192,1.303734 0.68556,1.441979 0.12364,0.138245 0.22553,0.435901 0.22643,0.661458 8.9e-4,0.225557 0.17949,0.751136 0.39687,1.167952 0.21739,0.416816 0.39525,0.875075 0.39525,1.018345 0,0.14328 0.16511,0.63568 0.36691,1.09424 0.4259,0.96779 1.67986,4.72048 2.53305,7.58061 0.32557,1.0914 0.75459,2.52015 0.95338,3.175 0.1988,0.65484 0.54957,2.08359 0.7795,3.175 0.22994,1.0914 0.58108,2.63922 0.78032,3.43958 0.19924,0.80037 0.55359,2.5863 0.78744,3.96875 0.23385,1.38245 0.59795,3.52557 0.80911,4.7625 0.84804,4.96762 1.06008,9.14846 1.06008,20.90208 0,9.70003 -0.0819,12.40313 -0.46492,15.34584 -0.88555,6.80351 -1.59662,11.20354 -2.18067,13.49374 -0.20411,0.80037 -0.56154,2.28865 -0.79429,3.3073 -0.23275,1.01864 -0.59405,2.44739 -0.80289,3.175 -0.20884,0.7276 -0.62882,2.21588 -0.93327,3.30729 -0.30446,1.0914 -0.656,2.2225 -0.7812,2.51354 -0.1252,0.29104 -0.52984,1.42213 -0.8992,2.51354 -1.37556,4.06461 -2.98166,8.23512 -4.17762,10.84792 -1.07584,2.35037 -3.14439,6.75463 -3.3552,7.14375 -0.11826,0.21828 -0.63671,1.17078 -1.1521,2.11666 -0.5154,0.94589 -1.16143,2.13651 -1.43563,2.64584 -0.2742,0.50932 -0.68642,1.22369 -0.91604,1.5875 -0.22962,0.3638 -1.23791,1.97114 -2.24063,3.57187 -7.27151,11.60806 -17.98468,23.94772 -27.75592,31.96989 -2.62777,2.15739 -7.0739,5.5997 -9.12813,7.06723 -2.6175,1.86992 -10.43027,6.86809 -10.73571,6.86809 -0.0964,0 -0.84569,0.40391 -1.66509,0.89758 -2.1567,1.29936 -7.16097,3.82641 -10.22107,5.16142 -1.45521,0.63486 -3.12208,1.36239 -3.70417,1.61675 -2.03571,0.88954 -3.71787,1.54557 -5.42396,2.1153 -0.94588,0.31587 -2.09497,0.74242 -2.55352,0.94788 -0.45856,0.20546 -1.03193,0.37357 -1.27417,0.37357 -0.24223,0 -0.67994,0.12818 -0.97268,0.28485 -0.50182,0.26856 -1.2285,0.49278 -4.72463,1.45773 -2.74575,0.75786 -4.37062,1.15065 -7.54062,1.82286 -1.74625,0.3703 -3.94891,0.84154 -4.89479,1.0472 -0.94589,0.20566 -3.50573,0.56491 -5.68854,0.79833 -2.18282,0.23341 -4.68313,0.55858 -5.55625,0.72259 -2.4473,0.45969 -23.573703,0.52262 -25.929168,0.0772 z m 25.796878,-6.87302 c 2.25557,-0.23219 4.79526,-0.5949 5.64376,-0.80601 0.8485,-0.21112 1.93749,-0.38385 2.41999,-0.38385 0.77286,0 2.00773,-0.23678 8.34041,-1.59926 0.80037,-0.1722 2.88396,-0.72961 4.63021,-1.23869 1.74625,-0.50908 3.71078,-1.07657 4.36562,-1.26109 7.22045,-2.03456 19.26482,-7.44012 27.11979,-12.17147 6.36938,-3.83652 12.96648,-8.55965 18.25625,-13.07038 2.48524,-2.11923 9.71307,-9.19613 11.78357,-11.53751 6.3015,-7.12591 12.21328,-15.27524 16.16552,-22.28404 2.69347,-4.77652 3.94502,-7.22448 5.51582,-10.78859 0.32067,-0.72761 0.86967,-1.94063 1.22,-2.6956 0.35033,-0.75497 0.64101,-1.46935 0.64594,-1.5875 0.005,-0.11815 0.23903,-0.69107 0.52019,-1.27315 0.28117,-0.58209 0.51525,-1.24288 0.52019,-1.46844 0.005,-0.22556 0.11698,-0.52322 0.24898,-0.66146 0.13199,-0.13825 0.36412,-0.66807 0.51583,-1.1774 0.15171,-0.50932 0.53127,-1.64041 0.84347,-2.51354 0.6137,-1.71634 0.83696,-2.44564 2.10584,-6.87916 2.59747,-9.07559 4.26809,-18.71389 4.63193,-26.72292 0.0793,-1.74625 0.20166,-4.25332 0.27183,-5.57126 0.28355,-5.32522 -0.5598,-16.53808 -1.85952,-24.72353 -0.52694,-3.31863 -1.53055,-7.94745 -2.38069,-10.98021 -0.24475,-0.87312 -0.67669,-2.42093 -0.95985,-3.43958 -0.83117,-2.99 -1.78691,-5.93424 -2.31897,-7.14375 -0.12802,-0.29104 -0.41409,-1.00542 -0.63571,-1.5875 -3.54812,-9.319355 -7.9286,-17.835749 -13.41532,-26.081658 -3.1422,-4.722364 -6.32289,-8.900282 -10.15684,-13.341256 -2.72952,-3.161692 -10.51606,-10.837517 -13.52679,-13.334473 -1.45521,-1.206878 -2.90993,-2.416965 -3.23272,-2.689082 -0.32279,-0.272116 -1.45389,-1.121047 -2.51354,-1.886513 -1.05966,-0.765466 -2.09465,-1.554121 -2.29999,-1.752566 -0.43607,-0.421451 -9.22713,-6.232149 -9.81312,-6.486262 -0.21829,-0.09466 -1.17079,-0.640027 -2.11667,-1.211935 -3.28211,-1.984451 -12.54004,-6.442184 -16.93333,-8.153471 -1.87287,-0.729526 -11.27368,-3.859191 -12.17084,-4.051848 -0.50932,-0.109373 -2.11666,-0.491397 -3.57187,-0.848943 -5.19688,-1.276878 -10.32379,-2.281103 -13.22917,-2.591244 -1.16416,-0.124271 -3.78354,-0.420254 -5.82083,-0.657739 -6.13943,-0.715668 -20.591228,-0.619703 -26.193748,0.173936 -1.018646,0.144299 -2.804583,0.372833 -3.96875,0.507854 -4.302271,0.498982 -11.886416,2.044354 -16.801041,3.42344 -2.605941,0.73125 -8.334591,2.553316 -9.591145,3.050579 -0.545703,0.215954 -1.498203,0.586225 -2.116666,0.822825 -0.618464,0.2366 -1.481667,0.584965 -1.918229,0.774145 -0.436563,0.189181 -1.27,0.543565 -1.852084,0.787521 -3.998588,1.675842 -9.933831,4.643742 -13.890624,6.945965 -12.506726,7.276919 -23.044656,15.830669 -32.4310505,26.324628 -1.7930316,2.004604 -3.8259134,4.385854 -4.5175151,5.291667 -3.75098205,4.91278 -4.8542283,6.438198 -6.836187,9.45214 -3.7957025,5.772082 -7.3719614,12.319568 -10.3329164,18.917707 -3.978291,8.865153 -7.70536,21.213923 -9.023704,29.897913 -1.503538,9.90388 -1.531829,10.30622 -1.534901,21.82813 -0.003,11.27742 0.173738,14.01298 1.333395,20.6375 1.191902,6.80871 3.09612,14.62948 4.606124,18.9177 0.307452,0.87313 0.662014,1.94469 0.787915,2.38125 0.363572,1.26069 1.586885,4.68696 1.9838,5.55625 0.199332,0.43656 0.623148,1.4486 0.941813,2.24896 1.572962,3.95068 6.1060952,12.95149 8.0977554,16.07857 0.4883857,0.76681 0.887974,1.44794 0.887974,1.51362 0,0.0657 0.3448861,0.62892 0.7664134,1.25164 0.4215274,0.62271 1.3903456,2.08471 2.1529294,3.24888 7.8059394,11.91661 21.0293778,25.45066 32.7016338,33.46979 3.488991,2.39702 8.155466,5.39222 10.416521,6.6859 6.586384,3.76844 14.882195,7.58913 20.902082,9.6266 1.091406,0.36939 2.359556,0.83878 2.818111,1.0431 0.458555,0.20431 0.990356,0.37148 1.18178,0.37148 0.191423,0 0.828273,0.16991 1.415222,0.37758 3.028245,1.07144 13.168462,3.45656 15.883844,3.7361 0.873125,0.0899 2.361407,0.32595 3.307292,0.52459 1.67951,0.3527 8.739569,1.10127 12.170833,1.29046 3.727983,0.20555 15.964353,-0.10618 19.843753,-0.50554 z M 92.075,273.65296 c -0.654843,-0.059 -1.303734,-0.21875 -1.441979,-0.35509 -0.138245,-0.13633 -1.173015,-0.24788 -2.299489,-0.24788 -1.126474,0 -2.122378,-0.12012 -2.21312,-0.26695 -0.315429,-0.51037 0.155088,-1.32055 0.766923,-1.32055 1.089409,0 1.778792,-1.09061 2.035816,-3.22069 0.128661,-1.06627 0.418999,-3.06978 0.645195,-4.45222 0.226197,-1.38245 0.436245,-2.80239 0.466773,-3.15542 l 0.05551,-0.64188 -2.910416,-0.0251 c -2.583138,-0.0223 -3.040764,-0.0989 -4.069567,-0.68104 -1.577326,-0.8925 -3.066601,-2.65089 -3.472235,-4.09968 -0.212403,-0.75862 -0.287558,-2.05013 -0.204287,-3.51058 0.213606,-3.74632 1.775887,-6.10725 5.121165,-7.73914 1.317518,-0.64271 1.939588,-0.78347 3.439583,-0.7783 1.007146,0.003 2.307424,0.13486 2.889507,0.29197 0.582084,0.15711 2.10013,0.40939 3.373438,0.56063 2.547168,0.30254 2.639762,0.39905 1.806407,1.88277 -0.279783,0.49813 -0.592458,1.48401 -0.694834,2.19086 -0.102375,0.70684 -0.275489,1.40423 -0.384697,1.54975 -0.109208,0.14552 -0.278713,0.97896 -0.376678,1.85208 -0.224014,1.99656 -0.882331,6.68347 -1.207798,8.59896 -0.135993,0.80036 -0.316215,2.40771 -0.400495,3.57188 -0.08428,1.16416 -0.267287,2.76361 -0.406685,3.55432 -0.139397,0.79071 -0.253449,2.06914 -0.253449,2.84095 0,1.35308 0.03847,1.42758 1.07506,2.08195 0.691181,0.43632 1.044504,0.83904 0.989485,1.1278 -0.09278,0.48697 -0.500326,0.55532 -2.329129,0.39065 z m -2.379976,-15.55258 c 0.580726,-0.30031 0.804813,-0.64004 0.916214,-1.38907 0.08111,-0.54534 0.25945,-1.7059 0.396315,-2.57902 0.136866,-0.87313 0.317621,-2.18282 0.401677,-2.91042 0.08406,-0.7276 0.28106,-1.89239 0.437784,-2.58842 0.521864,-2.31763 -0.629085,-3.61463 -3.266227,-3.68068 -2.277504,-0.057 -4.047974,1.20834 -5.137452,3.67185 -0.501339,1.13361 -0.628751,1.87806 -0.628751,3.67367 0,2.59447 0.509492,3.90549 2.075142,5.33972 0.835443,0.76533 1.109041,0.8599 2.487618,0.8599 0.860484,0 1.890617,-0.17669 2.31768,-0.39753 z m 26.325356,3.42029 c -1.70528,-0.88916 -2.37621,-2.00493 -2.66214,-4.42721 -0.0892,-0.75552 -0.33049,-2.30956 -0.53624,-3.45342 -0.20575,-1.14386 -0.37408,-2.61378 -0.37408,-3.26647 0,-1.44815 -0.64845,-2.62116 -1.64009,-2.96684 -0.91904,-0.32038 -1.01047,-1.21988 -0.14585,-1.43496 1.27377,-0.31686 4.05332,-0.45215 4.40315,-0.21431 0.24925,0.16945 0.44283,1.17842 0.599,3.12197 0.40949,5.09629 0.98033,8.64264 1.50564,9.3539 0.6888,0.93261 1.62085,1.35784 2.60246,1.18732 1.06888,-0.18567 3.19537,-1.3652 3.49709,-1.93978 0.25365,-0.48306 -0.0396,-5.45678 -0.49299,-8.36183 -0.32538,-2.08474 -0.72427,-2.66859 -1.98475,-2.90505 -0.48519,-0.091 -1.03272,-0.34692 -1.21675,-0.56865 -0.62043,-0.74758 0.22095,-1.12245 2.96168,-1.31954 l 2.54798,-0.18323 0.28746,0.89381 c 0.1581,0.4916 0.41077,2.20351 0.56149,3.80424 0.42711,4.53633 0.94425,8.45158 1.16305,8.80561 0.10963,0.17738 0.3577,0.32251 0.55127,0.32251 0.19357,0 0.63303,0.23813 0.97657,0.52917 l 0.62463,0.52917 -0.60672,0.51466 c -0.33369,0.28307 -1.13883,0.59446 -1.78919,0.69199 -0.65036,0.0975 -1.24757,0.28265 -1.32713,0.41138 -0.29512,0.47752 -1.30237,0.21135 -1.86772,-0.49355 l -0.58356,-0.72761 -0.7493,0.70051 c -1.84689,1.72664 -4.5312,2.32107 -6.30496,1.39621 z m -54.372461,-6.43474 c -1.330136,-0.70298 -3.050072,-1.41914 -4.346723,-1.80994 -1.70563,-0.51406 -1.494644,-1.64467 0.308508,-1.65319 0.708916,-0.003 0.971174,-0.18559 1.521354,-1.05713 0.365627,-0.57919 0.664777,-1.12048 0.664777,-1.20286 0,-0.0824 0.397666,-1.00748 0.883701,-2.05578 0.486036,-1.0483 1.10636,-2.53522 1.378499,-3.30428 l 0.494799,-1.39828 -0.639532,-1.17072 c -0.351743,-0.64389 -0.55541,-1.25484 -0.452595,-1.35765 0.294753,-0.29476 5.040457,-0.41244 5.452831,-0.13522 0.367776,0.24723 0.09203,1.00641 -2.375331,6.53981 -1.539941,3.45352 -2.388528,6.06626 -2.171242,6.6851 0.08446,0.24053 0.389002,0.69916 0.67677,1.01918 0.540916,0.60154 0.465492,1.40713 -0.130742,1.39645 -0.186468,-0.003 -0.755752,-0.22632 -1.265074,-0.49549 z m 83.966441,-0.16551 c -0.0906,-0.23601 0.13174,-0.68869 0.53747,-1.09441 0.38055,-0.38056 0.69192,-0.99027 0.69192,-1.35492 0,-0.70898 -0.92544,-4.15569 -1.2968,-4.82978 -0.12288,-0.22306 -0.30725,-0.78724 -0.40971,-1.25374 -0.10246,-0.46649 -0.29619,-0.9161 -0.43052,-0.99911 -0.13432,-0.083 -0.24422,-0.36129 -0.24422,-0.61838 0,-0.72595 -1.12431,-1.618 -2.03927,-1.618 -1.40137,0 -1.21943,-0.62994 0.79867,-2.76535 1.84862,-1.95608 1.91878,-2.00083 2.49737,-1.59301 0.32742,0.23079 0.59531,0.5873 0.59531,0.79224 0,0.37389 0.62775,2.44358 1.0415,3.43383 0.12161,0.29104 0.37518,1.06494 0.5635,1.71979 0.18832,0.65484 0.4236,1.30969 0.52284,1.45521 0.0993,0.14552 0.26505,0.61745 0.36845,1.04874 0.10341,0.43128 0.54946,1.53358 0.99122,2.44955 0.78893,1.6358 0.93518,1.75356 2.46562,1.98513 0.32368,0.049 0.52916,0.28315 0.52916,0.60305 0,0.41325 -0.41633,0.66735 -1.98437,1.21114 -1.09141,0.3785 -2.48565,0.9452 -3.09832,1.25934 -1.31407,0.67379 -1.88829,0.71992 -2.09982,0.16868 z M 34.501095,242.78291 c -3.282204,-1.5283 -4.431418,-4.25147 -2.816105,-6.67303 0.74414,-1.11556 2.353378,-3.06455 4.781383,-5.79087 1.006536,-1.1302 2.831673,-3.37883 3.059166,-3.76899 0.105888,-0.1816 -0.01078,-0.67435 -0.259256,-1.09499 -0.76624,-1.29714 -0.401934,-1.61753 1.839231,-1.61753 1.391402,0 2.299958,-0.15255 3.117158,-0.52336 0.634355,-0.28785 1.361732,-0.52597 1.616393,-0.52917 0.758449,-0.01 0.535835,0.87815 -0.463021,1.84628 -0.509322,0.49365 -0.926041,1.1056 -0.926041,1.35988 0,0.25427 0.483193,0.856 1.073762,1.33716 2.755714,2.24518 2.967192,2.47948 2.777489,3.07718 -0.230145,0.72512 -1.080466,1.19367 -1.826478,1.00643 -0.314475,-0.0789 -1.053851,-0.60673 -1.643057,-1.17289 -0.589206,-0.56616 -1.387486,-1.23657 -1.773955,-1.48979 -0.694512,-0.45507 -0.712944,-0.45016 -1.587591,0.42279 -0.486706,0.48575 -1.116679,1.18881 -1.399941,1.56234 -0.485002,0.63956 -3.09283,3.67685 -3.707598,4.31817 -0.997402,1.04049 -1.966797,2.72501 -1.966797,3.41772 0,1.12545 1.684939,2.69309 3.145661,2.92667 1.352081,0.2162 1.500775,0.99879 0.307061,1.61608 -1.069346,0.55298 -1.769032,0.50489 -3.347464,-0.23008 z m 134.519075,-0.889 c -0.39051,-0.25389 -1.69472,-1.65225 -2.89823,-3.10746 -1.20351,-1.45521 -2.26154,-2.70536 -2.35117,-2.77812 -0.0896,-0.0728 -0.67504,-0.83128 -1.3009,-1.68559 -1.78478,-2.43626 -1.97596,-2.57901 -3.1934,-2.38433 -1.23281,0.19713 -1.25688,0.10949 -0.75755,-2.75789 0.232,-1.33221 0.22217,-2.02828 -0.0443,-3.13913 -0.2749,-1.14591 -0.27684,-1.49085 -0.01,-1.74947 0.26359,-0.25533 0.5638,-0.0615 1.4477,0.93464 0.61333,0.69122 1.29582,1.25677 1.51664,1.25677 0.22083,0 1.22288,-0.65454 2.2268,-1.45454 1.35219,-1.07753 1.96448,-1.41117 2.36231,-1.28725 0.68444,0.2132 0.92476,0.5851 0.92984,1.43893 0.003,0.53215 -0.40048,0.99603 -1.8418,2.11666 -1.12664,0.87597 -1.84828,1.63241 -1.85209,1.94141 -0.006,0.49679 4.41199,6.5952 6.25964,8.64034 0.7801,0.86348 1.11031,1.03986 1.9467,1.03986 1.2955,0 2.42023,-0.92396 3.07309,-2.52454 0.41485,-1.01706 0.5878,-1.18586 1.14976,-1.12223 0.96059,0.10877 1.03815,1.59741 0.17172,3.29571 -1.5558,3.04954 -4.81835,4.63728 -6.83488,3.32623 z m -99.814461,-8.68434 c -1.097724,-1.09772 -1.07369,-1.81392 0.09641,-2.87284 0.531341,-0.48086 0.605714,-0.48425 1.479715,-0.0675 0.885235,0.42214 1.07641,0.83749 0.936619,2.0349 -0.06268,0.53694 -1.021772,1.32292 -1.614277,1.32292 -0.264526,0 -0.668834,-0.18788 -0.898463,-0.41751 z m 71.196751,-1.38926 c -0.66002,-0.72932 -0.54766,-1.77264 0.25926,-2.40736 0.38343,-0.3016 0.84362,-0.54837 1.02265,-0.54837 0.17903,0 0.63923,0.24677 1.02265,0.54837 0.77068,0.60622 0.91317,1.65842 0.32883,2.42819 -0.47388,0.62426 -2.06095,0.6117 -2.63339,-0.0208 z m -37.74413,-3.48272 c -0.3638,-0.13229 -1.85208,-0.49459 -3.307288,-0.80511 -1.455209,-0.31051 -3.067476,-0.67094 -3.582817,-0.80094 -0.515341,-0.13001 -2.479872,-0.53387 -4.365625,-0.89747 -1.885752,-0.36361 -3.904891,-0.77905 -4.486974,-0.92321 -0.582084,-0.14415 -2.606146,-0.56183 -4.497917,-0.92816 -5.932915,-1.14889 -9.391833,-1.90822 -9.588566,-2.10495 -0.249347,-0.24935 -0.255776,-4.2914 -0.0072,-4.53995 0.215116,-0.21512 1.617498,-0.46377 5.891621,-1.04464 1.600729,-0.21754 3.639022,-0.52461 4.529539,-0.68238 l 1.619123,-0.28684 0.164024,-2.95312 c 0.09021,-1.62421 0.227957,-4.67952 0.306098,-6.78957 0.07814,-2.11006 0.209183,-4.81915 0.291204,-6.02021 0.143207,-2.09704 0.177075,-2.19021 0.852903,-2.34617 0.387076,-0.0893 1.275004,-0.3426 1.973173,-0.56282 l 1.269399,-0.40039 -0.07877,-1.35448 c -0.07795,-1.34038 -0.08841,-1.35524 -1.004815,-1.42818 -2.62,-0.20854 -8.533498,-1.57139 -10.451041,-2.4086 -4.211268,-1.83866 -6.754298,-3.44829 -9.01245,-5.70453 -2.409724,-2.40767 -3.579441,-4.33711 -4.660927,-7.68816 -0.812891,-2.5188 -0.867799,-7.67237 -0.107122,-10.05417 1.402553,-4.39162 3.96709,-7.85578 8.348649,-11.27732 1.567001,-1.22366 6.200669,-3.93622 6.723966,-3.93622 0.177013,0 0.434952,-0.10143 0.573196,-0.2254 0.588367,-0.52761 6.440969,-2.58325 10.834687,-3.80553 0.582084,-0.16193 1.141563,-0.36301 1.243288,-0.44685 0.219913,-0.18124 0.651076,-6.49383 1.031456,-15.10139 0.151123,-3.41974 0.296441,-6.50497 0.322929,-6.85607 0.0448,-0.5938 -0.09034,-0.6635 -1.936214,-0.99853 -9.745359,-1.76882 -14.435029,-3.7171 -18.370418,-7.63182 -2.056623,-2.04583 -3.088878,-3.85668 -3.716823,-6.52031 -1.785541,-7.57393 2.889208,-14.16238 13.355991,-18.823538 1.40441,-0.625423 9.455803,-3.239565 11.146887,-3.619192 l 1.489596,-0.334396 0.113001,-3.867964 c 0.131447,-4.499364 -0.195007,-3.643118 4.500972,-11.805465 3.97772,-6.913895 4.28485,-7.523472 3.8581,-7.657301 -1.29059,-0.404736 -5.25136,-0.758423 -9.070015,-0.80993 -4.187175,-0.05648 -6.037893,0.03156 -11.310937,0.538053 -1.381234,0.132672 -2.05052,0.106246 -2.05052,-0.08096 0,-0.525486 6.370575,-3.986908 9.390215,-5.102129 4.150096,-1.532725 11.161517,-2.727605 14.585537,-2.485656 0.71057,0.05021 2.4934,0.156595 3.96184,0.236408 10.01401,0.544287 19.07932,6.47733 21.14486,13.838833 0.32415,1.15528 0.41996,2.330313 0.35322,4.3321 -0.0853,2.558435 -0.16151,2.889994 -1.11103,4.83409 -2.06778,4.233633 -7.23623,8.173229 -13.77709,10.501426 l -1.34235,0.477805 0.0469,1.801131 c 0.11516,4.424301 0.65525,14.140537 0.87961,15.824047 0.13575,1.01865 0.25072,2.81977 0.25548,4.0025 0.006,1.39556 0.12475,2.24197 0.33939,2.41122 0.1819,0.14345 1.30147,0.332 2.48794,0.41902 1.18646,0.087 2.67474,0.27285 3.30729,0.41297 0.63254,0.14011 2.34071,0.45689 3.79591,0.70394 7.01322,1.19063 12.65836,3.71959 16.22703,7.26954 1.84843,1.83874 2.72606,3.18049 3.61367,5.52473 0.98194,2.5934 1.08154,6.47729 0.22519,8.782 -1.76766,4.75731 -6.27281,9.04352 -12.92214,12.29413 -3.36209,1.64361 -9.79651,3.97491 -12.96458,4.6973 l -1.5875,0.36198 0.063,3.01867 c 0.0346,1.66026 0.18447,4.56648 0.33301,6.45825 0.14854,1.89177 0.39172,6.47567 0.5404,10.18645 0.14868,3.71079 0.34172,7.19498 0.42898,7.74266 0.17547,1.10136 0.22664,1.12571 2.86799,1.3647 2.75543,0.24931 5.62866,0.6444 6.66885,0.91701 0.55224,0.14473 1.59938,0.40062 2.32699,0.56864 1.89115,0.43672 2.64782,0.71486 5.98156,2.19871 4.43799,1.97534 7.33715,4.96768 8.88321,9.1687 0.44393,1.20627 0.42506,5.40963 -0.03,6.68499 -1.65511,4.63858 -6.95645,9.21092 -13.2183,11.40065 -0.89255,0.31212 -1.66681,0.68655 -1.72058,0.83207 -0.10734,0.29046 1.53022,0.78826 3.4468,1.0478 1.10755,0.14998 1.24177,0.24479 1.38906,0.98125 0.28999,1.44993 0.18474,4.37102 -0.16768,4.65407 -0.1819,0.1461 -0.74745,0.32789 -1.25677,0.40399 -0.97129,0.14513 -3.79554,0.68582 -7.14375,1.36763 -2.05139,0.41773 -4.48987,0.86585 -8.59896,1.58021 -1.30969,0.22769 -3.21469,0.5851 -4.23333,0.79425 -6.93252,1.42341 -11.07972,1.92098 -12.30313,1.4761 z m 6.61459,-1.96757 c 1.0914,-0.21756 2.81781,-0.52007 3.83645,-0.67224 1.01865,-0.15217 2.74506,-0.4618 3.83646,-0.68808 3.53975,-0.73386 5.60077,-1.13773 10.71563,-2.09978 2.76489,-0.52005 5.38427,-1.01409 5.82083,-1.09787 1.15727,-0.22209 1.45521,-0.56579 1.45521,-1.67872 0,-1.43782 -0.42837,-1.68467 -2.2964,-1.32335 -0.84703,0.16384 -2.55209,0.46072 -3.78902,0.65973 -2.12069,0.34121 -4.90261,0.82456 -13.62604,2.36745 -2.03729,0.36033 -4.89479,0.89716 -6.35,1.19296 -2.89182,0.58781 -4.40373,0.67045 -5.58291,0.30516 -0.4219,-0.1307 -2.01724,-0.48872 -3.545213,-0.79561 -1.527969,-0.30689 -4.266406,-0.85888 -6.085417,-1.22666 -5.413328,-1.0945 -7.459067,-1.47983 -9.013903,-1.69784 -0.810304,-0.11361 -1.881866,-0.33265 -2.38125,-0.48674 -1.199004,-0.36998 -5.018308,-0.92608 -5.188872,-0.75552 -0.236729,0.23673 1.333429,0.89863 2.561109,1.07964 0.654844,0.0966 1.905,0.33995 2.778125,0.54088 3.352659,0.77156 4.295609,0.97279 6.217708,1.32689 4.130007,0.76085 5.166722,0.99531 5.410729,1.22364 0.138245,0.12936 0.682182,0.2352 1.208749,0.2352 0.526567,0 1.544551,0.16867 2.262187,0.37481 0.717636,0.20615 1.959637,0.45376 2.759998,0.55024 0.80037,0.0965 1.8124,0.28087 2.24896,0.40976 0.43656,0.12889 1.12117,0.30027 1.52136,0.38085 0.66729,0.13436 0.7276,0.24757 0.7276,1.36575 v 1.21925 l 1.25677,-0.15712 c 0.69122,-0.0864 2.14974,-0.33512 3.24115,-0.55268 z m -0.26459,-5.03542 c 1.09141,-0.22928 2.99641,-0.58964 4.23334,-0.8008 1.23692,-0.21117 3.55864,-0.63117 5.15937,-0.93333 1.60073,-0.30217 3.74385,-0.66679 4.7625,-0.81026 2.57757,-0.36304 5.68854,-1.09471 5.68854,-1.33789 0,-0.29924 -2.87581,-0.3968 -4.10104,-0.13912 -0.58208,0.12242 -1.9513,0.37551 -3.04271,0.56243 -1.0914,0.18692 -3.59172,0.65464 -5.55625,1.03938 -1.96453,0.38474 -4.46484,0.87396 -5.55625,1.08717 -1.0914,0.2132 -2.85616,0.57143 -3.92168,0.79607 -1.70736,0.35994 -2.09993,0.36302 -3.30729,0.0259 -1.576,-0.44007 -6.0887,-1.39035 -9.572068,-2.01566 -0.727604,-0.13062 -2.45401,-0.49897 -3.836458,-0.81857 -2.882172,-0.66631 -6.085417,-0.95072 -6.085417,-0.54032 0,0.14855 0.565547,0.35193 1.256771,0.45196 0.691224,0.10004 1.391549,0.28885 1.556277,0.41958 0.164728,0.13073 1.057697,0.3468 1.984375,0.48017 1.897348,0.27307 3.516853,0.5889 6.976535,1.36058 8.918605,1.98927 9.310815,2.02369 13.361455,1.17274 z m -0.85783,-2.52419 c 0.55618,0 1.66133,-0.16626 2.45589,-0.36946 0.79456,-0.20321 2.51621,-0.56739 3.8259,-0.80929 1.30969,-0.2419 3.33375,-0.63018 4.49792,-0.86283 1.16416,-0.23265 2.65244,-0.49355 3.30729,-0.57977 l 1.19062,-0.15677 -0.0589,-4.49792 c -0.0634,-4.84346 -0.54164,-11.78577 -0.83334,-12.09799 -0.205,-0.21941 -8.62998,1.19019 -13.26295,2.21906 -0.65485,0.14543 -1.78594,0.34765 -2.51355,0.44939 -0.7276,0.10174 -1.47174,0.27773 -1.65364,0.3911 -0.44505,0.27738 -0.48175,16.32221 -0.0383,16.76562 0.21346,0.21345 0.53257,0.19202 1.18213,-0.0794 0.48936,-0.20447 1.3448,-0.37176 1.90099,-0.37176 z m -0.72967,-1.65016 c 0,-0.28179 0.40848,-0.45329 1.38907,-0.58318 0.76398,-0.10121 2.2225,-0.29558 3.24114,-0.43194 3.37792,-0.45219 5.59255,-0.56577 5.15938,-0.26459 -0.21829,0.15176 -0.99814,0.27776 -1.73303,0.27999 -0.73488,0.002 -1.45552,0.12343 -1.60142,0.26933 -0.14591,0.14591 -1.09245,0.37568 -2.10344,0.5106 -1.01099,0.13493 -2.4037,0.32939 -3.09493,0.43214 -1.02651,0.15259 -1.25677,0.11369 -1.25677,-0.21235 z m 0.15288,-5.09671 c -0.13419,-0.72761 -0.25325,-3.04869 -0.26458,-5.15797 l -0.0206,-3.83506 1.05833,-0.18748 c 3.82602,-0.67776 6.1186,-0.93954 6.47502,-0.73936 0.48914,0.27473 0.21165,0.39671 -1.44793,0.63652 -1.13161,0.16351 -2.8609,0.51087 -4.36563,0.87691 l -0.92604,0.22527 -0.13229,4.75204 c -0.10985,3.94582 -0.17369,4.5276 -0.37629,3.42913 z m 13.47039,-8.40247 c -0.14705,-1.12886 -0.1896,-2.25996 -0.0945,-2.51355 0.32366,-0.8635 0.52264,0.25489 0.43995,2.47274 l -0.078,2.09328 z m -4.95816,-1.97072 c 0.32742,-0.0631 0.8632,-0.0631 1.19062,0 0.32742,0.0631 0.0595,0.11467 -0.59531,0.11467 -0.65484,0 -0.92274,-0.0516 -0.59531,-0.11467 z m -13.9243,16.04211 c 0.23813,-0.85213 0.27197,-5.29855 0.0541,-7.11303 -0.28961,-2.41248 -0.57667,-0.79625 -0.59718,3.36234 -0.0102,2.07367 -0.0704,3.77031 -0.13367,3.77031 -0.0633,0 -0.45024,-0.13058 -0.85989,-0.29017 -0.40966,-0.15959 -1.340144,-0.38561 -2.067748,-0.50227 -0.727605,-0.11666 -2.513542,-0.51239 -3.96875,-0.87941 -1.455208,-0.36702 -3.41974,-0.74957 -4.365625,-0.85011 -0.945885,-0.10055 -1.86862,-0.3032 -2.050521,-0.45033 -0.239906,-0.19404 -0.335836,-1.51196 -0.349325,-4.79917 -0.01023,-2.49242 -0.113669,-4.76979 -0.229869,-5.06083 -0.266768,-0.66817 -0.618599,5.20799 -0.499016,8.33437 l 0.08602,2.24896 1.852083,0.34996 c 2.024499,0.38253 4.740982,0.91535 7.011458,1.37526 0.800365,0.16212 2.050521,0.38827 2.778125,0.50256 0.727604,0.1143 1.620575,0.33644 1.984375,0.49366 0.87237,0.37699 1.13964,0.27995 1.35539,-0.4921 z m 26.16128,-3.79395 c 2.61004,-0.57049 3.78797,-1.02052 7.27604,-2.77978 2.43165,-1.22644 3.25977,-1.81681 5.03419,-3.58885 1.16957,-1.16799 2.39469,-2.68217 2.72674,-3.37007 0.74799,-1.54962 1.02994,-4.45587 0.59852,-6.16922 -0.93513,-3.71373 -4.71063,-6.88835 -10.47612,-8.80883 -2.70848,-0.9022 -6.86212,-1.89676 -7.9215,-1.89676 -0.39174,0 -0.92627,-0.11455 -1.18786,-0.25454 -0.26158,-0.14 -3.49821,-0.43972 -7.1925,-0.66605 -16.36404,-1.00254 -19.409959,-1.37498 -25.10543,-3.06978 -0.945885,-0.28147 -1.957916,-0.61628 -2.248958,-0.74403 -2.540467,-1.1151 -3.307291,-1.50417 -3.307291,-1.67807 0,-0.11116 -0.148829,-0.20248 -0.33073,-0.20294 -0.65036,-0.002 -3.196266,-2.78888 -3.866003,-4.23251 -0.521774,-1.1247 -0.676044,-1.88235 -0.679233,-3.33588 -0.0093,-4.21556 3.265026,-8.27481 9.506174,-11.7852 2.186711,-1.22993 4.473416,-2.34019 4.825762,-2.34305 0.110726,-8.9e-4 0.499497,-0.15725 0.863934,-0.34746 0.962809,-0.50252 6.174345,-2.10618 10.449885,-3.21557 5.04584,-1.30926 5.33205,-1.3788 7.14375,-1.73559 0.87313,-0.17195 1.88516,-0.40818 2.24896,-0.52496 0.3638,-0.11677 1.91161,-0.53305 3.43958,-0.92505 1.52797,-0.39201 3.15331,-0.87903 3.61186,-1.08228 0.45856,-0.20325 1.00029,-0.36954 1.20386,-0.36954 0.20356,0 0.48322,-0.0984 0.62147,-0.21858 0.13824,-0.12022 0.78713,-0.3795 1.44198,-0.57618 0.65484,-0.19669 2.18471,-0.8127 3.39971,-1.36892 1.21499,-0.55623 2.27037,-1.01132 2.34528,-1.01132 0.0749,0 1.343,-0.78977 2.818,-1.75504 4.30915,-2.82001 6.33044,-5.15445 7.85526,-9.07223 0.56864,-1.46102 0.4456,-4.93281 -0.23326,-6.5821 -0.73782,-1.79251 -2.30517,-3.91233 -3.92939,-5.31444 -1.51687,-1.30944 -5.1045,-3.18129 -7.6496,-3.99118 -1.00533,-0.31992 -2.01038,-0.67556 -2.23344,-0.79032 -0.22305,-0.11476 -0.81837,-0.28791 -1.32291,-0.38478 -0.50455,-0.0969 -1.7508,-0.34827 -2.76944,-0.55867 -3.11244,-0.64286 -6.77734,-1.18457 -8.01408,-1.18457 l -1.17396,0 0.19209,4.03489 c 0.10565,2.2192 0.24522,4.1242 0.31015,4.23334 0.0649,0.10914 0.32108,0.19843 0.56921,0.19843 0.24813,0 1.1043,0.24676 1.90261,0.54836 0.79831,0.30159 1.80866,0.67767 2.24523,0.83571 2.19544,0.79481 4.36557,2.94346 4.8997,4.8512 1.61727,5.77629 -7.85848,12.16153 -23.02366,15.51453 -0.65484,0.14478 -2.20266,0.49889 -3.439583,0.7869 -1.236927,0.28801 -3.201459,0.73837 -4.365625,1.00079 -2.334343,0.52619 -6.843586,1.76108 -7.672916,2.10128 -0.291042,0.11939 -1.005417,0.36051 -1.5875,0.53581 -1.22287,0.36829 -1.330302,0.41056 -4.48853,1.76602 -5.997246,2.57394 -10.753012,6.39537 -13.301909,10.68857 -0.847191,1.42695 -1.61877,4.06119 -1.811051,6.18309 -0.163708,1.80658 0.211189,5.25672 0.678433,6.24354 0.10564,0.22311 0.413618,0.88191 0.684395,1.46399 1.740118,3.74068 5.311844,6.97683 9.904287,8.97374 0.945885,0.4113 1.926535,0.85242 2.179222,0.98027 0.252687,0.12785 0.751676,0.23245 1.108865,0.23245 0.357188,0 0.718766,0.11218 0.803507,0.2493 0.08474,0.13711 0.716845,0.33092 1.404677,0.43069 0.687832,0.0998 1.43578,0.27702 1.662106,0.3939 0.226326,0.11688 2.250388,0.41493 4.497916,0.66235 3.457679,0.38063 5.22626,0.41553 11.494746,0.22685 8.66515,-0.26082 15.54592,-0.19436 18.52083,0.17888 10.13399,1.27143 16.10632,5.77806 14.37783,10.84928 -0.82761,2.42811 -2.94945,4.40637 -6.76164,6.30409 l -2.1734,1.08192 0.0949,2.31293 c 0.0522,1.27212 0.10746,2.41611 0.12287,2.54222 0.0154,0.1261 0.29593,0.16931 0.62335,0.096 0.32742,-0.0733 1.48828,-0.32844 2.57969,-0.567 z m 3.30729,-4.36231 c 2.97482,-1.90751 4.65679,-3.44761 5.54256,-5.07506 0.98395,-1.80784 1.11318,-4.77387 0.28149,-6.46052 -1.07174,-2.17344 -4.91824,-5.24336 -7.94072,-6.33754 -0.7276,-0.2634 -1.43603,-0.58232 -1.57427,-0.70871 -0.13825,-0.12638 -0.56197,-0.22979 -0.94162,-0.22979 -0.37964,0 -0.92138,-0.17481 -1.20385,-0.38846 -0.28248,-0.21365 -0.89352,-0.39225 -1.35787,-0.39687 -0.46436,-0.005 -0.91839,-0.12832 -1.00896,-0.27487 -0.32042,-0.51845 0.72811,-0.59585 2.26889,-0.16747 0.8584,0.23866 1.80805,0.43392 2.11032,0.43392 0.81738,0 3.01081,0.7137 5.53749,1.80178 6.26536,2.69811 8.61132,8.8134 5.26283,13.7188 -1.33792,1.96001 -4.65282,4.28339 -6.95031,4.8714 -0.45085,0.11539 -1.11739,0.29098 -1.48119,0.39021 -0.3638,0.0992 0.29104,-0.43034 1.45521,-1.17682 z M 90.619792,188.46231 c -4.131892,-0.64888 -7.543537,-1.38714 -7.92427,-1.71477 -0.138245,-0.11896 -0.416688,-0.21629 -0.618762,-0.21629 -0.738499,0 -5.272209,-2.36657 -6.538783,-3.41321 -4.565854,-3.773 -6.440877,-9.56084 -4.809814,-14.84699 0.792034,-2.56692 2.165619,-4.69968 4.513517,-7.00812 2.91784,-2.8688 6.944788,-5.28405 11.012487,-6.60497 0.800365,-0.25991 1.728701,-0.57662 2.06297,-0.7038 0.334269,-0.12718 0.929582,-0.21909 1.322917,-0.20423 0.667451,0.0252 0.653384,0.0464 -0.210887,0.31831 -0.509323,0.16022 -1.083374,0.44572 -1.275669,0.63445 -0.192296,0.18873 -0.523676,0.34314 -0.7364,0.34314 -1.022473,0 -5.860396,2.92374 -8.715694,5.26722 -5.060763,4.15362 -7.193836,9.64057 -5.675814,14.60004 1.085843,3.54751 2.889601,5.84861 6.25088,7.97441 3.078992,1.94726 4.517953,2.50846 10.284989,4.01116 1.499072,0.39061 5.193351,0.97481 8.731249,1.38073 1.162646,0.13339 1.445882,0.2375 1.058334,0.38903 -0.839514,0.32822 -6.122937,0.2035 -8.73125,-0.20611 z M 78.581251,177.40312 c 0,-0.0728 0.05953,-0.13229 0.132292,-0.13229 0.07276,0 0.132291,0.0595 0.132291,0.13229 0,0.0728 -0.05953,0.13229 -0.132291,0.13229 -0.07276,0 -0.132292,-0.0595 -0.132292,-0.13229 z m -0.8344,-1.39209 c -1.017696,-2.3008 -1.094643,-2.72271 -0.943025,-5.17064 0.155352,-2.50821 0.441646,-3.36215 1.791461,-5.34352 2.020509,-2.96585 5.978973,-5.82349 9.92053,-7.16169 1.868115,-0.63424 2.281749,-0.35034 0.691581,0.47467 -2.651489,1.37564 -4.42299,2.70003 -6.827516,5.1043 -2.492828,2.49257 -3.102332,3.41034 -4.043836,6.08909 -0.745369,2.12071 -0.715506,3.64046 0.12591,6.4077 0.295326,0.97126 -0.241356,0.67113 -0.715105,-0.39991 z m 13.076414,-18.50272 c 0.257431,-0.0671 0.614619,-0.0627 0.79375,0.01 0.179131,0.0725 -0.03149,0.12736 -0.468056,0.12197 -0.436563,-0.005 -0.583125,-0.0647 -0.325694,-0.13178 z m 19.375695,-6.47583 c 0.43656,-0.14708 1.16893,-0.43533 1.62748,-0.64057 0.45856,-0.20524 1.14317,-0.37316 1.52136,-0.37316 0.37819,0 0.68762,-0.10581 0.68762,-0.23514 0,-0.12932 0.4404,-0.31776 0.97867,-0.41874 0.53827,-0.10098 1.21961,-0.35235 1.51408,-0.55861 0.29447,-0.20626 0.75843,-0.37501 1.03102,-0.37501 0.27259,0 0.81165,-0.16844 1.1979,-0.37431 0.38626,-0.20586 1.41666,-0.63431 2.28978,-0.9521 10.35995,-3.77067 16.07124,-8.41304 16.48475,-13.39946 0.30579,-3.68744 -2.27857,-7.38653 -6.83266,-9.77982 -1.23686,-0.65001 -1.35689,-0.77518 -0.81652,-0.85157 1.00642,-0.14227 4.42014,1.77789 6.37943,3.58833 2.46937,2.28175 3.17409,3.81329 3.17191,6.89335 -0.001,1.52979 -0.13488,2.56337 -0.39687,3.06572 -0.21739,0.41682 -0.39856,0.89307 -0.40261,1.05833 -0.0139,0.56775 -2.48434,3.5389 -3.99003,4.79873 -1.69377,1.41721 -5.49802,3.47535 -8.78635,4.75351 -3.27073,1.27132 -10.10748,3.14548 -12.74855,3.49477 -0.58208,0.077 -1.17144,0.24684 -1.30968,0.37745 -0.13825,0.13062 -0.73356,0.22809 -1.32292,0.2166 l -1.07156,-0.0209 z m 14.94896,-8.9208 c 0,-0.12878 0.31839,-0.44278 0.70755,-0.69776 1.2333,-0.80809 3.10818,-2.88644 3.70519,-4.10731 1.34793,-2.75643 1.42685,-4.72816 0.2759,-6.8926 -0.61557,-1.15762 -2.86786,-3.33537 -4.09997,-3.96429 -0.39653,-0.2024 -1.26992,-0.69717 -1.94085,-1.09949 -0.67094,-0.40231 -1.41508,-0.73148 -1.65365,-0.73148 -0.23857,0 -0.43376,-0.11906 -0.43376,-0.26458 0,-0.44772 0.9731,-0.29561 2.53892,0.39687 0.82262,0.3638 1.59139,0.66146 1.70837,0.66146 0.60046,0 3.58585,2.08483 4.59898,3.21167 2.43346,2.70659 2.62174,5.93626 0.53847,9.23638 -0.69108,1.09474 -3.03753,3.06973 -4.71573,3.96919 -1.08423,0.58111 -1.22942,0.61441 -1.22942,0.28194 z m 3.52777,-19.5214 c 0.097,-0.097 0.25577,-0.097 0.35278,0 0.097,0.097 0.0176,0.17639 -0.17639,0.17639 -0.19403,0 -0.2734,-0.0794 -0.17639,-0.17639 z m 0.77434,81.14632 c 2.42945,-2.16096 2.59678,-3.9527 0.54572,-5.84331 -1.66321,-1.53308 -5.44756,-3.09537 -8.75044,-3.61241 -0.84975,-0.13302 -0.85989,-0.12207 -0.85989,0.92804 0,1.06071 0.003,1.06353 1.50804,1.537 2.4152,0.75967 2.46071,0.85179 2.46071,4.98164 0,1.95506 0.11666,3.8615 0.25925,4.23654 l 0.25925,0.68188 1.62358,-0.8631 c 0.89296,-0.4747 2.22217,-1.39553 2.95378,-2.04628 z m -34.464613,-2.1241 c -0.21524,-0.40218 -0.553991,-0.52917 -1.411601,-0.52917 -0.620619,0 -1.241508,-0.10372 -1.379753,-0.23048 -0.3524,-0.32313 -2.985096,-0.58455 -3.15288,-0.31307 -0.181706,0.294 0.500223,0.54355 1.485351,0.54355 0.434228,0 1.049568,0.14431 1.367423,0.32069 0.317855,0.17637 1.173231,0.39773 1.900835,0.49191 0.727604,0.0942 1.356871,0.18799 1.398371,0.20848 0.0415,0.0205 -0.05199,-0.20087 -0.207746,-0.49191 z m 13.096873,-0.97272 c 1.01865,-0.21123 2.80458,-0.55207 3.96875,-0.75743 3.43561,-0.60604 8.36885,-1.65571 8.52759,-1.81445 0.29999,-0.3 -0.74745,-0.47011 -2.10279,-0.34152 -0.76875,0.0729 -2.29068,0.32661 -3.38209,0.56373 -1.09141,0.23711 -2.87734,0.59408 -3.96875,0.79327 -1.09141,0.1992 -2.8649,0.56556 -3.9411,0.81415 -1.9378,0.4476 -2.77597,0.43157 -5.71619,-0.10938 -0.72761,-0.13386 -2.156356,-0.3847 -3.175002,-0.55741 -1.018645,-0.17272 -1.965192,-0.42185 -2.103437,-0.55363 -0.138245,-0.13179 -0.733557,-0.2409 -1.322917,-0.24248 -0.589359,-0.002 -1.656032,-0.18017 -2.370383,-0.39687 -1.493517,-0.45308 -3.224274,-0.51679 -3.464834,-0.12756 -0.190389,0.30806 -0.158666,0.3191 2.646988,0.9214 1.164167,0.24992 2.652448,0.57408 3.307292,0.72035 1.396644,0.31197 3.873437,0.71241 5.556253,0.89831 0.65484,0.0723 1.42875,0.24018 1.71979,0.37297 1.2082,0.55125 2.4693,0.51151 5.82083,-0.18345 z m -19.446873,-0.3502 c 0,-0.14552 -0.126089,-0.26458 -0.280198,-0.26458 -0.154109,0 -0.206614,0.11906 -0.116677,0.26458 0.08994,0.14552 0.216026,0.26458 0.280198,0.26458 0.06417,0 0.116677,-0.11906 0.116677,-0.26458 z m 19.843753,-2.16245 c 0.50932,-0.14213 1.75948,-0.42454 2.77812,-0.62757 4.69757,-0.93627 6.69761,-1.38164 6.97524,-1.55322 0.40397,-0.24967 0.38131,-1.26636 -0.0411,-1.84404 -0.30403,-0.41579 -1.02648,-0.48462 -6.52156,-0.62135 -5.80508,-0.14443 -6.20133,-0.12411 -6.53726,0.3353 -0.37311,0.51027 -0.47536,2.6434 -0.1941,4.04967 0.16017,0.80086 0.18841,0.81445 1.38906,0.66856 0.67406,-0.0819 1.64228,-0.26521 2.15161,-0.40735 z m -7.86973,-0.47672 c -0.47204,-0.11206 -1.02657,-0.34343 -1.232279,-0.51415 -0.20571,-0.17073 -0.950584,-0.41923 -1.655277,-0.55223 -5.124777,-0.96723 -4.954838,-0.89717 -4.973608,-2.05055 -0.0089,-0.54586 -0.14322,-0.72619 -0.540984,-0.72619 -0.442174,0 -0.542275,0.20297 -0.608905,1.23463 -0.09222,1.42796 -0.345922,1.28864 3.519321,1.93269 1.455209,0.24248 3.003021,0.5396 3.439584,0.66028 0.436562,0.12068 1.27,0.21939 1.852078,0.21935 l 1.05834,-8e-5 z m 17.23606,-15.48479 c -0.0863,-4.32678 -0.66689,-16.96792 -0.80455,-17.51642 -0.0902,-0.35922 -0.23774,-2.39904 -0.32796,-4.53293 l -0.16403,-3.87981 -0.66146,0.0407 c -0.3638,0.0224 -1.43537,0.23512 -2.38125,0.47274 -0.94589,0.23762 -2.25557,0.54006 -2.91042,0.67208 -0.65484,0.13202 -1.84547,0.42235 -2.64583,0.64517 -0.80037,0.22282 -1.75287,0.48694 -2.11667,0.58692 -0.3638,0.1 -0.73893,0.29919 -0.83361,0.44268 -0.0947,0.14348 -0.16215,5.43577 -0.14991,11.76065 0.0182,9.4348 0.0882,11.56571 0.38949,11.86701 0.243,0.24299 1.05461,0.37782 2.39887,0.3985 1.11739,0.0172 3.63896,0.11784 5.6035,0.22366 5.04213,0.27161 4.63487,0.37608 4.60383,-1.18096 z m -24.446016,-1.81424 c 0.0071,-1.36171 0.544998,-13.46826 0.674741,-15.18524 0.154859,-2.04934 0.133159,-2.18281 -0.3549,-2.18281 -0.672157,0 -0.851308,0.88722 -0.848138,4.20026 0.0013,1.40064 -0.135566,4.88479 -0.304238,7.74257 -0.168671,2.85777 -0.233806,5.38584 -0.144744,5.61793 0.17781,0.46337 0.974694,0.30623 0.977279,-0.19271 z m -2.793658,-2.08836 c 0.280209,-2.88804 0.667087,-9.52072 0.671331,-11.50938 0.0031,-1.4366 -0.08565,-1.91822 -0.353324,-1.91822 -0.527802,0 -3.620727,2.42517 -4.537374,3.55776 -1.451981,1.79405 -1.984375,3.02884 -1.984375,4.6024 0,2.56893 1.354548,4.52391 4.233333,6.10983 0.800365,0.44092 1.535029,0.80383 1.632587,0.80646 0.09756,0.003 0.249578,-0.73935 0.337822,-1.64885 z m 4.550266,-30.95221 c 0.111047,-0.17968 0.284468,-2.88835 0.385378,-6.01927 0.100911,-3.13092 0.316602,-8.13336 0.479313,-11.11654 0.162711,-2.98318 0.418331,-7.68614 0.568044,-10.45104 0.149712,-2.7649 0.385723,-8.00365 0.524468,-11.64167 0.138744,-3.63802 0.373064,-7.79379 0.520709,-9.235056 0.147645,-1.441262 0.216399,-2.672523 0.152785,-2.736137 -0.06361,-0.06361 -0.362758,-0.03723 -0.664767,0.05862 -0.49993,0.158671 -0.549334,0.380011 -0.551665,2.471553 -0.003,2.693141 -0.39359,9.948601 -0.778874,14.468111 -0.148867,1.74625 -0.399886,6.33015 -0.557822,10.18645 -0.268534,6.5568 -0.463828,10.88405 -0.922438,20.43907 -0.165517,3.44848 -0.139006,3.9026 0.227826,3.9026 0.228326,0 0.505995,-0.14701 0.617043,-0.32669 z m 11.365368,-2.81744 c 0.42189,-0.12855 1.30286,-0.38275 1.95771,-0.56491 1.42991,-0.39775 5.07353,-1.71742 6.31913,-2.28871 l 0.89518,-0.41056 -0.16323,-1.75678 c -0.0898,-0.96623 -0.22722,-3.36413 -0.30543,-5.32866 -0.0782,-1.96453 -0.32041,-6.72703 -0.53822,-10.58333 -0.21781,-3.8563 -0.50611,-9.21412 -0.64065,-11.90625 -0.13455,-2.69214 -0.45544,-8.2681 -0.7131,-12.391031 l -0.46848,-7.496238 -0.67125,0.1321 c -0.36918,0.07265 -1.86187,0.438464 -3.31708,0.81291 -1.45521,0.374445 -2.8986,0.739984 -3.20755,0.812309 l -0.56171,0.1315 -0.19719,25.24572 c -0.10845,13.88515 -0.11655,25.3762 -0.018,25.53568 0.21695,0.35104 0.61698,0.36485 1.62985,0.0563 z m 12.61989,-5.1493 c 2.24302,-1.44243 3.8553,-3.03908 4.1871,-4.14652 0.43177,-1.44111 0.1132,-2.70509 -0.89819,-3.56381 -0.96737,-0.82134 -3.274,-1.98143 -3.94746,-1.98532 -0.24607,-0.001 -0.52099,-0.12165 -0.61093,-0.26717 -0.0899,-0.14552 -0.41027,-0.26458 -0.71186,-0.26458 -0.52254,0 -0.54016,0.0965 -0.37441,2.05052 0.0957,1.12778 0.23625,3.36021 0.31241,4.96094 0.14276,3.00031 0.28422,4.10104 0.52703,4.10104 0.077,0 0.75932,-0.3983 1.51631,-0.8851 z M 93.610877,122.03906 c 0.127368,-0.25466 0.259417,-2.07036 0.293444,-4.03489 l 0.06187,-3.57188 -1.673198,-0.49804 c -0.920259,-0.27392 -2.048379,-0.66088 -2.506934,-0.8599 -0.458555,-0.19901 -0.965868,-0.36185 -1.127363,-0.36185 -0.52604,0 -2.776163,-1.13411 -3.859734,-1.94539 -2.520924,-1.88745 -3.1675,-3.03419 -3.15479,-5.59523 0.0078,-1.56471 0.123851,-2.03215 0.748151,-3.01258 1.427614,-2.241996 4.809363,-4.984459 7.732518,-6.270765 3.454164,-1.519971 5.410671,-2.262488 7.506412,-2.848769 3.03184,-0.848154 6.80496,-1.822159 8.33437,-2.151459 7.49458,-1.613673 14.41135,-4.375975 17.708,-7.071919 3.63238,-2.970505 5.35615,-6.266488 5.10584,-9.762777 -0.23204,-3.241252 -1.07682,-5.205927 -3.27619,-7.619389 -2.02192,-2.218729 -6.7654,-5.315468 -8.14206,-5.315468 -0.21128,0 -0.44516,-0.09872 -0.51972,-0.219367 -0.0746,-0.120652 -0.82574,-0.37843 -1.66927,-0.57284 -0.84352,-0.194409 -1.75043,-0.461562 -2.01535,-0.593673 -0.26492,-0.132112 -2.08076,-0.408701 -4.03519,-0.614642 -3.38334,-0.356508 -8.37048,-0.217974 -11.093555,0.30816 -4.089022,0.790054 -8.237545,2.788526 -4.817134,2.320563 1.5358,-0.210121 9.378169,0.359043 11.234049,0.815317 0.83632,0.205611 1.99683,0.436141 2.57892,0.512289 1.00323,0.131243 2.56618,0.541306 4.63021,1.214805 2.17654,0.710214 5.36296,2.55872 6.73019,3.904318 3.98653,3.923452 2.63216,9.684381 -3.3131,14.09252 -1.76956,1.31205 -7.28139,4.272262 -9.37022,5.032422 -0.29104,0.105915 -0.85813,0.324612 -1.26021,0.485994 -0.87575,0.351505 -5.09009,1.740018 -6.941872,2.287164 -0.727604,0.214986 -2.394479,0.699078 -3.704166,1.075762 -11.435652,3.289047 -16.224151,5.842014 -19.942495,10.632254 -1.342626,1.72966 -1.885629,3.51512 -1.885629,6.20016 0,1.26852 0.135795,2.63942 0.301766,3.04645 0.784365,1.92358 1.051233,2.42493 1.776755,3.33788 2.871324,3.61309 8.764554,6.37328 16.442311,7.70102 2.756028,0.47661 2.86266,0.47504 3.123377,-0.0463 z m -5.76921,-4.82864 c -0.218281,-0.14107 -0.710751,-0.25831 -1.094378,-0.26053 -0.943058,-0.005 -4.533238,-1.23105 -6.027711,-2.05766 -3.78734,-2.09482 -5.870603,-5.72952 -5.04756,-8.80655 0.55145,-2.06165 1.251627,-3.28936 2.589852,-4.54111 1.21192,-1.13361 3.494381,-2.549783 3.494381,-2.168121 0,0.09265 -0.625078,0.844821 -1.389063,1.671501 -2.022552,2.18852 -2.657506,3.57526 -2.657506,5.80403 0,1.69775 0.07661,1.93935 1.116325,3.52077 0.664431,1.0106 1.697201,2.12237 2.551279,2.74644 1.542806,1.12733 5.03363,3.03289 5.555973,3.03289 0.175315,0 0.659786,0.17786 1.076602,0.39525 0.416816,0.21738 0.995973,0.3978 1.287014,0.40093 0.438712,0.005 0.461326,0.0495 0.132292,0.26216 -0.218281,0.14106 -0.575469,0.25648 -0.79375,0.25648 -0.218281,0 -0.575469,-0.11542 -0.79375,-0.25648 z M 116.41667,84.534378 c 0,-0.07276 0.0595,-0.132292 0.13229,-0.132292 0.0728,0 0.13229,0.05953 0.13229,0.132292 0,0.07276 -0.0595,0.132292 -0.13229,0.132292 -0.0728,0 -0.13229,-0.05953 -0.13229,-0.132292 z m 0.94674,-0.627968 c -0.0707,-0.114391 0.46162,-0.658045 1.18292,-1.208121 4.10573,-3.131064 5.49785,-7.912962 3.50937,-12.054535 -0.94458,-1.967372 -3.97379,-4.907344 -6.18523,-6.003025 -3.85014,-1.907587 -6.08731,-2.625285 -10.30172,-3.304842 -2.68322,-0.432658 -2.60879,-0.801567 0.13229,-0.655737 5.46496,0.290743 9.00835,1.340427 13.36146,3.958155 2.95353,1.776099 5.02144,4.842833 5.60453,8.311585 0.51139,3.04224 -0.39703,5.638595 -2.8398,8.116418 -1.79685,1.822633 -4.16245,3.327741 -4.46382,2.840102 z m -23.053447,25.96182 c 0.296739,-2.6516 0.63372,-12.625247 0.433739,-12.837415 -0.459203,-0.487189 -4.414538,1.420167 -7.119259,3.433075 -3.596794,2.67681 -4.363343,5.01848 -2.37592,7.25802 1.278178,1.44033 5.956523,3.48195 8.321853,3.63164 0.502965,0.0318 0.58918,-0.14131 0.739587,-1.48532 z m 3.58587,-24.555717 c 0,-0.959729 -0.11558,-1.704177 -0.264583,-1.704177 -0.151401,0 -0.264583,0.798955 -0.264583,1.867699 0,1.177757 0.09774,1.807292 0.264583,1.704176 0.145521,-0.08994 0.264583,-0.930401 0.264583,-1.867698 z m 9.101747,-1.241156 c 3.58427,-1.600174 5.35499,-2.76323 4.89986,-3.21836 -0.18799,-0.187986 -6.40513,-0.668229 -6.65462,-0.514036 -0.34791,0.215019 -0.24429,4.327709 0.10904,4.327709 0.17175,0 0.91232,-0.267891 1.64572,-0.595313 z m -3.78002,-3.918691 c 1.01067,-0.540894 0.2134,-0.779127 -2.03025,-0.606666 -1.27102,0.0977 -2.230609,0.06934 -2.22726,-0.06582 0.0032,-0.130609 0.238713,-0.535127 0.523283,-0.898929 0.28457,-0.363802 0.520047,-0.746485 0.523287,-0.850406 0.003,-0.103922 0.66997,-1.559741 1.48164,-3.235154 0.81167,-1.675412 1.43175,-3.25726 1.37795,-3.515218 -0.10661,-0.511144 -0.088,-0.539177 -1.66041,2.499942 -0.43509,0.840929 -0.86025,1.588493 -0.94481,1.661253 -0.18444,0.158716 -2.894323,5.30988 -2.894323,5.501772 0,0.239113 5.321063,-0.207221 5.850893,-0.490776 z m 12.44698,-1.530767 c 3.19615,-3.566869 3.37453,-6.818679 0.51248,-9.342002 -1.71188,-1.509265 -2.58785,-1.930103 -7.3753,-3.543275 -2.17843,-0.734042 -2.96839,-0.811273 -2.96839,-0.29021 0,0.1974 0.59532,1.393468 1.32292,2.657929 0.7276,1.264462 1.32292,2.343271 1.32292,2.397355 0,0.05408 0.51589,0.971375 1.14643,2.038425 1.0453,1.768962 2.20003,3.825844 3.31721,5.908841 0.99841,1.861559 1.19729,1.874196 2.72173,0.172937 z m -4.19301,0.847551 c 0.1607,-0.160701 -1.56087,-3.578837 -3.82407,-7.592614 -0.56121,-0.995295 -1.02038,-1.869884 -1.02038,-1.943531 0,-0.370857 -1.13173,-1.656666 -1.34315,-1.526006 -0.13581,0.08394 -0.24435,2.428637 -0.24435,5.278566 v 5.127548 l 1.25677,0.177533 c 0.69123,0.09764 1.67349,0.271573 2.18282,0.386509 1.17351,0.264822 2.77043,0.313916 2.99236,0.09199 z m -8.01945,-9.222571 c 0,-0.07276 -0.0595,-0.132292 -0.13229,-0.132292 -0.0728,0 -0.13229,0.05953 -0.13229,0.132292 0,0.07276 0.0595,0.132291 0.13229,0.132291 0.0728,0 0.13229,-0.05953 0.13229,-0.132291 z m 85.65511,155.656001 c -0.0681,-0.19008 -0.0675,-0.71569 0.002,-1.16803 0.17279,-1.13295 -0.71496,-2.3972 -3.66427,-5.21829 -2.49401,-2.3856 -3.29228,-2.81787 -4.33031,-2.34492 -0.45948,0.20936 -0.73701,0.19168 -1.0945,-0.0697 -0.41047,-0.30014 -0.43315,-0.45066 -0.15866,-1.05309 0.17614,-0.38659 0.32026,-0.93703 0.32026,-1.2232 0,-0.28617 0.10104,-0.72705 0.22455,-0.97973 0.69246,-1.41676 1.08744,-2.04329 1.34153,-2.12799 0.15673,-0.0522 1.86278,1.46034 3.79121,3.36131 3.26749,3.22094 6.04237,5.58329 6.5583,5.58329 0.12143,0 0.52516,-0.11573 0.89717,-0.25717 0.71956,-0.27357 1.47473,-0.11797 1.47473,0.30386 0,0.14007 -0.6518,0.99054 -1.44844,1.88993 -0.79665,0.89939 -1.72348,2.05197 -2.05962,2.56129 -0.62851,0.95233 -1.63388,1.35506 -1.85349,0.74247 z M 14.31891,222.63446 c -1.035919,-1.40527 -1.883489,-2.64739 -1.883489,-2.76027 0,-0.11288 0.183572,-0.35759 0.407938,-0.54379 0.338309,-0.28077 0.539701,-0.24114 1.179911,0.23218 0.424586,0.31391 0.966774,0.57075 1.204864,0.57075 0.389078,0 1.411342,-0.61702 2.498954,-1.50833 0.218281,-0.17888 1.408906,-1.07149 2.645833,-1.98358 2.996572,-2.20961 3.155564,-2.42028 3.166197,-4.19525 0.0079,-1.31951 -0.07894,-1.55272 -0.851093,-2.28548 -0.945679,-0.89744 -2.319965,-1.66903 -2.972732,-1.66903 -0.664667,0 -4.399622,2.55287 -7.081434,4.8402 -1.508531,1.28664 -1.814624,1.95978 -1.277199,2.80873 0.322451,0.50936 0.06182,1.08232 -0.492332,1.08232 -0.250879,0 -1.3184635,-0.88931 -2.3724088,-1.97625 -2.3816032,-2.45616 -2.4649948,-3.11113 -0.4221228,-3.31541 0.8738851,-0.0874 1.7190769,-0.40171 2.4900666,-0.92605 0.641933,-0.43656 1.519609,-1.00777 1.950391,-1.26936 0.430783,-0.26159 1.716146,-1.18577 2.856362,-2.05374 1.783188,-1.35743 2.096096,-1.71645 2.23741,-2.5671 0.354853,-2.13607 0.610901,-2.23274 2.688542,-1.01507 2.03432,1.19228 2.327011,1.5378 1.930423,2.27883 -0.445934,0.83323 -0.210639,1.15301 1.444071,1.96259 2.211971,1.08222 3.224525,2.24293 3.429367,3.93118 0.373576,3.07891 -0.504688,4.30951 -5.355,7.50323 -2.135127,1.40589 -3.941581,2.6076 -4.014341,2.67048 -0.07276,0.0629 -0.132292,0.66952 -0.132292,1.3481 0,1.13562 -0.05539,1.2402 -0.696198,1.31447 -0.606819,0.0703 -0.938004,-0.24733 -2.579688,-2.47435 z m 129.52623,-2.9421 c -0.097,-0.097 -0.17428,-1.07928 -0.1717,-2.18282 l 0.005,-2.00642 2.70271,-1.71979 c 2.40347,-1.52938 5.65836,-3.82085 6.01915,-4.23752 0.0728,-0.084 0.90619,-0.735 1.85208,-1.44659 2.51202,-1.88979 8.81377,-8.28688 11.47253,-11.6461 2.33095,-2.94505 4.70421,-6.35584 5.72899,-8.23357 0.30822,-0.56476 0.80692,-1.44356 1.10821,-1.95289 1.8059,-3.05279 4.63528,-9.49203 6.27789,-14.28749 0.65025,-1.89834 2.38948,-9.21479 2.76741,-11.64167 1.45407,-9.33738 1.00372,-22.09103 -1.03238,-29.23646 -0.20733,-0.7276 -0.57565,-2.15635 -0.81848,-3.175 -0.92202,-3.86777 -3.72361,-11.27326 -5.45518,-14.41979 -0.44045,-0.80036 -1.12702,-2.05052 -1.52572,-2.77812 -3.38681,-6.18081 -7.27369,-11.369507 -12.55032,-16.753717 -1.75715,-1.79298 -4.02826,-3.935837 -5.04691,-4.761903 -1.01864,-0.826066 -1.91161,-1.564754 -1.98437,-1.64153 -0.0728,-0.07678 -1.02526,-0.788402 -2.11667,-1.581394 -1.09141,-0.792991 -2.04391,-1.508649 -2.11667,-1.590352 -0.14148,-0.158876 -4.01208,-2.582091 -4.89479,-3.06442 -4.35868,-2.381668 -6.41863,-3.429419 -9.06198,-4.609181 l -1.38906,-0.619957 v -2.069503 c 0,-1.15024 0.11318,-2.069503 0.25479,-2.069503 0.80611,0 7.56699,3.100788 11.05615,5.070756 0.47294,0.267022 1.29707,0.733076 1.8314,1.035677 1.17448,0.66513 3.41428,2.162116 6.43683,4.302107 8.15714,5.775322 17.17765,15.731692 22.21201,24.51646 1.09826,1.91643 4.85374,9.59702 5.43352,11.1125 1.90913,4.99015 2.82339,8.14806 4.21307,14.55208 1.93258,8.9059 1.93638,22.53667 0.009,31.61771 -1.12508,5.30041 -1.46677,6.53881 -3.17556,11.50937 -1.47722,4.29696 -4.2765,10.38811 -6.10554,13.2855 -0.34424,0.54532 -0.6259,1.11291 -0.6259,1.26133 0,0.14841 -0.11906,0.26984 -0.26458,0.26984 -0.14552,0 -0.26458,0.13068 -0.26458,0.29041 0,0.46187 -4.24214,6.49195 -6.50062,9.24043 -2.06484,2.51284 -7.17459,7.76334 -9.90355,10.17635 -2.8308,2.50306 -9.3706,7.09231 -12.77553,8.96513 -1.41884,0.7804 -1.35918,0.76102 -1.60016,0.52004 z m -82.829122,-2.22513 c -3.046921,-1.90656 -6.149769,-4.03457 -6.511849,-4.46599 -0.07276,-0.0867 -0.667678,-0.57127 -1.322038,-1.07683 -1.921512,-1.48457 -2.371743,-1.87406 -4.579827,-3.96191 -2.694936,-2.5482 -5.425335,-5.36751 -6.662231,-6.87917 -0.535818,-0.65484 -1.227894,-1.48828 -1.537947,-1.85208 -0.636862,-0.74727 -5.477123,-7.63632 -5.477123,-7.79549 0,-0.0567 -0.569254,-1.03464 -1.265008,-2.17311 -1.745395,-2.856 -5.349575,-10.28613 -5.349575,-11.02831 0,-0.19038 -0.0816,-0.42775 -0.181329,-0.52748 -0.197993,-0.19799 -0.778309,-1.69387 -1.144264,-2.94957 -0.12723,-0.43656 -0.46355,-1.45809 -0.747377,-2.27007 -0.938347,-2.68443 -2.218599,-8.41476 -2.862235,-12.81118 -0.718134,-4.9053 -0.640835,-18.84561 0.129841,-23.41562 1.088274,-6.45334 2.670839,-12.74155 3.905468,-15.51811 0.203901,-0.45856 0.37073,-0.96619 0.37073,-1.12807 0,-0.16189 0.108861,-0.50108 0.241915,-0.75377 0.133053,-0.25268 0.503778,-1.11427 0.823833,-1.91464 0.489649,-1.22447 1.758092,-3.84002 4.362625,-8.99583 0.257293,-0.50932 0.748508,-1.30505 1.09159,-1.76828 0.343083,-0.46324 0.623786,-0.91074 0.623786,-0.99445 0,-0.0837 0.791315,-1.31204 1.758477,-2.72963 8.202247,-12.022174 19.316756,-21.621498 32.185347,-27.797681 1.570406,-0.753705 2.911157,-1.370372 2.979446,-1.370372 0.06829,0 0.62888,-0.227909 1.245758,-0.506464 1.216873,-0.549488 4.713276,-1.736381 7.86847,-2.67104 1.091406,-0.323305 2.242456,-0.686106 2.557888,-0.806224 0.315433,-0.120118 1.302647,-0.300888 2.19381,-0.401712 l 1.620296,-0.183315 -0.174061,1.821356 c -0.192958,2.019091 -0.463776,2.38614 -1.944421,2.635334 -0.520421,0.08759 -1.422471,0.313586 -2.004554,0.502219 -0.582083,0.188632 -1.951302,0.611757 -3.042708,0.940276 -1.091406,0.328519 -2.097484,0.699348 -2.235729,0.824064 -0.138245,0.124716 -0.417907,0.226756 -0.621472,0.226756 -0.203565,0 -0.745299,0.164357 -1.203854,0.365238 -0.458555,0.200881 -1.48858,0.632687 -2.288945,0.95957 -6.19876,2.531677 -15.110358,8.029029 -19.701163,12.153177 -2.970942,2.668944 -4.110466,3.7369 -5.663103,5.30743 -3.351002,3.389621 -7.709949,9.010778 -10.355323,13.353878 -1.349717,2.21593 -4.49027,8.26824 -5.152413,9.92945 -1.593607,3.99812 -3.104988,8.48651 -3.697383,10.98021 -0.241986,1.01865 -0.549181,2.20927 -0.682656,2.64584 -0.459901,1.50421 -1.28425,6.89048 -1.59848,10.4444 -0.502569,5.68403 0.05669,17.53053 0.964654,20.43386 0.0776,0.24816 0.242356,1.02206 0.366115,1.71979 0.123758,0.69774 0.522564,2.3997 0.886236,3.78215 4.025431,15.3021 12.413987,28.79018 24.392892,39.2217 2.08449,1.81522 6.874524,5.28016 9.30224,6.72891 l 2.471718,1.475 v 2.21636 c 0,1.93504 -0.05877,2.21616 -0.463021,2.21478 -0.254661,-8.7e-4 -1.997532,-0.96178 -3.873046,-2.13535 z M 174.14195,207.08555 c -0.69977,-0.74487 -0.7224,-1.42995 -0.0751,-2.27194 0.40477,-0.52648 0.63691,-0.60566 1.35468,-0.46211 1.53186,0.30637 2.05284,1.68577 1.04519,2.76736 -0.69812,0.74935 -1.60171,0.7364 -2.32482,-0.0333 z m 25.75075,-0.79658 c -1.56837,-0.58155 -4.6021,-2.82042 -5.34952,-3.94791 -1.21442,-1.83195 -1.52142,-2.83644 -1.51651,-4.9619 0.004,-1.67771 0.11009,-2.14853 0.68734,-3.04659 0.84775,-1.31889 1.34807,-1.74047 2.57141,-2.1667 1.57475,-0.54867 2.84993,-0.43258 5.26093,0.47896 0.32742,0.12379 0.59315,0.43598 0.59051,0.69377 -0.003,0.25778 -1.07385,2.07603 -2.38046,4.04056 -1.30661,1.96453 -2.37601,3.82105 -2.37644,4.12559 -0.001,0.69655 1.73254,1.59125 3.48374,1.79801 3.17196,0.37451 6.75656,-1.92892 7.2768,-4.67601 0.23817,-1.25759 0.5727,-1.77675 1.14491,-1.77675 0.80702,0 1.14461,0.95412 0.96058,2.71484 -0.30758,2.94274 -1.77096,5.31724 -3.94448,6.40035 -1.13603,0.56611 -1.69547,0.66987 -3.48419,0.64624 -1.17198,-0.0155 -2.48805,-0.16059 -2.92462,-0.32246 z m -3.94733,-6.73105 c 0.63914,-0.43439 2.51394,-3.61305 2.4393,-4.13575 -0.064,-0.4482 -0.29447,-0.5722 -1.18384,-0.63692 -0.91444,-0.0666 -1.25573,0.0549 -1.98438,0.7059 -0.74882,0.66907 -0.88,0.96285 -0.88,1.97082 0,0.79356 0.16637,1.36839 0.50403,1.7415 0.5489,0.60652 0.67466,0.64687 1.10489,0.35445 z M -3.6532381,201.4209 c -0.3199867,-0.27151 -0.6646217,-1.02833 -0.8163765,-1.79278 -0.3682057,-1.85479 -0.8427338,-3.6224 -1.1177495,-4.1636 -0.1284051,-0.25268 -0.2341973,-0.60987 -0.2350938,-0.79375 -8.965e-4,-0.18387 -0.1882907,-0.6915 -0.4164315,-1.12806 -0.2281409,-0.43657 -0.4821167,-1.3593 -0.5643907,-2.05053 -0.1437631,-1.20782 -0.1234945,-1.25677 0.5204157,-1.25677 0.6522919,0 0.9912031,0.42315 0.9912031,1.23757 0,0.2203 0.2462325,0.74634 0.5471833,1.16899 0.5847827,0.82125 1.6465048,1.03879 2.0193569,0.41375 0.1958053,-0.32824 3.31692904,-2.68575 4.8417928,-3.6572 0.363802,-0.23177 1.049237,-0.79495 1.5231888,-1.25152 0.8303346,-0.79987 0.8555053,-0.88539 0.6908642,-2.34741 -0.093977,-0.83452 -0.3185874,-1.81496 -0.4991355,-2.17876 -0.180548,-0.3638 -0.405581,-1.02101 -0.5000732,-1.46045 -0.094492,-0.43945 -0.4460536,-1.14294 -0.7812473,-1.56331 -0.516444,-0.64768 -0.8771436,-0.79655 -2.36374227,-0.97551 -0.96486454,-0.11616 -3.01867073,-0.18658 -4.56401373,-0.15649 -3.4275356,0.0668 -3.5600072,0.17776 -3.5600072,2.98331 0,1.26081 -0.1187387,1.99995 -0.3524368,2.1939 -0.6252904,0.51895 -1.1410195,-0.24967 -1.7505627,-2.60895 -0.721358,-2.79207 -1.83456,-6.13451 -2.154522,-6.46906 -0.656704,-0.68664 0.03074,-2.52677 0.943963,-2.52677 0.194045,0 1.001022,0.73411 1.7932809,1.63135 1.7481932,1.97986 0.059703,1.66011 16.4692352,3.11879 2.7705143,0.24628 8.2127739,0.92184 9.7966789,1.21609 0.811996,0.15085 2.771029,1.94185 2.771029,2.53336 0,0.30546 -0.333312,0.70724 -0.806016,0.97157 -0.694628,0.38843 -4.642403,3.08095 -5.411692,3.69096 -0.145521,0.11539 -1.03849,0.73279 -1.984375,1.372 -0.945886,0.6392 -2.4526425,1.86727 -3.348349,2.72903 -0.8957065,0.86177 -3.1553861,2.60193 -5.0215103,3.86703 -1.8661242,1.2651 -3.65646677,2.69121 -3.9785391,3.16913 -0.3220723,0.47793 -0.7301128,1.51477 -0.9067566,2.30409 -0.1766438,0.78933 -0.5237256,1.61846 -0.7712928,1.8425 -0.4064476,0.36783 -0.5038524,0.36177 -1.0038783,-0.0625 z M 8.0289525,184.88376 c 1.8044399,-1.2738 3.8773025,-3.28186 3.8773025,-3.7561 0,-0.79877 -0.870686,-1.07293 -3.7167762,-1.17035 -3.7474828,-0.12827 -3.8129683,-0.0293 -2.5693939,3.88108 0.5495827,1.72816 1.1020174,1.9679 2.4088676,1.04537 z M 214.18262,183.31088 c -0.68964,-0.54247 -0.70358,-0.59416 -0.2497,-0.92604 0.26439,-0.19333 0.69269,-0.35151 0.95177,-0.35151 0.86561,0 3.2956,-1.2434 3.87871,-1.98471 0.78929,-1.00342 0.75822,-2.35522 -0.0733,-3.18669 -1.21298,-1.21297 -2.67927,-0.69045 -5.68295,2.02515 -1.91989,1.73576 -3.1572,2.22982 -4.86272,1.94167 -2.27132,-0.38374 -3.76768,-2.08248 -4.068,-4.61821 -0.21303,-1.79876 0.61806,-3.70539 2.04626,-4.6944 1.02689,-0.7111 2.13998,-0.76047 3.18799,-0.14139 1.33549,0.78889 0.96517,1.61802 -0.98057,2.1954 -1.33934,0.39745 -2.74892,1.66776 -2.74892,2.47735 0,0.88803 1.05611,1.7525 2.141,1.7525 1.05784,0 1.64064,-0.35629 3.76664,-2.30272 2.097,-1.91989 3.23265,-2.45978 5.17402,-2.45978 1.30467,0 1.71636,0.11663 2.37862,0.67389 1.27912,1.07631 1.67148,2.11352 1.65264,4.36879 -0.0188,2.24495 -0.67975,4.12738 -1.82055,5.18463 -0.93831,0.86961 -3.61067,0.89585 -4.69099,0.0461 z m -225.506756,-34.81348 0.07935,-1.52136 8.2682288,-0.0699 8.2682287,-0.0699 v 1.59127 1.59127 h -8.3475783 -8.3475782 z m 215.691226,1.15858 c -0.0782,-0.20374 -0.10487,-0.89008 -0.0593,-1.52519 l 0.0828,-1.15475 8.12994,-0.07 8.12994,-0.07 0.15778,0.62866 c 0.0868,0.34577 0.11925,1.03209 0.0721,1.52517 l -0.0856,0.89651 -8.14277,0.07 c -6.78244,0.0583 -8.16652,0.008 -8.28493,-0.30046 z M 31.538337,88.582503 c -0.484263,-0.484263 -0.389556,-0.806834 0.47702,-1.624744 0.901742,-0.851099 1.195338,-1.706129 0.937963,-2.731595 -0.110825,-0.44156 -2.97988,-3.507118 -7.676328,-8.202083 -8.228491,-8.225894 -8.134642,-8.160961 -9.906162,-6.853974 -0.47936,0.353661 -1.038273,0.579047 -1.242028,0.500859 -0.575205,-0.220727 -0.43662,-1.302344 0.224848,-1.75487 1.823219,-1.247306 4.545575,-3.991281 5.751516,-5.797192 2.593374,-3.883609 5.877621,-6.650673 9.687036,-8.161581 2.350209,-0.932151 6.231854,-0.850118 9.440944,0.199522 4.375488,1.43115 8.234628,6.181225 8.88048,10.930659 0.260509,1.915715 0.07589,5.042034 -0.367182,6.217708 -1.381346,3.665378 -3.064565,5.697916 -10.736444,12.964583 -1.38272,1.309687 -2.944571,2.887265 -3.470782,3.505729 -0.989729,1.163244 -1.456401,1.351459 -2.000881,0.806979 z m 7.299811,-8.915016 c 1.601884,-0.817982 3.837888,-3.388973 4.9764,-5.721939 0.991542,-2.031805 1.029893,-2.210633 1.020171,-4.757003 -0.009,-2.366535 -0.09031,-2.809182 -0.769899,-4.193267 -1.697068,-3.456321 -5.089951,-6.173242 -9.423557,-7.546108 -1.052092,-0.333298 -5.110377,-0.442144 -5.933968,-0.159153 -2.472035,0.849407 -5.134511,2.944576 -6.528333,5.137308 -1.083674,1.704814 -0.990691,2.538214 0.475681,4.263493 2.976549,3.502096 11.631893,12.019203 13.196402,12.985639 1.00799,0.622659 1.754551,0.620418 2.987103,-0.009 z m 134.978382,3.918135 c -0.35571,-0.31398 -1.4586,-1.222828 -2.45088,-2.019663 -1.93902,-1.557107 -2.32154,-2.104128 -1.74015,-2.488506 0.36021,-0.238144 0.81885,-0.198855 2.01461,0.172579 0.62688,0.194728 0.60507,0.212872 3.52167,-2.929285 3.76857,-4.060021 4.37862,-5.988938 2.5375,-8.023352 -0.70039,-0.773918 -2.83194,-1.437584 -3.63055,-1.130385 -0.74347,0.285986 -5.68994,5.524719 -6.44175,6.822375 -0.45293,0.781768 -0.47508,1.002582 -0.18187,1.813429 0.18362,0.507799 0.25984,1.043028 0.16938,1.189397 -0.27059,0.437833 -1.06911,0.302777 -1.74641,-0.295378 -0.34968,-0.308827 -1.25066,-1.029801 -2.00217,-1.602165 -0.75151,-0.572363 -1.43239,-1.212655 -1.51305,-1.422871 -0.2841,-0.740339 0.12995,-1.17596 1.11771,-1.17596 0.8657,0 1.20664,-0.253061 3.47743,-2.581044 4.03042,-4.131952 4.59594,-4.910944 4.43519,-6.109422 -0.19398,-1.446203 0.16862,-1.968772 1.21347,-1.748817 0.77563,0.163281 2.14033,0.676863 3.08667,1.161617 0.22327,0.11437 0.45474,0.709699 0.52917,1.360998 0.12833,1.123102 0.16529,1.163297 1.23655,1.344937 3.41565,0.579146 5.40948,3.532715 4.58886,6.797708 -0.36803,1.464254 -1.06446,2.426574 -3.6538,5.048743 -3.2115,3.252227 -3.2718,3.344709 -3.17901,4.875551 0.0952,1.570067 -0.34036,1.864748 -1.38857,0.939514 z M 148.24224,65.01596 c -2.05433,-0.911307 -3.13953,-1.90556 -4.03433,-3.696203 -2.10026,-4.20299 -0.1058,-9.978069 4.13959,-11.986462 1.08326,-0.512464 1.79873,-0.649957 3.38218,-0.649957 1.75362,0 2.25059,0.117238 3.91899,0.924507 3.35731,1.624458 4.62569,3.998754 4.14818,7.764998 -0.30084,2.372809 -1.20255,4.3198 -2.71138,5.854457 -1.49697,1.522606 -3.04119,2.170024 -5.47922,2.297177 -1.64714,0.08591 -2.21884,-5.14e-4 -3.36401,-0.508517 z m 4.57931,-2.178299 c 2.31875,-1.768598 3.81178,-4.899553 3.81178,-7.993491 0,-2.925551 -1.31059,-4.308749 -4.08258,-4.308749 -2.20851,0 -4.22498,2.303558 -5.97198,6.822227 -0.38556,0.99725 -0.23475,3.504789 0.27768,4.617292 0.93435,2.028472 3.87847,2.454274 5.9651,0.862721 z M 59.621766,64.94175 c -0.08914,-0.23229 0.08667,-0.670205 0.405179,-1.00924 0.596153,-0.634575 0.730895,-1.724224 0.307488,-2.486617 -0.140334,-0.252687 -0.714945,-1.41193 -1.276914,-2.576097 -2.197644,-4.552612 -2.632838,-5.103277 -4.118829,-5.2117 -1.494605,-0.109051 -1.435103,-0.57975 0.359229,-2.841744 2.05752,-2.593779 2.296842,-2.637687 3.220326,-0.590832 1.677291,3.717631 4.662065,9.527767 5.272354,10.263121 0.181289,0.21844 0.816388,0.36553 1.578268,0.36553 1.362687,0 1.859666,0.362613 1.271295,0.927582 -0.310934,0.298567 -2.018551,1.261255 -4.788546,2.699594 -0.397289,0.206296 -0.791269,0.486606 -0.875511,0.622912 -0.245836,0.397772 -1.182466,0.285384 -1.354339,-0.162509 z m 19.35636,-9.2219 c -2.920002,-0.835188 -4.47334,-2.526023 -5.707487,-6.212695 -0.621513,-1.856597 -0.629248,-2.943285 -0.03411,-4.792567 0.616177,-1.914669 1.1425,-2.851645 2.21312,-3.939866 1.364003,-1.386427 2.757529,-2.150279 4.64224,-2.544612 2.075955,-0.434346 3.325571,-0.125329 3.992345,0.987265 0.407525,0.680005 0.401099,0.761783 -0.114358,1.455208 -0.835459,1.123912 -1.979134,1.135654 -4.12826,0.04239 -0.789917,-0.401833 -1.536451,-0.259582 -2.591932,0.49389 -1.799124,1.284335 -2.311447,3.185353 -1.546029,5.736683 1.674869,5.582766 6.730913,7.231413 9.763733,3.183707 0.932744,-1.244872 1.319857,-1.417352 1.822308,-0.811935 0.238564,0.287453 0.148948,0.702291 -0.404004,1.870143 -1.035887,2.187825 -2.585369,3.755519 -4.331952,4.382866 -1.603261,0.575868 -2.023575,0.593445 -3.57561,0.149527 z m 47.838084,-0.124194 c -0.61041,-0.24263 -1.47361,-0.710099 -1.91823,-1.03882 -0.68572,-0.506972 -0.80608,-0.767119 -0.79315,-1.714231 0.0295,-2.163673 0.33902,-3.226105 0.96586,-3.315855 0.48181,-0.06898 0.62569,0.105806 0.87122,1.058333 0.59846,2.321709 0.84678,2.858541 1.62522,3.513555 1.51905,1.278197 4.09421,0.558146 4.22714,-1.181967 0.11801,-1.544882 -0.0725,-1.924869 -1.83245,-3.654386 -2.40678,-2.365193 -2.99353,-3.25511 -3.04418,-4.617091 -0.0508,-1.364582 0.95212,-3.506563 1.99703,-4.265339 1.60645,-1.166541 6.30031,-0.667913 7.24201,0.769317 0.52578,0.802432 0.3143,2.717584 -0.39708,3.596111 -0.62612,0.773226 -0.96927,0.50332 -1.34353,-1.056767 -0.60288,-2.513074 -2.80674,-3.515319 -4.05038,-1.841977 -0.92987,1.251163 -0.47235,2.414615 1.85606,4.719859 1.10223,1.091255 2.16418,2.367353 2.3599,2.835772 0.91889,2.199219 -0.0136,4.835236 -2.18536,6.177431 -1.0498,0.648814 -3.96708,0.657208 -5.58008,0.01606 z m -29.596872,-2.96041 c -0.28897,-0.319134 -0.302853,-0.485476 -0.06072,-0.727604 0.172638,-0.172638 0.460164,-0.313887 0.638947,-0.313887 0.178782,0 0.512157,-0.187098 0.740833,-0.415774 0.363718,-0.363718 0.415774,-1.70377 0.415774,-10.703175 0,-6.975908 -0.09456,-10.494939 -0.29376,-10.932133 -0.161567,-0.354602 -0.578286,-0.774371 -0.926041,-0.932819 -0.681917,-0.310702 -0.837272,-1.122845 -0.300073,-1.56868 0.182715,-0.15164 0.68873,-0.358977 1.124479,-0.460749 0.435748,-0.101772 1.054006,-0.348181 1.373906,-0.547576 0.319902,-0.199395 0.974742,-0.393589 1.455212,-0.431544 l 0.87357,-0.06901 v 8.726126 c 0,10.229444 -0.11621,9.911596 2.64035,7.221982 1.75747,-1.714786 2.23298,-2.864376 1.3284,-3.211498 -0.21828,-0.08376 -0.39688,-0.435859 -0.39688,-0.782438 0,-0.605387 0.0951,-0.636896 2.4219,-0.802053 4.09719,-0.290828 5.51055,-0.228368 5.69475,0.251666 0.19749,0.514651 -0.27126,0.840906 -1.50206,1.045448 -0.50933,0.08464 -1.4023,0.354285 -1.98438,0.599206 -1.26083,0.530513 -3.83646,3.092654 -3.83646,3.816365 0,0.48777 4.59588,7.220799 5.61125,8.220563 0.26763,0.263516 0.89238,0.648665 1.38833,0.855887 1.07527,0.449276 1.40508,0.887747 0.90567,1.204066 -0.20054,0.127023 -2.06126,0.232773 -4.13493,0.235002 -3.42364,0.0037 -3.77032,-0.03875 -3.77032,-0.461471 0,-0.256037 0.23813,-0.614233 0.52917,-0.795992 0.29104,-0.181758 0.52917,-0.511215 0.52917,-0.732127 0,-0.42376 -2.55932,-4.591479 -3.44521,-5.610334 -0.63891,-0.734819 -0.90443,-0.746391 -1.58188,-0.06894 -0.44025,0.440249 -0.52916,0.881944 -0.52916,2.628609 0,2.535321 0.24441,3.258684 1.31469,3.890911 0.45044,0.266082 0.78183,0.662831 0.73852,0.884176 -0.11764,0.601148 -6.417661,0.590106 -6.963042,-0.0122 z M 50.682714,42.53905 c -1.159421,-1.655304 0.606463,-3.574264 2.199605,-2.390279 1.416141,1.052443 0.82273,2.978317 -0.917696,2.978317 -0.599129,0 -0.998278,-0.183097 -1.281909,-0.588038 z"
       id="path1" /></g></svg>
